<?xml version="1.0" encoding="UTF-8"?>
<svg version="1.1" xmlns="http://www.w3.org/2000/svg" width="1536" height="1024">
<path d="M0 0 C337.92 0 675.84 0 1024 0 C1024 337.92 1024 675.84 1024 1024 C686.08 1024 348.16 1024 0 1024 C0 686.08 0 348.16 0 0 Z " fill="#FEFEFE" transform="translate(221,0)"/>
<path d="M0 0 C15.75071365 7.62666135 25.1833071 26.31791307 31 42 C31.41378906 43.05058594 31.82757812 44.10117188 32.25390625 45.18359375 C36.05793661 56.22455993 35.38761638 67.46394024 35 79 C36.74410156 78.11248047 36.74410156 78.11248047 38.5234375 77.20703125 C49.4532255 71.765735 60.09338224 67.6957252 72 65 C73.03125 64.75507812 74.0625 64.51015625 75.125 64.2578125 C84.30722549 62.39586122 93.67840204 62.82448874 103 63 C100.48437672 65.51562328 97.61026993 66.69267318 94.4375 68.1875 C85.48229618 72.54550845 77.41952107 78.28129014 71 86 C70.67 86.99 70.34 87.98 70 89 C70.99257813 88.66226563 71.98515625 88.32453125 73.0078125 87.9765625 C74.38000737 87.52542994 75.75241524 87.07494491 77.125 86.625 C77.77082031 86.40328125 78.41664063 86.1815625 79.08203125 85.953125 C92.23128153 81.69527253 105.76832931 81.62753836 119.4375 81.6875 C120.32150482 81.68965515 121.20550964 81.6918103 122.11630249 81.69403076 C135.95081594 81.74807854 149.38686923 82.36263655 163 85 C164.01642578 85.18804199 165.03285156 85.37608398 166.08007812 85.56982422 C197.06507315 91.42492625 228.2088632 102.00741304 256 117 C256 117.33 256 117.66 256 118 C250.74686114 117.51320865 245.51360369 116.9525929 240.28515625 116.24609375 C204.69932088 111.53451999 171.60284857 114.99118263 137 124 C135.71993073 124.33248749 135.71993073 124.33248749 134.41400146 124.67169189 C127.70556303 126.41850783 121.00741762 128.20214022 114.3125 130 C113.39204895 130.24499237 112.4715979 130.48998474 111.52325439 130.74240112 C94.29009164 135.34765266 77.56792957 140.86355144 61.5 148.6875 C60.45320068 149.19224854 59.40640137 149.69699707 58.32788086 150.21704102 C50.6905687 153.97958742 43.44680969 158.18255872 36.36328125 162.90307617 C32.65521441 165.37383321 28.97638023 167.56643265 24.96484375 169.515625 C20.3527816 171.76068515 16.18718235 174.36016193 12 177.3125 C11.3179248 177.78598877 10.63584961 178.25947754 9.93310547 178.74731445 C5.04657255 182.17227626 0.37771989 185.78223351 -4.1796875 189.63671875 C-6 191 -6 191 -8 191 C-8 191.66 -8 192.32 -8 193 C-13.47619048 198 -13.47619048 198 -16 198 C-16.38865234 198.8971875 -16.38865234 198.8971875 -16.78515625 199.8125 C-18.0916304 202.16499365 -19.34116113 203.34096193 -21.4375 205 C-24.06197006 207.1453137 -25.99558324 209.25711391 -28 212 C-28.66 212 -29.32 212 -30 212 C-30.2578125 212.58007812 -30.515625 213.16015625 -30.78125 213.7578125 C-32.10378606 216.19093974 -33.59500053 217.86850466 -35.5 219.875 C-62.55968709 249.86005866 -78.11046342 288.9090088 -86 328 C-86.25023926 329.21204102 -86.50047852 330.42408203 -86.75830078 331.67285156 C-95.25335685 372.87293514 -96.71430545 411.76023154 -85.83251953 452.83496094 C-84.98342006 456.06303293 -84.17498038 459.29946192 -83.37109375 462.5390625 C-79.87646253 476.35892663 -75.41503333 489.46854547 -69.96337891 502.63378906 C-68.7465308 505.62256045 -67.65557987 508.65159619 -66.5625 511.6875 C-55.95926735 539.23404257 -38.11229538 565.39951784 -17 586 C-16.52232178 586.46704346 -16.04464355 586.93408691 -15.55249023 587.4152832 C-6.60698328 596.09431015 2.76911655 603.88020743 13 611 C13.70157227 611.48823242 14.40314453 611.97646484 15.12597656 612.47949219 C34.11652325 625.48565892 55.16441411 635.52244789 77.13842773 642.33666992 C79.18850554 643.06716978 81.05492401 644.027462 83 645 C85.00930229 645.56368346 87.03173177 646.08185969 89.0625 646.5625 C92.09794964 647.28665548 95.03867649 648.01289216 98 649 C98 649.66 98 650.32 98 651 C98.55042969 651.09796875 99.10085938 651.1959375 99.66796875 651.296875 C104.50408396 652.16662595 109.33474256 653.06102429 114.16015625 653.98828125 C115.53747925 654.2527002 115.53747925 654.2527002 116.94262695 654.52246094 C118.78648909 654.87715465 120.63008588 655.23323114 122.47338867 655.59082031 C123.34326416 655.75807617 124.21313965 655.92533203 125.109375 656.09765625 C126.26904785 656.32207397 126.26904785 656.32207397 127.45214844 656.55102539 C133.8239698 657.67384826 139.9907278 658.18973365 146.4453125 658.31640625 C147.3562114 658.33736862 148.26711029 658.35833099 149.20561218 658.37992859 C152.178655 658.44624619 155.1517686 658.50529217 158.125 658.5625 C159.65548477 658.59277283 159.65548477 658.59277283 161.21688843 658.62365723 C167.48980837 658.74590509 173.76285859 658.85462334 180.03619385 658.95318604 C181.94176998 658.98328503 183.84733034 659.01440929 185.75286865 659.04681396 C220.678817 659.63913725 254.54919087 657.07090078 287.65478516 644.86132812 C290.24492031 643.910048 292.84668407 642.99491158 295.44921875 642.078125 C307.89762046 637.61955524 319.85594722 632.41196118 331.80419922 626.75463867 C338.96021261 623.37571581 346.1449573 620.17191312 353.5 617.25 C354.31243164 616.92700928 355.12486328 616.60401855 355.96191406 616.27124023 C359.28971655 614.97273487 362.5170899 613.81576466 366 613 C364.8499508 618.65440857 363.74986158 621.52558889 360 626 C352.98659984 635.25833209 346.38550164 644.73783928 340.32666016 654.64599609 C337.85867453 658.67163643 335.27447372 662.49997056 332.3515625 666.21484375 C330.81781027 668.24063788 329.48355908 670.35318605 328.125 672.5 C322.5693228 680.92032325 314.38048569 688.41300954 306 694 C318.63140006 695.0809756 329.21954604 692.06132493 340.375 686.23828125 C341.24125 685.82964844 342.1075 685.42101562 343 685 C343.66 685.33 344.32 685.66 345 686 C324.21321517 717.79444394 289.8528789 735.26933902 253.39453125 743.16796875 C248.9515533 744.07184682 244.51081072 744.55828856 240 745 C242.65993471 752.05751522 245.76500547 758.50299739 249.5625 765 C256.83381632 777.56794641 259.02109826 788.87408157 259.1875 803.1875 C259.20071289 803.9604541 259.21392578 804.7334082 259.22753906 805.52978516 C259.23343672 810.08572396 258.73132904 813.709315 257 818 C256.34 817.34 255.68 816.68 255 816 C254.53464844 815.54109375 254.06929687 815.0821875 253.58984375 814.609375 C252.49325523 813.49931488 251.42412634 812.36168221 250.37890625 811.203125 C236.83004458 796.63445654 218.83626722 790.66291182 200.13867188 785.68408203 C190.33707059 782.99265873 182.08833704 779.25950559 174 773 C173.53851562 773.67804687 173.07703125 774.35609375 172.6015625 775.0546875 C160.61892167 792.15244773 145.57444131 802.28908683 127 811 C125.54207031 811.70382812 125.54207031 811.70382812 124.0546875 812.421875 C122.06903186 813.35404775 120.0390995 814.19139158 118 815 C117.34 814.67 116.68 814.34 116 814 C116.60328125 813.2884375 117.2065625 812.576875 117.828125 811.84375 C124.19664778 803.50510866 126.27639225 794.34549509 125 784 C124.3873825 781.982788 123.73441191 779.97612843 123 778 C122.28714844 778.86882813 121.57429687 779.73765625 120.83984375 780.6328125 C112.04450171 791.25154158 112.04450171 791.25154158 106.61328125 795.6328125 C96.24097408 804.42290332 91.57126533 814.88255761 90.2265625 828.10546875 C90.15179687 829.06066406 90.07703125 830.01585937 90 831 C78.64590569 825.95373586 73.09817515 813.58851762 68 803 C59.34205458 815.55145933 53.86759036 828.15397106 52.36132812 843.27880859 C50.22275526 864.50988842 44.20672165 889.75827841 27 904 C26.67 904 26.34 904 26 904 C25.97421875 903.01902344 25.9484375 902.03804687 25.921875 901.02734375 C25.07015297 878.23309733 16.35318101 859.4339389 3.2578125 841.16015625 C-5.6333143 828.68389768 -15.64892522 813.89866786 -15 798 C-16.86205078 798.52400391 -16.86205078 798.52400391 -18.76171875 799.05859375 C-20.40361879 799.51832576 -22.04554738 799.97795582 -23.6875 800.4375 C-24.50412109 800.66759766 -25.32074219 800.89769531 -26.16210938 801.13476562 C-26.95810547 801.35712891 -27.75410156 801.57949219 -28.57421875 801.80859375 C-29.30213623 802.01282959 -30.03005371 802.21706543 -30.7800293 802.42749023 C-37.7586658 804.22721558 -44.55482227 804.18609854 -51.71948242 804.18530273 C-53.92711659 804.18748971 -56.1342509 804.2056742 -58.34179688 804.22460938 C-59.75781081 804.22754386 -61.17382709 804.22952829 -62.58984375 804.23046875 C-63.86722412 804.23457764 -65.14460449 804.23868652 -66.46069336 804.24291992 C-69.97553424 804.0016792 -72.72917872 803.27074444 -76 802 C-72.95004819 799.53685602 -69.86078518 797.90122814 -66.3125 796.25 C-56.58028237 791.41352644 -49.52907976 786.15934754 -45 776 C-45 775.01 -45 774.02 -45 773 C-45.8765625 773.56847656 -46.753125 774.13695312 -47.65625 774.72265625 C-67.98877295 787.33216401 -90.83485383 792.64880821 -114.33300781 787.34277344 C-126.25854978 784.41269703 -126.25854978 784.41269703 -131 781 C-131 780.67 -131 780.34 -131 780 C-130.01773438 779.77957031 -130.01773438 779.77957031 -129.015625 779.5546875 C-118.08272821 776.86778914 -106.39630774 772.65026583 -100.1875 762.75 C-99.4493141 761.50530501 -98.7169914 760.25702322 -98 759 C-98.95362427 759.08302368 -98.95362427 759.08302368 -99.92651367 759.16772461 C-103.01292647 759.43186591 -106.10000189 759.68635112 -109.1875 759.9375 C-110.34556152 760.0317627 -111.50362305 760.12602539 -112.69677734 760.22314453 C-120.26535673 760.80518721 -127.80325843 761.1345073 -135.3918457 761.29418945 C-147.1864748 761.54950449 -157.79775953 762.14882325 -169 766 C-170.14082031 766.3609375 -171.28164063 766.721875 -172.45703125 767.09375 C-190.27672292 773.23417926 -200.66060023 785.7910258 -209 802 C-209.69480262 803.6551349 -210.37387464 805.31768337 -211 807 C-211.66 807 -212.32 807 -213 807 C-217.59239445 796.98023029 -218.47676731 787.97992819 -218.5 777 C-218.5023465 776.29568848 -218.50469299 775.59137695 -218.5071106 774.86572266 C-218.48030406 755.31740018 -213.79565023 737.43833262 -205 720 C-204.54077148 719.08541016 -204.54077148 719.08541016 -204.07226562 718.15234375 C-201.13277992 712.34732166 -198.19369282 706.99771236 -194 702 C-195.01030273 701.86537354 -195.01030273 701.86537354 -196.04101562 701.72802734 C-218.45118518 698.66133236 -241.16667791 693.47706131 -258 677 C-258 676.34 -258 675.68 -258 675 C-257.40574219 674.98018066 -256.81148437 674.96036133 -256.19921875 674.93994141 C-253.46575581 674.84376007 -250.73296197 674.73446443 -248 674.625 C-247.06542969 674.5940625 -246.13085938 674.563125 -245.16796875 674.53125 C-237.42297956 674.20628542 -230.67980419 673.14229209 -223.6875 669.5625 C-222.86636719 669.15128906 -222.04523438 668.74007812 -221.19921875 668.31640625 C-219.10907093 667.06528757 -217.62302699 665.80161248 -216 664 C-217.61467665 662.38532335 -219.51842923 662.62434718 -221.75 662.38671875 C-222.74314209 662.27529541 -223.73628418 662.16387207 -224.75952148 662.04907227 C-226.36355835 661.87009399 -226.36355835 661.87009399 -228 661.6875 C-255.53255839 658.41579912 -255.53255839 658.41579912 -267 652 C-267.87914062 651.51917969 -268.75828125 651.03835938 -269.6640625 650.54296875 C-280.67461579 644.06706482 -288.72218905 634.66285497 -294 623 C-293.67 622.34 -293.34 621.68 -293 621 C-292.31292969 621.34933594 -291.62585938 621.69867187 -290.91796875 622.05859375 C-290.01691406 622.51363281 -289.11585938 622.96867188 -288.1875 623.4375 C-287.29417969 623.88996094 -286.40085937 624.34242188 -285.48046875 624.80859375 C-281.64530295 626.65068126 -278.65646357 627.18399275 -274.4375 627.25 C-272.98150391 627.28867188 -272.98150391 627.28867188 -271.49609375 627.328125 C-266.77386827 626.88492172 -262.48943143 625.48213272 -258 624 C-259.76150391 623.18208984 -259.76150391 623.18208984 -261.55859375 622.34765625 C-269.72014547 618.53209879 -277.78242121 614.63692309 -285.6875 610.3125 C-291.22402787 607.30975852 -296.78877355 604.71399003 -302.6875 602.5 C-303.65852661 602.13515503 -303.65852661 602.13515503 -304.64916992 601.76293945 C-320.30961188 596.13634732 -342.66599729 596.51581017 -358 603 C-363.8052748 605.75527948 -369.42575387 608.80691898 -375 612 C-376.79239507 608.41520987 -375.14653662 604.64131537 -374 601 C-362.34865203 572.73760865 -335.96217117 548.66203975 -309 535 C-308.34 535 -307.68 535 -307 535 C-307 534.34 -307 533.68 -307 533 C-307.78503906 532.67128906 -307.78503906 532.67128906 -308.5859375 532.3359375 C-328.16317746 521.50193092 -341.71114801 500.1751379 -348.13671875 479.30859375 C-349.13090613 475.4982919 -349.75963221 471.92600723 -350 468 C-348.700625 469.1446875 -348.700625 469.1446875 -347.375 470.3125 C-330.24481481 484.90616689 -316.16252646 493.8439787 -293 493 C-294.03898437 492.3709375 -295.07796875 491.741875 -296.1484375 491.09375 C-304.19689129 486.17326414 -311.79899905 481.12421576 -319 475 C-319.89525391 474.32130859 -319.89525391 474.32130859 -320.80859375 473.62890625 C-337.17219926 460.89325947 -347.34160932 438.67062119 -351.6875 418.8671875 C-352.06175216 415.43342392 -352.09507965 412.07844332 -352.0625 408.625 C-352.05347656 407.37976563 -352.04445313 406.13453125 -352.03515625 404.8515625 C-352.02355469 403.91054688 -352.01195312 402.96953125 -352 402 C-349.03206982 404.8779929 -346.32062426 407.81126236 -343.6875 411 C-335.97670146 419.84327003 -326.31654886 422.71618983 -315 424 C-315.55945313 423.25363281 -316.11890625 422.50726563 -316.6953125 421.73828125 C-322.85860033 413.16913712 -327.60721428 404.06977831 -332.125 394.5625 C-332.4265802 393.92788849 -332.7281604 393.29327698 -333.03887939 392.63943481 C-334.51025865 389.53675236 -335.97445582 386.43075127 -337.43457031 383.32275391 C-349.46571549 357.78565379 -362.37235007 341.08136495 -389 330 C-390.98982813 329.30356015 -392.98620832 328.62376881 -395 328 C-395 327.34 -395 326.68 -395 326 C-364.30683036 310.88690402 -332.07534552 308.06071743 -299 317 C-299.2165625 316.13761719 -299.433125 315.27523438 -299.65625 314.38671875 C-306.0751564 286.24456894 -299.17044789 261.07989545 -286 236 C-285.34 236 -284.68 236 -284 236 C-283.9906543 236.68924561 -283.98130859 237.37849121 -283.97167969 238.08862305 C-283.62443495 258.46882496 -282.42906826 275.22570399 -267.125 290.2109375 C-264.55515417 292.37452094 -261.82105942 294.18073725 -259 296 C-259.3853894 295.00371582 -259.3853894 295.00371582 -259.77856445 293.98730469 C-260.96381009 290.91094801 -262.1381796 287.83054282 -263.3125 284.75 C-263.71662109 283.70585937 -264.12074219 282.66171875 -264.53710938 281.5859375 C-271.14656729 264.17565811 -274.43039746 248.12854491 -269 230 C-268.79600586 229.27296875 -268.59201172 228.5459375 -268.38183594 227.796875 C-264.83947711 215.17432126 -261.19920268 202.92138726 -250 195 C-250.15855469 196.00417969 -250.31710937 197.00835937 -250.48046875 198.04296875 C-252.29861229 211.89093425 -250.83468719 221.52777947 -243 233 C-242.86464844 231.89527344 -242.72929687 230.79054688 -242.58984375 229.65234375 C-241.32561572 220.24143849 -239.38435146 211.36503028 -236.5 202.3125 C-227.71297667 174.42275381 -227.83329372 149.66528808 -238.6328125 122.48828125 C-239.86224182 119.35148014 -240.96592743 116.20562498 -242 113 C-216.9726353 114.53228763 -195.07010961 131.03180149 -178 148 C-177.34 148.99 -176.68 149.98 -176 151 C-175.34 151 -174.68 151 -174 151 C-173.29037109 149.49373047 -173.29037109 149.49373047 -172.56640625 147.95703125 C-160.54304931 122.90298 -142.66120676 99.34875789 -116 89 C-115.01 89.33 -114.02 89.66 -113 90 C-113.65226562 90.82242188 -114.30453125 91.64484375 -114.9765625 92.4921875 C-126.56402149 107.23058325 -135.3975982 121.55410778 -134 141 C-132.5513444 150.33379403 -132.5513444 150.33379403 -129 159 C-127.03788063 156.05682094 -126.28488742 153.95027285 -125.3359375 150.58203125 C-121.60227119 137.68748965 -117.72786032 125.64437364 -111 114 C-110.42507813 112.99066406 -109.85015625 111.98132813 -109.2578125 110.94140625 C-105.2266713 104.24451039 -100.40598788 98.6202496 -95 93 C-94.52820313 92.49178711 -94.05640625 91.98357422 -93.5703125 91.45996094 C-82.34494832 79.36942944 -69.04816481 67.49545305 -52 66 C-52.845625 66.969375 -53.69125 67.93875 -54.5625 68.9375 C-55.71088701 70.28950173 -56.85652386 71.6438423 -58 73 C-58.59941406 73.69867188 -59.19882812 74.39734375 -59.81640625 75.1171875 C-67.68954819 84.67378744 -69.69587282 92.66758719 -69 105 C-68.45085937 104.34257812 -68.45085937 104.34257812 -67.890625 103.671875 C-59.40977604 93.73716622 -50.56069048 85.18519329 -40.01196289 77.50756836 C-33.17831617 72.49502754 -27.03321737 66.94180499 -21 61 C-20.22914063 60.25363281 -19.45828125 59.50726563 -18.6640625 58.73828125 C-12.81535165 52.67668629 -9.39424885 45.60095088 -6 38 C-5.6596875 37.24460938 -5.319375 36.48921875 -4.96875 35.7109375 C-0.32632782 24.4298516 -0.47235813 11.99541048 0 0 Z " fill="#020202" transform="translate(720,40)"/>
<path d="M0 0 C0.66 0 1.32 0 2 0 C2.11069473 3.00105701 2.18855184 5.99781839 2.25 9 C2.28351563 9.81984375 2.31703125 10.6396875 2.3515625 11.484375 C2.57733825 26.38557421 -3.30691276 40.05094744 -9.0625 53.5 C-10.00578326 55.73438556 -10.94580733 57.97011805 -11.88511658 60.20617676 C-12.46307321 61.57881029 -13.04385709 62.95025875 -13.62818909 64.32019043 C-15.54797053 68.83633561 -17.30153248 73.39584748 -19 78 C-16.58485656 76.81511752 -14.17742551 75.61753241 -11.77734375 74.40234375 C-10.11287076 73.56191365 -8.4405801 72.73634297 -6.75390625 71.94140625 C1.45290713 67.83047037 7.88488179 61.12904416 14.30859375 54.68359375 C20.77709339 48.42873263 28.82738806 44 38 44 C36.41980408 49.2063297 34.22115005 53.98373311 31.875 58.875 C31.50246094 59.65875 31.12992188 60.4425 30.74609375 61.25 C29.83381003 63.16813499 28.91733016 65.08427329 28 67 C38.31311718 64.66226508 48.11367524 61.26473449 58.046875 57.671875 C73.02859057 52.36917823 87.52868042 49.79279584 103.375 49.875 C104.28531982 49.87693359 105.19563965 49.87886719 106.13354492 49.88085938 C112.7995369 49.92354069 119.37391313 50.23175804 126 51 C126 51.66 126 52.32 126 53 C125.25766113 53.12004395 124.51532227 53.24008789 123.75048828 53.36376953 C109.97938288 55.6113797 96.28928253 57.99645185 82.6875 61.125 C81.62869629 61.36621582 80.56989258 61.60743164 79.47900391 61.85595703 C73.7799031 63.19967733 68.44108922 64.84222614 63 67 C60.0490136 68.00333538 57.08827427 68.97121491 54.125 69.9375 C51.83257303 70.71692517 49.5597819 71.55474152 47.30029297 72.42504883 C43.276488 73.93801191 39.2192929 75.14563416 35.0703125 76.26171875 C34.35390594 76.45723831 33.63749939 76.65275787 32.89938354 76.85420227 C31.4024957 77.26181182 29.9051034 77.66757312 28.40722656 78.0715332 C26.10867341 78.6919065 23.81207636 79.31916175 21.515625 79.94726562 C20.05479727 80.34415425 18.59386353 80.74065294 17.1328125 81.13671875 C16.44639679 81.3241716 15.75998108 81.51162445 15.05276489 81.70475769 C10.23113254 83 10.23113254 83 8 83 C9.45336266 78.88213914 11.58657273 75.62014091 14 72 C14 71.34 14 70.68 14 70 C5.25265602 74.674268 -2.93545142 79.90487468 -9.34375 87.6171875 C-11.91007554 89.75982722 -14.76096366 90.39810854 -17.9375 91.375 C-24.04477197 93.3013 -29.9232993 95.5334297 -35.8046875 98.08203125 C-38 99 -38 99 -39 99 C-38.67877045 83.58098156 -33.23927549 70.35197784 -26 57 C-29.02428175 59.30321457 -32.0189238 61.64114219 -35 64 C-35.70382812 64.55171875 -36.40765625 65.1034375 -37.1328125 65.671875 C-48.90977542 75.37055035 -55.38519396 89.30114196 -58.45703125 104.02734375 C-62.23324733 111.30253473 -72.26614118 114.92736517 -79.25 118.6875 C-80.98483523 119.62805786 -82.71922444 120.56943895 -84.453125 121.51171875 C-85.24654297 121.94274902 -86.03996094 122.3737793 -86.85742188 122.81787109 C-89.2759129 124.15222997 -91.65009114 125.5483001 -94 127 C-96.16638997 124.83361003 -95.70084516 120.20475706 -96 117.1875 C-96.1640746 115.55572687 -96.3306585 113.9242037 -96.5 112.29296875 C-96.5721875 111.5661792 -96.644375 110.83938965 -96.71875 110.09057617 C-96.9994495 108.00409197 -97.45032359 106.03065352 -98 104 C-103.18780333 113.60809603 -108.04355815 123.05555489 -108 134.25 C-109.38850815 139.45690557 -112.10325286 140.70234458 -116.4921875 143.6015625 C-120.77194669 146.44228689 -124.67846697 149.71951745 -128.625 153 C-129.3564624 153.60553711 -130.0879248 154.21107422 -130.84155273 154.83496094 C-135.99187412 159.11710689 -141.0636597 163.47150548 -146 168 C-148.63437876 164.85988091 -149.92004727 161.88491259 -151.1875 158 C-151.53167969 156.96875 -151.87585938 155.9375 -152.23046875 154.875 C-153 152 -153 152 -153 148 C-153.66 148 -154.32 148 -155 148 C-155.1340625 148.70511719 -155.268125 149.41023437 -155.40625 150.13671875 C-155.79770518 152.02445986 -156.23446302 153.90344717 -156.71875 155.76953125 C-158.33001664 162.04541483 -158.9963811 167.38843556 -158.8125 173.875 C-158.87452201 181.03509679 -161.55069496 184.80160931 -166.5 189.8125 C-168.39158713 191.65782745 -170.30327914 193.47727198 -172.23339844 195.28222656 C-175.53574858 198.49330114 -178.28154711 202.11923573 -181.1328125 205.73046875 C-182.97206893 207.96605031 -184.91977908 209.98911977 -187 212 C-197.18914145 198.4494923 -202.09900583 180.93283059 -201 164 C-201.66 164 -202.32 164 -203 164 C-203.73222063 166.34726047 -204.44343765 168.69830558 -205.1328125 171.05859375 C-205.67993415 172.91437125 -206.25453842 174.7624687 -206.8671875 176.59765625 C-211.44314902 191.74190985 -210.30742252 207.62047443 -204 222 C-203.50371094 222.88558594 -203.00742187 223.77117187 -202.49609375 224.68359375 C-201.09626313 227.29521805 -200.22801386 229.03581977 -200 232 C-201.61554336 235.71663253 -203.46814736 238.61721951 -205.81640625 241.921875 C-207.89476721 244.85165753 -209.47871922 247.75330491 -211 251 C-213.94372839 249.59794755 -216.62213369 247.99656738 -219.328125 246.1796875 C-220.12734375 245.64472656 -220.9265625 245.10976563 -221.75 244.55859375 C-222.575 244.00300781 -223.4 243.44742188 -224.25 242.875 C-225.09046875 242.31167969 -225.9309375 241.74835938 -226.796875 241.16796875 C-228.86598953 239.78072151 -230.93363383 238.39133629 -233 237 C-229.76700846 245.66868061 -226.39682889 253.57162554 -221.22265625 261.31640625 C-219.29148586 265.55510931 -220.60427375 268.88687478 -222.12329102 273.15966797 C-222.57889404 274.25939941 -223.03449707 275.35913086 -223.50390625 276.4921875 C-223.99697266 277.69101562 -224.49003906 278.88984375 -224.99804688 280.125 C-225.51939522 281.37505674 -226.04088131 282.62505604 -226.5625 283.875 C-227.08846464 285.14820052 -227.6138609 286.421636 -228.13867188 287.6953125 C-229.42021362 290.79923011 -230.70748804 293.90063822 -232 297 C-235.65477147 295.86670225 -238.86077343 294.67917764 -242.0859375 292.6171875 C-242.78847656 292.17246094 -243.49101562 291.72773438 -244.21484375 291.26953125 C-244.92769531 290.80933594 -245.64054687 290.34914063 -246.375 289.875 C-247.11105469 289.40707031 -247.84710938 288.93914062 -248.60546875 288.45703125 C-250.40730078 287.31041087 -252.20416431 286.15598924 -254 285 C-250.38990827 293.5057746 -246.66349001 302.04140709 -240.5625 309.0625 C-238.36099872 311.95160929 -237.60512814 313.67236788 -237.875 317.3125 C-238.20194989 319.21720806 -238.5883201 321.1117922 -239 323 C-239.328151 324.62082543 -239.65484124 326.24194696 -239.98046875 327.86328125 C-240.94316649 332.58560875 -241.96117217 337.29386836 -243 342 C-248.81942725 340.4241029 -253.58525217 337.48379367 -258.6875 334.375 C-259.57147461 333.84100586 -260.45544922 333.30701172 -261.36621094 332.75683594 C-267.82807739 328.8133189 -274.02631905 324.65837506 -280 320 C-274.20208626 333.52306696 -266.25476417 351.04264464 -252.53515625 358.3046875 C-249.54370806 360.01013562 -247.90649019 361.09843641 -246 364 C-245.13448958 370.3030192 -246.14361734 376.74278068 -247 383 C-251.04483784 382.37296891 -254.28440774 381.06657059 -257.95703125 379.27734375 C-259.06884766 378.73916016 -260.18066406 378.20097656 -261.32617188 377.64648438 C-262.47666016 377.08251953 -263.62714844 376.51855469 -264.8125 375.9375 C-265.98232422 375.36966797 -267.15214844 374.80183594 -268.35742188 374.21679688 C-271.24081007 372.81629404 -274.12151151 371.41053866 -277 370 C-268.93193434 382.37439571 -259.69252452 391.15030081 -248 400 C-246.45049732 401.54950268 -246.78344807 403.09990594 -246.68359375 405.25390625 C-246.64169922 406.10791016 -246.59980469 406.96191406 -246.55664062 407.84179688 C-246.51732422 408.73962891 -246.47800781 409.63746094 -246.4375 410.5625 C-246.37272461 411.91504883 -246.37272461 411.91504883 -246.30664062 413.29492188 C-246.20021858 415.52978485 -246.09820012 417.76476308 -246 420 C-252.80948429 419.28201886 -258.92551555 417.73026571 -265.51171875 415.83984375 C-268.52786507 415.1136719 -270.9261618 414.81780309 -274 415 C-266.22275105 423.5048502 -256.87152252 432.62076295 -245.88745117 436.8046875 C-244 438 -244 438 -243.08691406 440.29077148 C-242.89838867 441.22477783 -242.70986328 442.15878418 -242.515625 443.12109375 C-242.30292969 444.13880859 -242.09023438 445.15652344 -241.87109375 446.20507812 C-241.66613281 447.27177734 -241.46117187 448.33847656 -241.25 449.4375 C-241.02957031 450.50033203 -240.80914062 451.56316406 -240.58203125 452.65820312 C-239 460.4258783 -239 460.4258783 -239 464 C-246.68483539 464.67453101 -254.28410183 465.1567564 -262 465 C-262 465.66 -262 466.32 -262 467 C-260.69482422 467.40412109 -260.69482422 467.40412109 -259.36328125 467.81640625 C-256.11449639 468.95970685 -253.23188277 470.33583677 -250.1875 471.9375 C-246.44499963 473.87857295 -243.0216559 475.35396103 -238.9375 476.375 C-236.91601563 477.0012207 -236.91601563 477.0012207 -235 478 C-233.84177435 480.67912803 -232.89638194 483.23742938 -232 486 C-231.47307357 487.40675597 -230.93798816 488.81048456 -230.39453125 490.2109375 C-229.8671875 491.59895833 -229.33984375 492.98697917 -228.8125 494.375 C-228.53986328 495.08527344 -228.26722656 495.79554688 -227.98632812 496.52734375 C-226 501.77443609 -226 501.77443609 -226 504 C-227.64935547 503.96519531 -227.64935547 503.96519531 -229.33203125 503.9296875 C-240.63197342 503.76196799 -250.58758748 504.22764426 -261 509 C-261.99 509 -262.98 509 -264 509 C-264 509.66 -264 510.32 -264 511 C-263.39559082 511.03955811 -262.79118164 511.07911621 -262.16845703 511.11987305 C-254.79396126 511.71417816 -248.17281932 513.48824302 -241.12792969 515.65893555 C-236.88771388 516.94345397 -232.7984552 518.11601898 -228.3984375 518.6875 C-218.63176458 520.0703818 -218.63176458 520.0703818 -215.45117188 523.83154297 C-212.32613015 528.61158129 -210.08401632 533.69733626 -208 539 C-210.5872505 541.5872505 -212.88277471 542.06556087 -216.375 543.125 C-217.51710938 543.47820313 -218.65921875 543.83140625 -219.8359375 544.1953125 C-223 545 -223 545 -227 545 C-227 545.66 -227 546.32 -227 547 C-224.18880696 547.6520027 -221.37624969 548.29670121 -218.5625 548.9375 C-217.77939453 549.11990234 -216.99628906 549.30230469 -216.18945312 549.49023438 C-212.13757035 550.40732718 -208.32429777 551.06118263 -204.171875 551.2734375 C-200.62856859 551.62803942 -200.17872148 551.81959511 -197.51171875 554.51171875 C-196.90972656 555.55972656 -196.30773437 556.60773437 -195.6875 557.6875 C-195.07261719 558.72261719 -194.45773437 559.75773438 -193.82421875 560.82421875 C-193.22222656 561.87222656 -192.62023437 562.92023437 -192 564 C-190.02 566.97 -190.02 566.97 -188 570 C-193.28 572.97 -198.56 575.94 -204 579 C-201.48547815 580.25726092 -200.28967645 579.89876346 -197.51953125 579.53515625 C-183.00153499 578.16136338 -183.00153499 578.16136338 -177.57519531 581.48535156 C-173.28354247 585.19968629 -169.82516328 589.53311672 -166.46435547 594.08740234 C-164.509328 596.64086769 -162.33561779 598.79486365 -160 601 C-161.14544077 604.43632231 -162.2711508 605.33471585 -165 607.625 C-165.721875 608.23601563 -166.44375 608.84703125 -167.1875 609.4765625 C-167.785625 609.97929688 -168.38375 610.48203125 -169 611 C-169.33 611.33 -169.66 611.66 -170 612 C-164.85076076 612.16610449 -160.9630595 612.02959936 -156.0625 610.4375 C-152.72371693 609.71435344 -151.54791629 609.64770341 -148.63671875 611.51953125 C-146.98655349 613.06166605 -145.3777012 614.64877432 -143.8046875 616.26953125 C-140.02893004 619.94537312 -135.82631197 622.78277019 -131.46972656 625.72363281 C-129.94778506 626.7706542 -128.46916714 627.88013052 -127 629 C-127 629.66 -127 630.32 -127 631 C-128.8359375 632.41015625 -128.8359375 632.41015625 -131.375 634.0625 C-139.8949914 639.8875154 -147.01901992 645.86820319 -152 655 C-148.78955186 655 -145.84759411 653.77916521 -142.8125 652.8125 C-142.102146 652.58763916 -141.39179199 652.36277832 -140.65991211 652.13110352 C-138.43853696 651.42505076 -136.21908719 650.71320795 -134 650 C-133.31486328 649.78118164 -132.62972656 649.56236328 -131.92382812 649.33691406 C-129.96794398 648.71007705 -128.01482149 648.07533732 -126.0625 647.4375 C-124.34740234 646.87869141 -124.34740234 646.87869141 -122.59765625 646.30859375 C-119.17211794 645.17369897 -119.17211794 645.17369897 -116.86572266 643.79711914 C-111.18934105 640.69650758 -111.18934105 640.69650758 -107.77172852 641.56860352 C-105.4600196 642.75185886 -103.3800313 644.07764093 -101.25 645.5625 C-100.52167969 646.03236328 -99.79335938 646.50222656 -99.04296875 646.98632812 C-97.64010971 647.89398556 -96.24566689 648.81482717 -94.86132812 649.75048828 C-92.62342543 651.25279494 -90.32654588 652.63979503 -88 654 C-89.58966812 658.03531138 -91.28717809 662.0159293 -93 666 C-91.51113281 665.13761719 -91.51113281 665.13761719 -89.9921875 664.2578125 C-78.5510496 658.15351232 -78.5510496 658.15351232 -72.8203125 659.87109375 C-69.36335192 661.25681713 -66.16033085 663.02973123 -63 665 C-66.76887092 668.05186621 -70.89435827 670.03527798 -75.23217773 672.15942383 C-76.17879272 672.62384888 -76.17879272 672.62384888 -77.14453125 673.09765625 C-77.78471191 673.41105957 -78.42489258 673.72446289 -79.08447266 674.04736328 C-80.92822917 674.96430668 -82.75277461 675.91071427 -84.57421875 676.87109375 C-85.72535156 677.47050781 -86.87648438 678.06992187 -88.0625 678.6875 C-89.08472656 679.22761719 -90.10695313 679.76773438 -91.16015625 680.32421875 C-101.99525618 685.32036153 -111.9701751 686.55427498 -123.8125 686.25 C-125.19854137 686.22986774 -126.58461158 686.21162906 -127.97070312 686.1953125 C-131.31456427 686.14870816 -134.65688632 686.08329751 -138 686 C-135.38256937 683.96083466 -132.77838942 682.24737223 -129.84765625 680.6953125 C-129.07099609 680.27636719 -128.29433594 679.85742188 -127.49414062 679.42578125 C-125.87932726 678.56195338 -124.26214586 677.70253704 -122.64257812 676.84765625 C-112.76364596 671.49486285 -105.94078494 663.50875984 -102 653 C-102.55042969 653.27972656 -103.10085938 653.55945313 -103.66796875 653.84765625 C-114.29504937 658.97172148 -125.58961469 662.29487956 -136.79785156 665.89990234 C-159.45672682 673.19878978 -178.09457458 681.93357053 -195 699 C-195.66 698.67 -196.32 698.34 -197 698 C-187.30133556 669.84356479 -172.61560744 646.55768106 -148 629 C-147.01 628.67 -146.02 628.34 -145 628 C-143.78130071 625.49552484 -143.78130071 625.49552484 -143 623 C-146.93305157 623.26149293 -150.86571601 623.52814584 -154.7980957 623.79956055 C-156.79294644 623.93616104 -158.78807485 624.06868672 -160.78320312 624.20117188 C-162.66362305 624.33168945 -162.66362305 624.33168945 -164.58203125 624.46484375 C-165.73936768 624.543396 -166.8967041 624.62194824 -168.08911133 624.70288086 C-171.06167871 624.89930397 -171.06167871 624.89930397 -174 626 C-176.4410776 626.0845387 -178.85259213 626.11605786 -181.29296875 626.09765625 C-181.99899734 626.0962413 -182.70502594 626.09482635 -183.43244934 626.09336853 C-185.68417626 626.08777764 -187.93580321 626.07522688 -190.1875 626.0625 C-191.71549335 626.05748382 -193.24348827 626.05292112 -194.77148438 626.04882812 C-198.51436135 626.0378112 -202.25716373 626.02055287 -206 626 C-203.2341931 623.19358878 -200.42879901 620.72432953 -197.3125 618.3125 C-191.82935843 613.87234732 -186.81241002 609.03739745 -181.8125 604.0625 C-180.66164917 602.92518433 -180.66164917 602.92518433 -179.48754883 601.76489258 C-178.77622803 601.04970459 -178.06490723 600.3345166 -177.33203125 599.59765625 C-176.68983643 598.95320557 -176.0476416 598.30875488 -175.38598633 597.64477539 C-173.78520537 596.1035777 -173.78520537 596.1035777 -174 594 C-179.66807294 593.22027787 -185.2537971 592.78312831 -190.96875 592.5703125 C-192.69272944 592.49658561 -194.41668719 592.42235009 -196.140625 592.34765625 C-198.8077879 592.23514445 -201.47491755 592.12594082 -204.14257812 592.02587891 C-218.84915485 591.46466367 -233.68198385 590.89682979 -247 584 C-244.9920005 581.9920005 -243.78588548 581.35582416 -241.2109375 580.30078125 C-240.44144775 579.98206055 -239.67195801 579.66333984 -238.87915039 579.33496094 C-238.05278076 578.99754883 -237.22641113 578.66013672 -236.375 578.3125 C-234.65208533 577.59567288 -232.92943354 576.87821365 -231.20703125 576.16015625 C-228.67270812 575.10837692 -226.13813653 574.05720749 -223.60302734 573.00732422 C-221.41862119 572.09789607 -219.24008679 571.17561506 -217.0625 570.25 C-216.40749512 569.98098877 -215.75249023 569.71197754 -215.07763672 569.43481445 C-211.31245519 567.82279346 -208.68773934 566.09864686 -206 563 C-206.89847656 562.89042969 -207.79695312 562.78085937 -208.72265625 562.66796875 C-232.9899221 559.17859778 -255.54497031 551.63668646 -276 538 C-276 537.67 -276 537.34 -276 537 C-274.68563965 537.02356567 -274.68563965 537.02356567 -273.34472656 537.04760742 C-270.0346055 537.09931443 -266.72492518 537.13662632 -263.41455078 537.16479492 C-261.99293159 537.17970701 -260.57135693 537.20004409 -259.14990234 537.22631836 C-250.89324492 537.37490323 -243.34612258 537.02419038 -235.34667969 534.6496582 C-233 534 -233 534 -230 534 C-230 533.34 -230 532.68 -230 532 C-230.969375 531.88269531 -231.93875 531.76539063 -232.9375 531.64453125 C-237.38918559 531.00650101 -241.66509467 529.86516034 -246 528.6875 C-247.24849731 528.35528442 -247.24849731 528.35528442 -248.5222168 528.01635742 C-252.382912 526.98701106 -256.23704784 525.93812598 -260.08203125 524.8515625 C-282.29712053 518.66390412 -304.45243367 518.25443806 -327 523 C-328.66666667 523.33333333 -330.33333333 523.66666667 -332 524 C-311.09958561 501.92320206 -277.92637729 494.94321883 -249 491 C-248.01 491 -247.02 491 -246 491 C-249.65067115 486.98008157 -253.34558202 484.43027484 -258.25 482.0625 C-258.94383789 481.72041504 -259.63767578 481.37833008 -260.35253906 481.02587891 C-266.06059899 478.28698238 -271.90098017 476.17086151 -277.89428711 474.15307617 C-286.01084283 471.3897326 -294.09233225 468.41718688 -300 462 C-299.10023438 461.78085937 -298.20046875 461.56171875 -297.2734375 461.3359375 C-287.98452755 459.05240357 -278.75212207 456.59765476 -269.54052734 454.01904297 C-265.04229139 452.77246557 -260.63447138 451.63897197 -256 451 C-262.09071078 438.18182231 -276.09339549 430.21595631 -287.5 422.5625 C-298.76079712 414.98590891 -309.57918335 406.76344986 -318 396 C-314.67727126 394.33863563 -311.15819923 395.71915168 -307.625 396.375 C-301.30136902 397.4976827 -295.0848188 398.31988105 -288.671875 398.75390625 C-285.15949552 399.07741489 -281.77936783 399.77680374 -278.3359375 400.5234375 C-274.90819131 401.22274358 -271.47571064 401.61380993 -268 402 C-271.66814632 396.90535234 -275.57858957 392.11373385 -279.6875 387.375 C-312.86330793 348.92355988 -312.86330793 348.92355988 -316 330 C-315.113125 330.78375 -314.22625 331.5675 -313.3125 332.375 C-311.88046255 333.58980223 -310.44204781 334.79709776 -309 336 C-307.63294922 337.14275391 -307.63294922 337.14275391 -306.23828125 338.30859375 C-296.32619123 346.28055072 -285.27129909 353.3128491 -273 357 C-273.57105469 356.30519531 -274.14210938 355.61039062 -274.73046875 354.89453125 C-280.22280484 348.00509854 -285.00306276 340.91637867 -289.5625 333.375 C-303.27294353 310.82880461 -321.25573799 297.54614145 -344 285 C-344 284.67 -344 284.34 -344 284 C-332.65186577 283.45673825 -322.83047178 284.55804526 -312 288 C-311.02595215 288.30550781 -311.02595215 288.30550781 -310.03222656 288.6171875 C-294.86381364 293.50973681 -281.43148087 301.75949289 -267.9921875 310.171875 C-263.42557877 312.96191793 -258.72915512 315.4980021 -254 318 C-257.48071041 305.70301651 -263.39943693 295.08370829 -270.125 284.3125 C-275.5849854 275.55287776 -280.28958833 267.26247002 -282 257 C-278.18711476 258.4508589 -274.62051171 260.18569062 -271 262.0625 C-262.30461781 266.49567436 -253.31239617 270.23742481 -244.32080078 274.02148438 C-241.20792144 275.33396285 -238.10356956 276.66567622 -235 278 C-236.14575326 259.35286577 -244.58089019 242.68338884 -251.96484375 225.79296875 C-255.15934141 217.98949436 -256.3818329 209.40032388 -256 201 C-252.15347805 204.19179481 -248.59798915 207.40936736 -245.1875 211.0625 C-238.17149799 218.21295501 -229.00454735 225.49772633 -220 230 C-220.52442324 228.2053549 -221.04918155 226.41080718 -221.57543945 224.61669922 C-222.02951439 223.0656463 -222.48112959 221.5138714 -222.93041992 219.96142578 C-223.95534635 216.4421132 -225.01218815 212.96514891 -226.22265625 209.50390625 C-232.67520182 190.97885608 -226.86476297 174.97463517 -220.4375 157.4375 C-213.77725512 139.20592058 -210.35148272 122.21663839 -215 103 C-202.1643754 115.03339806 -193.95588785 128.8328124 -190.43115234 145.92919922 C-189.70322859 149.4253766 -188.87940292 152.89874037 -188.0625 156.375 C-187.82273437 157.41321899 -187.82273437 157.41321899 -187.578125 158.47241211 C-186.10526386 164.7704881 -184.37846502 170.99001344 -182.57446289 177.20068359 C-181.70599072 180.22890444 -181 182.83206732 -181 186 C-180.34 186 -179.68 186 -179 186 C-178.72027344 185.13246094 -178.44054687 184.26492188 -178.15234375 183.37109375 C-177.07039023 180.20592124 -175.83927766 177.15301788 -174.5625 174.0625 C-170.16433416 162.56758868 -168.67059566 151.34719064 -168.37792969 139.14038086 C-168.13362997 130.63548187 -166.38726043 123.290699 -163 115.5 C-162.484375 114.2934375 -161.96875 113.086875 -161.4375 111.84375 C-160 109 -160 109 -158 108 C-157.6596875 108.84820312 -157.319375 109.69640625 -156.96875 110.5703125 C-154.27307734 117.09441388 -151.40277772 123.29230495 -147.8125 129.375 C-141 140.93169183 -141 140.93169183 -141 147 C-126.38436616 135.26084728 -117.33941306 118.81878372 -112.125 100.9375 C-111.41784913 98.62463813 -110.70946829 96.31215205 -110 94 C-109.64164063 92.81148438 -109.28328125 91.62296875 -108.9140625 90.3984375 C-106.2411718 82.16449904 -102.76463996 76.40642891 -97 70 C-96.30003906 69.08347656 -95.60007812 68.16695313 -94.87890625 67.22265625 C-94.25886719 66.48917969 -93.63882813 65.75570312 -93 65 C-92.34 65 -91.68 65 -91 65 C-90.90203125 65.92296875 -90.8040625 66.8459375 -90.703125 67.796875 C-89.68540218 76.67562926 -88.23940902 85.35167164 -86.32128906 94.08300781 C-85.306288 98.83950615 -84.80411313 103.13547614 -85 108 C-76.60770942 101.66504279 -74.0394942 95.65441502 -71.1875 85.75 C-65.1261539 65.45043307 -52.03737471 55.43467283 -35.81201172 43.40625 C-28.88220208 38.26017303 -22.17710396 33.05467488 -16 27 C-15.29488281 26.319375 -14.58976562 25.63875 -13.86328125 24.9375 C-7.45650692 18.29886145 -1.78674217 9.15988075 0 0 Z " fill="#F8F8F8" transform="translate(726,93)"/>
<path d="M0 0 C0.99 0.495 0.99 0.495 2 1 C-17.26205211 24.77388413 -43.67365411 42.42052172 -72 54 C-64.08980116 62.87301541 -51.19855828 63.96223595 -40 65 C-43.04834696 68.2661274 -46.60977519 70.08062217 -50.5625 72.0625 C-51.56120117 72.5894043 -51.56120117 72.5894043 -52.58007812 73.12695312 C-61.50110802 77.62573751 -70.61530984 78.2999624 -80.4765625 78.4140625 C-81.52782318 78.43342865 -82.57908386 78.4527948 -83.66220093 78.4727478 C-86.98305431 78.53199302 -90.30394341 78.57870678 -93.625 78.625 C-95.89194127 78.66323054 -98.15886879 78.70228513 -100.42578125 78.7421875 C-105.95039786 78.83764847 -111.47509889 78.92285295 -117 79 C-115.30841947 86.3262936 -113.39280706 93.33100748 -110.4375 100.25 C-110.10105469 101.04849365 -109.76460937 101.8469873 -109.41796875 102.66967773 C-106.26168951 109.8920966 -102.25979214 116.42055397 -97.90625 122.97265625 C-96 126 -96 126 -96 128 C-116.17520573 124.33178078 -129.3319378 116.26974452 -143.06274414 101.16894531 C-148.19337249 95.61091878 -153.20288472 91.44175965 -160 88 C-160.03738281 88.65484375 -160.07476563 89.3096875 -160.11328125 89.984375 C-161.2068146 105.16519096 -165.58364992 117.636709 -176 129 C-177.67669721 126.48495419 -178.82578123 124.23053319 -180.0625 121.5 C-182.63931646 116.26250619 -186.01559071 112.11340644 -189.77734375 107.6796875 C-197.82273489 97.97997165 -197.82273489 97.97997165 -199 92 C-197.6293189 91.48827906 -196.25315925 90.99122508 -194.875 90.5 C-194.10929688 90.2215625 -193.34359375 89.943125 -192.5546875 89.65625 C-189.46794628 88.86332565 -187.17378839 88.57822023 -184 89 C-181.6640625 91.08203125 -181.6640625 91.08203125 -179.625 93.8125 C-178.93664062 94.70582031 -178.24828125 95.59914063 -177.5390625 96.51953125 C-176 99 -176 99 -176 102 C-175.34 102 -174.68 102 -174 102 C-173.67 96.72 -173.34 91.44 -173 86 C-171.453125 85.5875 -169.90625 85.175 -168.3125 84.75 C-162.75579397 83.25285641 -157.30313443 81.50141568 -151.84765625 79.671875 C-148.90458129 78.97748694 -147.73304624 78.81679096 -145 80 C-138.41012358 84.4263659 -132.95365008 89.83254162 -128 96 C-128.39151634 89.41172506 -129.47734296 84.09642118 -132 78 C-132.35412344 76.67203709 -132.69311565 75.3396682 -133 74 C-131.25048432 73.04078278 -129.50036756 72.08266183 -127.75 71.125 C-126.77546875 70.59132813 -125.8009375 70.05765625 -124.796875 69.5078125 C-123.87390625 69.01023437 -122.9509375 68.51265625 -122 68 C-121.1656543 67.46439453 -121.1656543 67.46439453 -120.31445312 66.91796875 C-116.97051211 65.59167991 -113.71248042 65.75414124 -110.171875 65.8046875 C-109.42286926 65.8075174 -108.67386353 65.81034729 -107.90216064 65.81326294 C-105.51794224 65.8244274 -103.13410421 65.84952469 -100.75 65.875 C-99.13021377 65.88503465 -97.51042164 65.89415965 -95.890625 65.90234375 C-91.92693754 65.92435445 -87.96353319 65.95885825 -84 66 C-86.90222025 63.01146836 -89.63703259 60.84171798 -93.25 58.75 C-94.14203125 58.22921875 -95.0340625 57.7084375 -95.953125 57.171875 C-96.62859375 56.78515625 -97.3040625 56.3984375 -98 56 C-94.83753873 52.40432485 -91.38263264 50.48991391 -87.09375 48.53125 C-85.70633802 47.87770367 -84.31905461 47.22388433 -82.93188477 46.56982422 C-82.20848907 46.23239197 -81.48509338 45.89495972 -80.73977661 45.54730225 C-69.59714577 40.33709412 -58.71732863 34.97765255 -48.27880859 28.44604492 C-41.55376703 24.25477878 -34.62648016 20.52053706 -27.625 16.8125 C-12.97064691 9.66949236 -12.97064691 9.66949236 0 0 Z " fill="#F8F8F8" transform="translate(1045,683)"/>
<path d="M0 0 C0.74056641 0.00902344 1.48113281 0.01804687 2.24414062 0.02734375 C4.05873467 0.05075787 5.87316071 0.08662385 7.6875 0.125 C5.04619766 17.14672621 -5.62118057 29.18953827 -16.90234375 41.4296875 C-20.24897065 45.17226864 -23.31254448 49.10188084 -26.3125 53.125 C-32.24901713 47.18848287 -31.98877052 34.69449523 -32.8828125 26.59375 C-33.20436447 23.99794864 -33.58509128 21.62626506 -34.3125 19.125 C-39.28218638 23.00377961 -43.27991372 27.29101179 -47.3125 32.125 C-48.27349609 33.23681641 -48.27349609 33.23681641 -49.25390625 34.37109375 C-53.74279384 39.72086389 -57.30721779 45.26435968 -60.61108398 51.39111328 C-62.22781884 54.36751837 -63.72592471 56.9045246 -66.3125 59.125 C-66.96293719 57.39755984 -67.60764844 55.6679631 -68.25 53.9375 C-68.60964844 52.97457031 -68.96929688 52.01164063 -69.33984375 51.01953125 C-71.26115733 45.30188721 -71.46661663 40.10361448 -71.4375 34.125 C-71.44330078 32.93390625 -71.44330078 32.93390625 -71.44921875 31.71875 C-71.44251772 27.69813106 -71.19754317 24.06239679 -70.3125 20.125 C-70.24983488 18.68871543 -70.22563653 17.2499445 -70.25 15.8125 C-70.270625 14.595625 -70.29125 13.37875 -70.3125 12.125 C-78.86921234 27.72417503 -82.52093567 42.60211814 -82.375 60.44921875 C-82.37121338 61.513647 -82.36742676 62.57807526 -82.36352539 63.67475891 C-82.35137519 67.05404843 -82.33274225 70.43324987 -82.3125 73.8125 C-82.2858957 78.27473729 -82.26591716 82.73693198 -82.25 87.19921875 C-82.24170166 88.22013107 -82.23340332 89.2410434 -82.22485352 90.29289246 C-82.22155029 91.24771011 -82.21824707 92.20252777 -82.21484375 93.1862793 C-82.20698853 94.43914986 -82.20698853 94.43914986 -82.19897461 95.71733093 C-82.31938889 98.27110101 -82.75105896 100.633987 -83.3125 103.125 C-93.81839352 93.44871626 -99.36877578 73.11442131 -100.6796875 59.23828125 C-101.00446678 42.54823499 -94.37336475 29.24128959 -87.5 14.375 C-86.99791016 13.28445313 -86.49582031 12.19390625 -85.97851562 11.0703125 C-84.75842957 8.42098279 -83.53640553 5.77256682 -82.3125 3.125 C-75.8684723 3.07720746 -69.48448184 3.0665668 -63.0625 3.625 C-61.96421875 3.7178125 -60.8659375 3.810625 -59.734375 3.90625 C-58.53554688 4.01453125 -58.53554688 4.01453125 -57.3125 4.125 C-57.17439779 11.16821257 -57.7136085 18.10941385 -58.3125 25.125 C-52.04657412 19.27887561 -47.19880418 13.63572738 -43.875 5.6875 C-42.3125 3.125 -42.3125 3.125 -39.8125 2.25 C-34.97610924 2.07727176 -30.15116571 2.04751247 -25.3125 2.125 C-22.7658129 8.73896893 -20.68124156 15.16723041 -19.3125 22.125 C-16.31800264 16.23776005 -14.75547346 10.99759338 -14.09765625 4.41015625 C-13.3125 2.125 -13.3125 2.125 -11.265625 0.81640625 C-7.48546028 -0.06863232 -3.85464842 -0.08956288 0 0 Z " fill="#F8F7F8" transform="translate(834.3125,775.875)"/>
<path d="M0 0 C4.29 1.65 8.58 3.3 13 5 C9.5 12 9.5 12 6 19 C8.08559381 17.89993968 10.16843689 16.79514118 12.25 15.6875 C13.99023438 14.76517578 13.99023438 14.76517578 15.765625 13.82421875 C18.92902221 12.2069803 18.92902221 12.2069803 20.921875 10.20703125 C26.00329882 7.25560275 34.53997826 10.7235172 40 12.0625 C40.77472656 12.24876953 41.54945313 12.43503906 42.34765625 12.62695312 C44.23270759 13.08076178 46.1164927 13.53982492 48 14 C47.69112547 16.43800966 47.37805338 18.87535367 47.0625 21.3125 C46.97548828 22.00279297 46.88847656 22.69308594 46.79882812 23.40429688 C46.40789865 26.40142288 45.9584996 29.12450119 45 32 C45.66 32 46.32 32 47 32 C47 31.34 47 30.68 47 30 C48.13119683 28.83452448 49.27479326 27.67921844 50.46875 26.578125 C52.09395813 24.99166693 52.09395813 24.99166693 53.46875 22.859375 C55.18476589 20.45358802 56.5783837 18.70988678 59 17 C63.15493559 16.61470522 66.93049685 17.14466929 71 18 C62.34707639 36.06192793 49.99985831 48.50365368 32 57 C31.34 57 30.68 57 30 57 C30.20496094 56.1234375 30.40992188 55.246875 30.62109375 54.34375 C33.25458018 41.94494308 33.71326621 29.64797003 34 17 C27.19924203 20.06407777 21.15521404 23.43788079 15.1875 27.875 C3.26951785 36.64281848 -9.70217318 43.05861521 -24 47 C-24.66 46.67 -25.32 46.34 -26 46 C-25.53851562 45.48695313 -25.07703125 44.97390625 -24.6015625 44.4453125 C-13.5124477 31.42765599 -6.6113912 15.62356692 0 0 Z " fill="#F8F8F8" transform="translate(665,759)"/>
<path d="M0 0 C0.66 0.33 1.32 0.66 2 1 C-3.55069264 7.1519282 -9.14577735 13.26083229 -14.9375 19.1875 C-15.81277344 20.08855469 -16.68804688 20.98960937 -17.58984375 21.91796875 C-19.87374155 23.89093071 -21.05470295 24.65148457 -24 25 C-19.89766687 18.46665465 -14.73410871 13.73387906 -8.9296875 8.70703125 C-6.50876216 6.56544345 -4.25176037 4.31798862 -2 2 C-1.34 1.34 -0.68 0.68 0 0 Z " fill="#C9C9C9" transform="translate(710,233)"/>
<path d="M0 0 C2.64 0 5.28 0 8 0 C7.34 1.32 6.68 2.64 6 4 C4.02 3.34 2.04 2.68 0 2 C0 1.34 0 0.68 0 0 Z " fill="#393939" transform="translate(464,558)"/>
<path d="M0 0 C0.66 0 1.32 0 2 0 C2 1.98 2 3.96 2 6 C0.68 6.33 -0.64 6.66 -2 7 C-1.34 4.69 -0.68 2.38 0 0 Z " fill="#424243" transform="translate(523,257)"/>
</svg>
