<?xml version="1.0" encoding="UTF-8"?>
<svg version="1.1" xmlns="http://www.w3.org/2000/svg" width="768" height="529">
<path d="M0 0 C253.44 0 506.88 0 768 0 C768 174.57 768 349.14 768 529 C514.56 529 261.12 529 0 529 C0 354.43 0 179.86 0 0 Z " fill="#FDFDFD" transform="translate(0,0)"/>
<path d="M0 0 C12.87391279 10.11870751 21.195776 24.37109868 23.23876953 40.73632812 C23.56295623 48.78378623 23.269238 56.75019753 22.23876953 64.73632812 C22.89876953 64.73632812 23.55876953 64.73632812 24.23876953 64.73632812 C24.50044922 64.00414063 24.76212891 63.27195312 25.03173828 62.51757812 C27.81586804 56.10236651 33.02372923 50.35536382 38.23876953 45.73632812 C38.89876953 45.73632812 39.55876953 45.73632812 40.23876953 45.73632812 C40.23876953 48.04632813 40.23876953 50.35632813 40.23876953 52.73632812 C41.38152344 51.14304688 41.38152344 51.14304688 42.54736328 49.51757812 C51.9718656 36.54239226 61.13951219 28.27732494 75.23876953 20.73632812 C75.23876953 24.43736639 73.87791193 26.45804333 72.23876953 29.73632812 C72.23876953 30.72632813 72.23876953 31.71632812 72.23876953 32.73632812 C73.72376953 31.49882813 73.72376953 31.49882813 75.23876953 30.23632812 C87.62077014 20.96084368 101.85081998 15.58471318 117.23876953 14.73632812 C115.91876953 16.38632813 114.59876953 18.03632812 113.23876953 19.73632812 C113.93373535 19.57624268 114.62870117 19.41615723 115.34472656 19.2512207 C141.78196603 14.54764908 165.791098 21.51865108 187.37548828 36.56054688 C202.05900652 47.71841817 212.74676437 61.45188803 221.23876953 77.73632812 C221.70927734 78.5896875 222.17978516 79.44304687 222.66455078 80.32226562 C235.20988064 104.94684497 233.66459711 135.03296845 225.49121094 160.75830078 C215.28554691 190.28786429 192.91008337 213.13243602 165.23876953 226.73632812 C160.97023764 228.65525333 156.6881392 230.28914794 152.23876953 231.73632812 C151.29001953 232.05472656 150.34126953 232.373125 149.36376953 232.70117188 C140.69110703 235.25819329 132.1859303 235.02255246 123.23876953 234.73632812 C125.30225031 243.06708299 127.37669041 251.02743503 131.23876953 258.73632812 C131.53396484 259.39761719 131.82916016 260.05890625 132.13330078 260.74023438 C138.12330614 273.76530986 148.34746232 281.89875505 161.23876953 287.73632812 C160.90876953 288.39632813 160.57876953 289.05632812 160.23876953 289.73632812 C146.51617431 294.31052653 135.20255965 294.74080286 121.23876953 290.73632812 C119.90688249 290.39726204 118.5741205 290.06148451 117.23876953 289.73632812 C117.23876953 290.39632813 117.23876953 291.05632812 117.23876953 291.73632812 C117.82658203 292.00960938 118.41439453 292.28289062 119.02001953 292.56445312 C121.17358509 293.70189972 122.85645393 294.95075487 124.73876953 296.48632812 C129.82428059 300.3864945 135.4708261 303.00067495 141.23876953 305.73632812 C142.57386651 306.39945577 143.90798067 307.06459661 145.23876953 307.73632812 C145.23876953 308.06632812 145.23876953 308.39632813 145.23876953 308.73632812 C138.18423952 309.94076008 131.40439743 311.01733314 124.23876953 310.73632812 C126.43825085 314.0355501 126.74201098 314.16442714 130.36376953 314.92382812 C131.64251953 315.19195312 132.92126953 315.46007812 134.23876953 315.73632812 C129.82231604 320.15278162 121.22568659 321.93293711 115.05126953 322.17382812 C104.67232664 320.98280189 97.45276216 317.37467326 90.23876953 309.73632812 C91.65477643 315.872358 95.30510703 320.00331175 99.23876953 324.73632812 C95.30762448 326.04670981 94.26744927 325.11622696 90.61376953 323.29882812 C84.66888821 320.22513645 79.96571819 316.43940331 75.23876953 311.73632812 C77.12019604 318.20373175 79.95798295 322.08101537 84.59423828 326.95117188 C86.23876953 328.73632812 86.23876953 328.73632812 86.23876953 329.73632812 C78.16466787 330.53050206 72.73991718 328.6169551 66.23876953 323.73632812 C63.27265187 320.59243054 60.69129916 317.29214472 58.23876953 313.73632812 C60.94258364 322.95387622 64.69827676 328.76324115 72.23876953 334.73632812 C69.45971112 336.18151745 66.68306658 337.36915929 63.73876953 338.43554688 C62.86212646 338.75394531 61.9854834 339.07234375 61.08227539 339.40039062 C60.14391846 339.738125 59.20556152 340.07585937 58.23876953 340.42382812 C57.25980713 340.77832031 56.28084473 341.1328125 55.2722168 341.49804688 C49.73231975 343.49810641 44.18104753 345.46185309 38.6159668 347.390625 C-2.29477635 361.57203341 -43.27417902 378.22750197 -81.35498047 398.90820312 C-84.44152371 400.56474238 -87.55254589 402.13456578 -90.69873047 403.67382812 C-113.72246574 415.10905217 -137.6916888 428.60475925 -157.93115234 444.43334961 C-159.76123047 445.73632812 -159.76123047 445.73632812 -161.76123047 445.73632812 C-161.54466797 444.90617187 -161.32810547 444.07601563 -161.10498047 443.22070312 C-156.72474378 423.83409999 -156.22523142 400.67396641 -162.76123047 381.73632812 C-163.10541016 380.61097656 -163.44958984 379.485625 -163.80419922 378.32617188 C-170.90647379 355.66191684 -184.24641077 336.65878178 -205.47998047 325.27929688 C-215.51257117 320.37935889 -226.14227307 317.11282827 -236.76123047 313.73632812 C-236.43123047 314.72632813 -236.10123047 315.71632813 -235.76123047 316.73632812 C-240.35243738 316.10547527 -244.46494301 314.92650752 -248.82373047 313.36132812 C-250.60457031 312.73097656 -250.60457031 312.73097656 -252.42138672 312.08789062 C-255.43303588 310.86914137 -258.03905512 309.49622221 -260.76123047 307.73632812 C-260.43123047 309.05632812 -260.10123047 310.37632812 -259.76123047 311.73632812 C-271.84017244 308.30054019 -282.19474003 298.01417226 -288.76123047 287.54882812 C-291.21904569 284.09252547 -294.12502076 282.05015527 -297.50732422 279.53710938 C-301.6927586 276.19311414 -304.80489404 272.17083278 -307.76123047 267.73632812 C-312.66908982 268.37167656 -317.39296934 269.28705156 -322.21044922 270.45117188 C-322.9251387 270.62254166 -323.63982819 270.79391144 -324.37617493 270.97047424 C-325.92433703 271.34171714 -327.4721946 271.71423184 -329.01977539 272.08789062 C-333.22715503 273.10283797 -337.43742695 274.10560342 -341.64794922 275.10742188 C-342.53594208 275.31873749 -343.42393494 275.5300531 -344.33883667 275.74777222 C-355.13142001 278.30889686 -365.94514117 280.77671923 -376.76123047 283.23632812 C-377.72128998 283.45537811 -378.68134949 283.6744281 -379.67050171 283.90011597 C-382.40863463 284.52457355 -385.14732208 285.14653166 -387.88623047 285.76757812 C-388.69715652 285.95260391 -389.50808258 286.1376297 -390.34358215 286.32826233 C-394.46850464 287.25957994 -398.57920995 288.09165563 -402.76123047 288.73632812 C-402.47248047 288.176875 -402.18373047 287.61742187 -401.88623047 287.04101562 C-398.4760307 279.6759314 -397.64915921 272.78925792 -398.76123047 264.73632812 C-400.76335387 259.41921352 -404.11378514 255.95379027 -408.76123047 252.73632812 C-410.09717778 251.73982296 -411.43094073 250.74037344 -412.76123047 249.73632812 C-412.04169189 249.65592285 -411.32215332 249.57551758 -410.58081055 249.49267578 C-407.24480336 249.11829957 -403.90927206 248.7398293 -400.57373047 248.36132812 C-398.87700195 248.17183594 -398.87700195 248.17183594 -397.14599609 247.97851562 C-390.40273928 247.21005331 -383.69982595 246.30518953 -376.99633789 245.24511719 C-373.7282443 244.73114035 -370.45701765 244.24689757 -367.18310547 243.77148438 C-354.66851606 241.94869316 -342.20055927 240.01877378 -329.76123047 237.73632812 C-329.43123047 231.79632813 -329.10123047 225.85632813 -328.76123047 219.73632812 C-330.74123047 218.74632812 -330.74123047 218.74632812 -332.76123047 217.73632812 C-339.71380213 211.65282792 -343.03328963 204.10489183 -344.26123047 195.04882812 C-343.38385617 189.23622342 -341.89095076 185.625482 -337.40966797 181.65039062 C-320.24956011 169.10857037 -299.10493304 158.91209498 -278.76123047 152.73632812 C-279.19435547 151.62257812 -279.62748047 150.50882813 -280.07373047 149.36132812 C-284.53453581 135.59655737 -285.09088902 122.06185251 -284.65063477 107.68798828 C-284.62525635 106.57085449 -284.59987793 105.4537207 -284.57373047 104.30273438 C-284.53892578 103.30185791 -284.50412109 102.30098145 -284.46826172 101.26977539 C-284.8139439 98.28048876 -285.5518264 97.65342639 -287.76123047 95.73632812 C-289.58896311 83.92774177 -286.50314706 69.57499461 -281.76123047 58.73632812 C-258.51632691 57.51825458 -234.15749143 65.31401674 -215.76123047 79.73632812 C-212.59258445 78.27448395 -209.71439684 76.45462325 -206.78710938 74.56298828 C-199.66564924 69.97769599 -192.38443356 65.80010939 -184.88623047 61.86132812 C-184.0316626 61.40959229 -183.17709473 60.95785645 -182.29663086 60.49243164 C-176.58335754 57.52956441 -170.77765493 55.01875202 -164.76123047 52.73632812 C-166.30466018 56.81737875 -168.26057546 60.15205595 -170.76123047 63.73632812 C-152.80110367 55.74090952 -137.82530494 48.61642532 -126.76123047 31.73632812 C-126.16439453 30.87136719 -125.56755859 30.00640625 -124.95263672 29.11523438 C-122.64237286 25.74125191 -120.53228609 22.42671378 -118.76123047 18.73632812 C-118.43123047 18.73632812 -118.10123047 18.73632812 -117.76123047 18.73632812 C-117.43123047 24.67632812 -117.10123047 30.61632812 -116.76123047 36.73632812 C-114.87404297 33.14757812 -114.87404297 33.14757812 -112.94873047 29.48632812 C-106.90350829 18.463813 -98.67165049 9.48447469 -88.76123047 1.73632812 C-88.11283203 1.22714844 -87.46443359 0.71796875 -86.79638672 0.19335938 C-61.38233648 -18.21644611 -25.37410125 -18.20575936 0 0 Z " fill="#040404" transform="translate(496.76123046875,60.263671875)"/>
<path d="M0 0 C3.8152481 0.45782977 4.76543408 1.4255426 7.125 4.375 C9.125 7.375 9.125 7.375 9.125 12.375 C2.69 14.355 2.69 14.355 -3.875 16.375 C0.745 16.375 5.365 16.375 10.125 16.375 C10.62 19.345 10.62 19.345 11.125 22.375 C4.855 23.365 -1.415 24.355 -7.875 25.375 C-0.945 25.705 5.985 26.035 13.125 26.375 C13.62 29.345 13.62 29.345 14.125 32.375 C13.0628125 32.42398438 12.000625 32.47296875 10.90625 32.5234375 C0.37998713 33.05860215 0.37998713 33.05860215 -9.875 35.375 C-8.71097656 35.41367188 -8.71097656 35.41367188 -7.5234375 35.453125 C1.02636735 35.90204077 9.14032001 37.14549205 17.125 40.375 C17.785 41.365 18.445 42.355 19.125 43.375 C9.225 43.705 -0.675 44.035 -10.875 44.375 C-2.68083665 45.52673434 -2.68083665 45.52673434 5.51757812 46.64746094 C12.150219 47.62357766 17.33600338 48.9646505 23.125 52.375 C23.125 53.035 23.125 53.695 23.125 54.375 C23.71273193 54.63385986 24.30046387 54.89271973 24.90600586 55.15942383 C27.29262884 56.46682792 28.7680407 57.84793865 30.62890625 59.82421875 C31.28157471 60.50444092 31.93424316 61.18466309 32.60668945 61.88549805 C33.29335693 62.60390869 33.98002441 63.32231934 34.6875 64.0625 C44.68569526 74.27080308 55.34793461 81.09017894 68.9375 85.6875 C79.62311759 89.60483435 89.16121106 96.59129313 98.26171875 103.2734375 C100.18453952 104.68473023 102.14042715 106.05195144 104.125 107.375 C104.125 108.035 104.125 108.695 104.125 109.375 C104.723125 109.66375 105.32125 109.9525 105.9375 110.25 C108.125 111.375 108.125 111.375 111.125 113.375 C110.55910156 112.61574219 109.99320313 111.85648437 109.41015625 111.07421875 C108.67667969 110.08035156 107.94320312 109.08648437 107.1875 108.0625 C106.45660156 107.07636719 105.72570312 106.09023438 104.97265625 105.07421875 C103.125 102.375 103.125 102.375 102.125 99.375 C101.465 99.375 100.805 99.375 100.125 99.375 C98.6171875 97.625 98.6171875 97.625 97 95.375 C96.46117187 94.6325 95.92234375 93.89 95.3671875 93.125 C94.95726562 92.5475 94.54734375 91.97 94.125 91.375 C98.39698055 91.0127119 100.34660236 91.82529742 103.75 94.375 C104.60980469 95.00792969 105.46960938 95.64085937 106.35546875 96.29296875 C107.26941406 96.98003906 108.18335938 97.66710937 109.125 98.375 C111.10248339 99.8148147 113.08162761 101.25235139 115.0625 102.6875 C115.95839844 103.34363281 116.85429687 103.99976563 117.77734375 104.67578125 C119.53316255 105.94663179 121.32154932 107.17269955 123.125 108.375 C121.73270997 106.64297907 120.33599444 104.91451516 118.9375 103.1875 C118.16019531 102.22457031 117.38289062 101.26164062 116.58203125 100.26953125 C114.20691073 97.47149579 111.75417223 94.9294533 109.125 92.375 C109.455 91.385 109.785 90.395 110.125 89.375 C113.27735217 89.9898903 115.37744137 91.03242721 117.98828125 92.88671875 C118.71080078 93.39783203 119.43332031 93.90894531 120.17773438 94.43554688 C121.29631836 95.24088867 121.29631836 95.24088867 122.4375 96.0625 C123.17162109 96.58005859 123.90574219 97.09761719 124.66210938 97.63085938 C129.37275412 100.987246 133.78535826 104.55129982 138.125 108.375 C134.15353497 102.01109723 129.68713766 96.33380782 124.7331543 90.71801758 C121.125 86.57989419 121.125 86.57989419 121.125 84.375 C131.11185863 88.24263798 140.22586733 93.45392354 149.125 99.375 C144.54167576 93.2056574 139.78948862 87.87190142 133.859375 82.953125 C132.125 81.375 132.125 81.375 130.125 78.375 C136.13617092 78.92419336 141.10266352 81.42361931 146.5 83.9375 C147.89025391 84.57461914 147.89025391 84.57461914 149.30859375 85.22460938 C151.58375685 86.26836976 153.85567035 87.31863182 156.125 88.375 C152.74709703 84.9049724 149.26004664 81.73800616 145.5 78.6875 C144.55898438 77.92050781 143.61796875 77.15351563 142.6484375 76.36328125 C140.0985008 74.30009827 140.0985008 74.30009827 137.125 72.375 C137.125 71.715 137.125 71.055 137.125 70.375 C141.65514746 70.99368478 145.65382471 72.1634536 149.9375 73.75 C155.30858363 75.7150306 160.69021413 77.59463911 166.125 79.375 C165.43535156 78.93929687 164.74570312 78.50359375 164.03515625 78.0546875 C158.01200369 74.23754555 152.0409909 70.35596888 146.125 66.375 C145.135 65.715 144.145 65.055 143.125 64.375 C143.125 63.715 143.125 63.055 143.125 62.375 C149.18870342 62.97997958 154.78014242 64.2383028 160.625 65.9375 C161.44742187 66.17146484 162.26984375 66.40542969 163.1171875 66.64648438 C165.12129058 67.21742072 167.12336591 67.79546705 169.125 68.375 C161.60405053 63.96727428 154.1965287 59.71494291 146.125 56.375 C146.125 55.715 146.125 55.055 146.125 54.375 C150.94438524 54.13990804 154.58798506 54.92315522 159.125 56.375 C155.495 54.395 151.865 52.415 148.125 50.375 C148.125 49.715 148.125 49.055 148.125 48.375 C154.78814077 48.86085401 160.04719451 50.7346971 166.125 53.4375 C166.99511719 53.81455078 167.86523438 54.19160156 168.76171875 54.58007812 C170.88700567 55.50259278 173.0077138 56.43430355 175.125 57.375 C168.15965564 52.78261865 161.15949036 48.73788407 153.6796875 45.05078125 C151.125 43.375 151.125 43.375 150.2578125 41.16796875 C150.21398437 40.57628906 150.17015625 39.98460937 150.125 39.375 C157.8748635 39.90041447 164.7700086 41.93091476 172.125 44.375 C165.56496435 40.99658164 159.10353129 37.79064545 152.125 35.375 C152.125 34.055 152.125 32.735 152.125 31.375 C158.45743404 32.17925299 164.59147784 33.55853062 170.8046875 35.00195312 C171.96097656 35.26588867 171.96097656 35.26588867 173.140625 35.53515625 C173.83446289 35.69636963 174.52830078 35.85758301 175.24316406 36.02368164 C177.29745001 36.46675924 177.29745001 36.46675924 180.125 36.375 C175.12398052 33.73809882 170.33969765 31.66916569 164.91015625 30.0859375 C163.125 29.375 163.125 29.375 162.125 27.375 C168.05192605 24.50133888 173.09738603 24.87798239 179.234375 26.9140625 C181.11987462 27.59489583 182.99997644 28.29082478 184.875 29 C185.8549292 29.36464355 186.8348584 29.72928711 187.84448242 30.10498047 C198.12999916 34.01095961 207.11069421 39.09837227 216.125 45.375 C212.25245805 46.66584732 209.64249592 45.61329136 205.875 44.5 C198.20535403 42.27134536 191.08663535 41.23532219 183.125 41.375 C183.95 41.58253906 184.775 41.79007813 185.625 42.00390625 C201.93753813 46.35513015 218.6226835 52.38827008 229.125 66.375 C227.908125 65.9625 226.69125 65.55 225.4375 65.125 C223.66763591 64.53873252 221.89669168 63.95572116 220.125 63.375 C219.135 63.05015625 218.145 62.7253125 217.125 62.390625 C203.87348839 58.01507205 203.87348839 58.01507205 190.125 56.375 C190.7334375 56.5709375 191.341875 56.766875 191.96875 56.96875 C209.22132152 62.85492146 227.00145485 71.59417962 237.125 87.375 C236.465 87.705 235.805 88.035 235.125 88.375 C233.12109375 87.625 233.12109375 87.625 230.5625 86.375 C218.3687413 80.64521024 206.19391704 75.70954143 193.125 72.375 C196.30498885 75.61157228 199.56531192 78.66217003 203 81.625 C214.15156321 91.66802503 221.942033 104.31498048 224.125 119.375 C223.795 120.035 223.465 120.695 223.125 121.375 C221.98224609 119.99828125 221.98224609 119.99828125 220.81640625 118.59375 C210.06402055 105.75845058 198.43322755 94.65042449 183.125 87.375 C183.52589844 87.79007812 183.92679687 88.20515625 184.33984375 88.6328125 C192.55019581 97.53201496 199.31379547 107.84265053 203.125 119.375 C203.47433594 120.31601562 203.82367188 121.25703125 204.18359375 122.2265625 C205.20110552 125.62952718 205.53322224 128.70929663 205.75 132.25 C205.86214844 133.97863281 205.86214844 133.97863281 205.9765625 135.7421875 C206.02554687 136.61101562 206.07453125 137.47984375 206.125 138.375 C201.87954536 134.3797379 198.49067693 130.01707992 195.0625 125.3125 C191.1729321 119.93631493 191.1729321 119.93631493 186.75390625 115.00390625 C186.21636719 114.46636719 185.67882812 113.92882812 185.125 113.375 C185.125 112.715 185.125 112.055 185.125 111.375 C184.465 111.375 183.805 111.375 183.125 111.375 C181.50390625 109.6953125 181.50390625 109.6953125 179.6875 107.5 C177.54099116 104.91306278 175.95723438 103.26315626 173.125 101.375 C173.56070312 102.00664062 173.99640625 102.63828125 174.4453125 103.2890625 C179.33999897 110.64168676 182.90464451 118.16260407 186.125 126.375 C186.62193359 127.57962891 186.62193359 127.57962891 187.12890625 128.80859375 C189.54117309 135.15973108 189.82282404 141.63335008 190.125 148.375 C186.05424065 144.53326704 182.83128068 140.40637176 179.5625 135.875 C173.92606675 128.1912205 167.73906309 121.22360433 161.125 114.375 C162.13692986 117.41078959 163.45192679 119.98050854 164.9375 122.8125 C170.08577762 133.12146073 172.86560804 141.77214075 172.125 153.375 C168.42874894 149.78530753 165.09190605 146.03243052 161.8125 142.0625 C155.54289148 134.58118937 149.29009992 127.81839995 141.125 122.375 C141.57230469 122.94605469 142.01960937 123.51710938 142.48046875 124.10546875 C150.41861804 134.75172867 153.88622223 145.11198033 154.125 158.375 C152.08380212 156.75905168 150.08427063 155.0893618 148.125 153.375 C148.125 152.715 148.125 152.055 148.125 151.375 C147.135 151.045 146.145 150.715 145.125 150.375 C145.125 149.715 145.125 149.055 145.125 148.375 C144.135 148.045 143.145 147.715 142.125 147.375 C142.125 146.715 142.125 146.055 142.125 145.375 C141.135 145.045 140.145 144.715 139.125 144.375 C139.125 143.715 139.125 143.055 139.125 142.375 C138.135 142.045 137.145 141.715 136.125 141.375 C136.125 140.715 136.125 140.055 136.125 139.375 C135.135 139.045 134.145 138.715 133.125 138.375 C133.125 137.715 133.125 137.055 133.125 136.375 C132.58359375 136.14039063 132.0421875 135.90578125 131.484375 135.6640625 C128.46908456 134.0166356 126.01315988 131.94846656 123.375 129.75 C122.39015625 128.93273437 121.4053125 128.11546875 120.390625 127.2734375 C119.26914062 126.33371094 119.26914062 126.33371094 118.125 125.375 C119.4610968 128.08616783 120.86075933 130.74661176 122.33203125 133.38671875 C122.75419922 134.14533203 123.17636719 134.90394531 123.61132812 135.68554688 C124.04896484 136.46994141 124.48660156 137.25433594 124.9375 138.0625 C125.79817708 139.60807292 126.65885417 141.15364583 127.51953125 142.69921875 C127.94443848 143.46153809 128.3693457 144.22385742 128.80712891 145.00927734 C130.91655344 148.79592494 133.02081553 152.58543874 135.125 156.375 C131.39489609 154.61721448 128.7879916 152.43826345 125.75 149.625 C125.23759766 149.15054443 124.72519531 148.67608887 124.19726562 148.18725586 C118.17107591 142.55985811 112.36863298 136.70449384 106.57421875 130.84033203 C104.76517062 129.01116983 102.94635991 127.19189579 101.125 125.375 C107.55849489 139.03083793 114.70880813 151.28895657 125.125 162.375 C123.125 163.375 123.125 163.375 120.9453125 162.84375 C109.77189567 158.82779729 100.25753941 152.90468556 91.125 145.375 C90.114375 144.570625 89.10375 143.76625 88.0625 142.9375 C87.423125 142.421875 86.78375 141.90625 86.125 141.375 C90.5191848 150.99209744 96.81045866 157.93026455 104.125 165.375 C99.88913988 167.49293006 94.36641398 164.78422924 90.125 163.375 C80.26922133 159.32326203 71.45420259 154.01012749 63.125 147.375 C64.37032307 155.18985349 72.05491021 161.82243266 78.125 166.375 C72.72259561 168.29279089 68.12007549 165.53152154 63.125 163.375 C55.7708501 159.864377 49.37479048 155.59087452 43.125 150.375 C43.125 154.61537229 47.45528551 158.32320681 50.125 161.375 C53.02791379 164.16308334 56.0316717 166.80073359 59.125 169.375 C57.125 170.375 57.125 170.375 54.9453125 169.84375 C44.00557812 165.9117875 34.5005602 160.4795862 26.125 152.375 C27.10474319 155.31422957 28.14604366 156.93995287 30 159.375 C30.51304687 160.055625 31.02609375 160.73625 31.5546875 161.4375 C32.98891549 163.20709474 34.48172684 164.80060655 36.125 166.375 C35.795 167.035 35.465 167.695 35.125 168.375 C25.51294458 163.95288575 17.35655761 159.02356576 9.125 152.375 C9.54652344 152.98988281 9.96804688 153.60476563 10.40234375 154.23828125 C10.95019531 155.04652344 11.49804688 155.85476563 12.0625 156.6875 C12.60777344 157.48800781 13.15304687 158.28851563 13.71484375 159.11328125 C15.125 161.375 15.125 161.375 16.125 164.375 C17.115 164.705 18.105 165.035 19.125 165.375 C16.125 166.375 16.125 166.375 13.0859375 165.15234375 C11.88457864 164.55099298 10.68951328 163.93695498 9.5 163.3125 C8.56873291 162.83574829 8.56873291 162.83574829 7.61865234 162.34936523 C2.54693332 159.70573662 -2.2365741 156.72497426 -6.875 153.375 C-6.23691406 154.14585937 -5.59882813 154.91671875 -4.94140625 155.7109375 C-4.11511719 156.71382812 -3.28882813 157.71671875 -2.4375 158.75 C-1.20193359 160.24660156 -1.20193359 160.24660156 0.05859375 161.7734375 C2.125 164.375 2.125 164.375 3.125 166.375 C-5.6644615 164.1018634 -12.45130909 159.4121274 -19.875 154.375 C-19.2253125 155.20644531 -19.2253125 155.20644531 -18.5625 156.0546875 C-18.005625 156.77914062 -17.44875 157.50359375 -16.875 158.25 C-16.318125 158.96929687 -15.76125 159.68859375 -15.1875 160.4296875 C-13.875 162.375 -13.875 162.375 -13.875 164.375 C-12.885 164.705 -11.895 165.035 -10.875 165.375 C-10.875 166.035 -10.875 166.695 -10.875 167.375 C-20.68101482 165.05252281 -28.21521582 157.53705841 -34.875 150.375 C-33.5676925 153.81431834 -32.06463666 156.98800905 -30.25 160.1875 C-29.58097656 161.37279297 -29.58097656 161.37279297 -28.8984375 162.58203125 C-28.39183594 163.46955078 -28.39183594 163.46955078 -27.875 164.375 C-35.05188583 163.12684594 -39.43985425 159.00623352 -44.875 154.375 C-45.80054688 153.67117188 -46.72609375 152.96734375 -47.6796875 152.2421875 C-48.40414062 151.62601563 -49.12859375 151.00984375 -49.875 150.375 C-49.875 149.715 -49.875 149.055 -49.875 148.375 C-50.865 148.045 -51.855 147.715 -52.875 147.375 C-53.535 146.385 -54.195 145.395 -54.875 144.375 C-53.56425635 148.83682436 -51.80433989 152.37118757 -49.25 156.25 C-48.61835938 157.21679688 -47.98671875 158.18359375 -47.3359375 159.1796875 C-46.85382813 159.90414062 -46.37171875 160.62859375 -45.875 161.375 C-51.29099267 161.375 -55.03482888 156.90319267 -58.875 153.375 C-62.78033749 149.0500808 -66.43308744 144.69836938 -68.875 139.375 C-67.6526767 144.07624346 -66.09791916 148.03020346 -63.875 152.375 C-63.875 153.035 -63.875 153.695 -63.875 154.375 C-67.90873377 152.81416129 -70.30447429 149.94137189 -73.0625 146.75 C-74.64675377 144.93683403 -76.24626522 143.14910455 -77.875 141.375 C-78.205 141.375 -78.535 141.375 -78.875 141.375 C-78.545 142.365 -78.215 143.355 -77.875 144.375 C-81.27359703 142.90533642 -83.52463709 140.99462486 -86.125 138.375 C-86.83140625 137.67375 -87.5378125 136.9725 -88.265625 136.25 C-89.875 134.375 -89.875 134.375 -89.875 132.375 C-88.57237814 131.82993128 -87.25694889 131.31546941 -85.9375 130.8125 C-85.20660156 130.52246094 -84.47570312 130.23242188 -83.72265625 129.93359375 C-76.56037626 128.52864719 -69.81552485 130.82183262 -63.125 133.25 C-44.70567081 139.63265332 -25.12012219 143.18628055 -5.875 138.375 C-4.26625 137.99601562 -4.26625 137.99601562 -2.625 137.609375 C2.63200697 136.7667264 2.63200697 136.7667264 7.125 134.375 C8.85177444 134.2749824 10.5828377 134.24533155 12.3125 134.25 C13.25480469 134.24742187 14.19710937 134.24484375 15.16796875 134.2421875 C18.125 134.375 18.125 134.375 20.86206055 134.8684082 C26.40687887 135.72927599 31.99079222 135.63899384 37.59033203 135.67016602 C39.0194696 135.6816366 40.44856601 135.70201004 41.87744141 135.73168945 C53.14156141 135.96489296 65.31109207 135.30751713 74.125 127.375 C75.70077905 124.79825439 76.97377384 122.16503046 78.125 119.375 C77.09375 119.99375 76.0625 120.6125 75 121.25 C59.21271123 130.72237326 32.27256137 127.49439721 14.75390625 124.51953125 C10.39568448 124.34595299 8.01076277 125.46527359 4.125 127.375 C-18.55413259 135.76740179 -45.0839817 132.13633918 -66.82617188 122.51123047 C-79.56189301 116.5567444 -90.66856448 108.33513751 -97.3125 95.625 C-97.97760861 92.96456558 -97.84267368 91.93041012 -96.875 89.375 C-94.94921875 87.296875 -94.94921875 87.296875 -92.5625 85.125 C-88.46469583 81.17029375 -85.97755538 77.62558029 -83.875 72.375 C-83.25625 71.1375 -83.25625 71.1375 -82.625 69.875 C-81.55224604 66.29915346 -81.15660454 63.06426003 -81.875 59.375 C-85.92621587 53.85061472 -90.92514228 51.8925189 -97.4375 50.75 C-100.9127148 50.24553334 -104.38762021 49.78613354 -107.875 49.375 C-105.15026938 46.10733413 -101.56218005 44.5124256 -97.8125 42.6875 C-97.10569092 42.34009766 -96.39888184 41.99269531 -95.6706543 41.63476562 C-76.26842866 32.18376378 -56.56808574 23.95305265 -35.65161133 18.52734375 C-25.81657801 15.92951086 -16.8686854 12.83090537 -8.875 6.375 C-8.215 6.375 -7.555 6.375 -6.875 6.375 C-6.58625 5.75625 -6.2975 5.1375 -6 4.5 C-4.34612635 1.37601643 -3.56854551 0.46546246 0 0 Z " fill="#F8F8F8" transform="translate(290.875,191.625)"/>
<path d="M0 0 C11.19517003 -0.18056726 21.02617814 5.10854622 29.375 12.25 C42.70428563 25.25151631 50.03055482 42.372793 50.43041992 61.00683594 C50.49955127 89.01218268 50.49955127 89.01218268 43.41333008 96.72753906 C42.94693115 97.14745117 42.48053223 97.56736328 42 98 C42.00523682 97.09233887 42.01047363 96.18467773 42.01586914 95.24951172 C42.03297684 91.86132158 42.04548213 88.47317779 42.05493164 85.08496094 C42.05994045 83.62238843 42.06674938 82.15982089 42.07543945 80.69726562 C42.08765698 78.58722709 42.09326295 76.47725513 42.09765625 74.3671875 C42.10289307 73.09987793 42.10812988 71.83256836 42.11352539 70.52685547 C42.00813747 67.252804 41.62450226 64.21110848 41 61 C40.94054199 61.73935791 40.88108398 62.47871582 40.81982422 63.24047852 C38.52610088 90.39131965 38.52610088 90.39131965 32 103 C31.34 103 30.68 103 30 103 C30.16371094 101.9584375 30.32742188 100.916875 30.49609375 99.84375 C31.258398 93.74531601 31.1063241 87.63537364 31.0625 81.5 C31.05573242 79.69402344 31.05573242 79.69402344 31.04882812 77.8515625 C31.0371195 74.90098927 31.02071995 71.95052141 31 69 C30.88100342 69.7741626 30.76200684 70.5483252 30.6394043 71.34594727 C28.38501457 85.5084199 24.32018387 97.68015164 17 110 C15.77772775 106.48800441 16.27603885 104.44106881 17.375 100.9375 C19.6901159 92.4275991 19.73410147 83.76548253 20 75 C19.34 75 18.68 75 18 75 C17.97421875 75.63164062 17.9484375 76.26328125 17.921875 76.9140625 C16.99855556 91.47732822 11.76973523 103.34782494 5 116 C3.76321819 112.46280402 4.28773564 110.34860288 5.375 106.8125 C7.50803781 98.95240177 7.72183492 91.09556305 8 83 C7.34 83 6.68 83 6 83 C5.98582031 83.54785156 5.97164062 84.09570312 5.95703125 84.66015625 C4.9905915 100.72395205 -3.30353851 121.58202569 -15 133 C-17.203125 134.2265625 -17.203125 134.2265625 -19 135 C-16.28171334 126.68204283 -16.28171334 126.68204283 -14.8125 123.125 C-13.82143127 120.91214647 -13.82143127 120.91214647 -14 118 C-14.47566406 118.92619141 -14.47566406 118.92619141 -14.9609375 119.87109375 C-21.2371661 131.26192854 -30.03719386 138.08858399 -42 143 C-43.32938422 143.34874988 -44.66220345 143.68505669 -46 144 C-43.16640156 144.05449228 -40.33387515 144.09390733 -37.5 144.125 C-36.31277344 144.15013672 -36.31277344 144.15013672 -35.1015625 144.17578125 C-18.25807659 144.31384261 -2.56277327 135.6404612 9.44140625 124.28515625 C11 123 11 123 13 123 C13.17835515 127.54805635 12.99785435 130.8794254 11 135 C17.45083209 129.30808933 21.35379427 121.69754543 25 114 C25.66 114 26.32 114 27 114 C27 116.31 27 118.62 27 121 C42.99243822 108.17679497 53.01359345 95.09228523 58 75 C58.99 75 59.98 75 61 75 C62 76 62 76 62.25 79.875 C62.13662783 88.80305807 58.94393945 97.09793426 55 105 C54.64164063 105.72832031 54.28328125 106.45664063 53.9140625 107.20703125 C48.68419424 117.22802043 41.31151578 126.84424211 31 132 C38.55038422 131.34650367 38.55038422 131.34650367 46 130 C38.2434251 141.35784182 23.46770762 145.91057487 10.6015625 148.75 C8.07157933 149.21827452 5.54806435 149.64507212 3 150 C7.98229776 151.91626837 12.72684667 152.5547115 18 153 C15.41288984 156.16202353 12.94249361 157.05942739 9 158 C5.30912495 158.33074749 1.6417762 158.37980101 -2.0625 158.375 C-3.082229 158.37628906 -4.10195801 158.37757813 -5.15258789 158.37890625 C-13.05366145 158.26846316 -19.68782773 157.14381303 -27 154 C-27.33 154.33 -27.66 154.66 -28 155 C-26.60823368 155.96423026 -25.2113777 156.92111602 -23.8125 157.875 C-23.03519531 158.40867187 -22.25789062 158.94234375 -21.45703125 159.4921875 C-19.0323391 160.98015439 -16.6666501 162.02428078 -14 163 C-14 163.33 -14 163.66 -14 164 C-28.28424379 164.8294077 -38.53869758 160.5684576 -51 154 C-52.3315532 153.32978489 -53.66415573 152.66162098 -55 152 C-54.04578192 153.14926266 -53.08647955 154.29430541 -52.125 155.4375 C-51.59132813 156.07558594 -51.05765625 156.71367187 -50.5078125 157.37109375 C-49.0777243 159.10805004 -49.0777243 159.10805004 -47 160 C-47 160.66 -47 161.32 -47 162 C-45.35 162.66 -43.7 163.32 -42 164 C-42 164.33 -42 164.66 -42 165 C-55.56521641 164.43360266 -66.10564679 158.01485515 -76 149 C-78.07196391 146.72322127 -80.05866583 144.38880481 -82 142 C-80.46229364 151.78052767 -74.86455251 160.09482884 -68 167 C-68.66 167.33 -69.32 167.66 -70 168 C-86.31720828 161.97656774 -98.4475557 149.79405219 -106.5 134.5 C-108 131 -108 131 -108 128 C-102.79049239 129.44977021 -100.13409172 132.70518244 -96.6875 136.625 C-96.13771484 137.23601562 -95.58792969 137.84703125 -95.02148438 138.4765625 C-93.67312444 139.97734573 -92.33547499 141.48773965 -91 143 C-92.40850536 138.63181448 -93.8031718 134.315387 -95.6875 130.125 C-97 127 -97 127 -97 124 C-94.5 123.125 -94.5 123.125 -91 123 C-88.91190966 124.23283765 -87.14882716 125.69727091 -85.27734375 127.23828125 C-76.47138068 134.05044136 -67.40793116 137.40425576 -56.375 137.4375 C-55.49360352 137.44136719 -54.61220703 137.44523438 -53.70410156 137.44921875 C-46.21844759 137.31755463 -40.56136169 135.73410828 -34 132 C-35.03125 132.33 -36.0625 132.66 -37.125 133 C-45.29959783 135.04364946 -54.12545015 135.01578505 -62 132 C-62 131.67 -62 131.34 -62 131 C-60.96101562 130.96261719 -59.92203125 130.92523438 -58.8515625 130.88671875 C-50.86358567 130.5366213 -43.50336018 130.00944122 -36 127 C-35.28328125 126.72285156 -34.5665625 126.44570312 -33.828125 126.16015625 C-27.19596462 123.25546947 -23.50187795 118.80350551 -20.125 112.5 C-18.59932827 107.75346572 -18.54811552 104.03348017 -19.625 99.1875 C-21.60379086 96.03942363 -23.42122867 95.91286944 -27 95 C-29.92218227 94.70311081 -32.81435026 94.667494 -35.75 94.6875 C-36.5455127 94.68951416 -37.34102539 94.69152832 -38.16064453 94.69360352 C-44.20317178 94.79651011 -49.35650959 95.81286416 -55 98 C-56.32860925 98.35169068 -57.66087802 98.69074089 -59 99 C-52.22090662 89.41576454 -41.76477554 84.52522377 -30.5 82.3125 C-22.02479418 81.55578519 -14.36209763 82.41530468 -6 84 C-9.16179769 77.82012269 -13.61758517 75.46839156 -20 73 C-30.59133477 70.33969613 -40.92579479 72.38361864 -51 76 C-51 75.34 -51 74.68 -51 74 C-34.72732024 64.73075203 -17.34723869 55.67653321 2 59 C6.11055107 60.34089115 9.67807413 62.20958227 13 65 C12.75586717 59.99527693 11.16881663 57.20140464 7.88671875 53.609375 C-0.75288384 46.2397761 -12.26025197 46.22546243 -23 47 C-26.50957187 47.66642918 -29.69826492 48.65168189 -33 50 C-34.546875 50.5878125 -34.546875 50.5878125 -36.125 51.1875 C-36.74375 51.455625 -37.3625 51.72375 -38 52 C-28.7557047 41.93282236 -13.56294725 35.44484313 -0.05859375 34.625 C1.71054214 34.56900748 3.48018943 34.52734052 5.25 34.5 C6.07781982 34.48130859 6.90563965 34.46261719 7.75854492 34.44335938 C15.03455783 34.51893167 21.72426571 36.47099081 27 41.6875 C27.66 42.450625 28.32 43.21375 29 44 C29.33 44.33 29.66 44.66 30 45 C29.79559177 39.17436554 28.92708809 35.84964698 24.86328125 31.6015625 C15.00877186 23.13122949 2.79811669 21.84345154 -9.75830078 22.70556641 C-19.38022757 23.96934812 -28.88851039 28.90778708 -37 34 C-34.76092553 27.28277659 -24.8687672 22.25251496 -18.8125 19.0625 C-8.49862737 14.31484434 3.62742132 13.23806071 14.6796875 16.11328125 C22.57117335 19.1290511 29.43955422 23.66727009 35 30 C33.86578946 22.49574656 29.12123641 16.16830945 23.25 11.4765625 C16.06202871 6.75945634 8.31302083 3.16308195 0 1 C0 0.67 0 0.34 0 0 Z " fill="#F4F4F4" transform="translate(644,117)"/>
<path d="M0 0 C7.9454856 0.17272795 13.45123666 4.61315742 19.0546875 9.9609375 C27.665662 19.31105144 29.50036831 28.2717898 29.28125 40.796875 C28.85272412 50.23301497 24.74736889 58.79080861 21.10546875 67.36328125 C17.30150644 76.43633624 16.41371624 84.74601224 20.0625 94 C23.16526245 100.78564478 27.2112351 106.87987558 31.3828125 113.04296875 C40.08900996 126.32128878 41.8073076 139.09221297 40.75 154.6875 C39.68930981 159.37221499 37.94798235 163.61867942 36 168 C35.62746094 168.84046875 35.25492187 169.6809375 34.87109375 170.546875 C32.03608656 176.57243484 28.63209833 182.16954985 24 187 C23.34 187 22.68 187 22 187 C21.67 187.99 21.34 188.98 21 190 C18.92948539 191.74856583 16.85609323 193.38240066 14.6875 195 C-4.81973522 209.46248587 -4.81973522 209.46248587 -14.50390625 230.76171875 C-14.66539522 241.58147942 -12.22180302 248.43275085 -6.3125 257.625 C-4.68372394 260.57230907 -4.76868129 262.68443178 -5 266 C-9.16914456 264.31807127 -12.19376055 261.32639734 -15.4375 258.3125 C-15.99759766 257.80783203 -16.55769531 257.30316406 -17.13476562 256.78320312 C-24.63635654 249.859331 -29.30623616 242.8080342 -30.35546875 232.51171875 C-30.85654963 219.25338961 -26.4080551 209.10221545 -18 199 C-14.4395509 195.21446504 -10.74891535 191.59962227 -7 188 C2.52319557 178.56120499 9.06641654 170.21894728 9.25 156.3125 C9.19985015 150.26317399 8.4832059 145.49544263 6 140 C5.74476562 139.39542969 5.48953125 138.79085937 5.2265625 138.16796875 C3.11338268 133.56356318 0.33902355 129.41123968 -2.4375 125.1875 C-10.26071831 113.24822747 -14.5803309 102.3491572 -12.7265625 87.86328125 C-10.68364108 78.36176935 -5.44819883 71.02295236 0.72265625 63.72265625 C9.744901 52.93619897 16.28030064 41.44910717 15 27 C13.73585789 20.82801204 11.67698322 16.07170099 8 11 C8 10.34 8 9.68 8 9 C7.34 9 6.68 9 6 9 C4.4921875 7.5390625 4.4921875 7.5390625 2.875 5.625 C2.33617187 4.99851562 1.79734375 4.37203125 1.2421875 3.7265625 C0 2 0 2 0 0 Z " fill="#030303" transform="translate(72,32)"/>
<path d="M0 0 C1.13308594 -0.01160156 2.26617188 -0.02320312 3.43359375 -0.03515625 C14.10713844 0.0015226 23.83502454 2.19702349 33.5625 6.5625 C34.24022461 6.86510742 34.91794922 7.16771484 35.61621094 7.47949219 C41.85395909 10.36914603 47.22249471 13.96151106 52.5 18.375 C53.99660156 19.61056641 53.99660156 19.61056641 55.5234375 20.87109375 C71.72868549 34.70919707 83.49979307 55.81778175 86.3125 77.125 C86.69004716 82.52602188 86.58239234 87.96456992 86.5 93.375 C83.72020519 90.59520519 83.51904148 87.47468596 82.75 83.75 C78.42054688 64.32518701 70.2253501 46.73398482 57.5 31.375 C56.96117187 30.72144531 56.42234375 30.06789063 55.8671875 29.39453125 C47.95050137 20.70208944 36.67559473 14.61844328 25.5 11.375 C24.48679687 11.02308594 23.47359375 10.67117187 22.4296875 10.30859375 C6.10013232 5.71831895 -11.25925848 9.12405106 -25.703125 17.15625 C-29.7278381 19.60981842 -33.47019711 22.26291913 -37.0625 25.3125 C-39.5 27.375 -39.5 27.375 -41.5 27.375 C-41.995 28.86 -41.995 28.86 -42.5 30.375 C-43.16 30.375 -43.82 30.375 -44.5 30.375 C-44.76425781 30.96152344 -45.02851562 31.54804687 -45.30078125 32.15234375 C-46.54300714 34.45471031 -47.89631548 36.03974615 -49.6875 37.9375 C-54.39263978 43.20065723 -54.39263978 43.20065723 -60.5 53.375 C-50.93 47.765 -41.36 42.155 -31.5 36.375 C-31.17 37.035 -30.84 37.695 -30.5 38.375 C-31.16 38.375 -31.82 38.375 -32.5 38.375 C-32.87898437 39.23931641 -32.87898437 39.23931641 -33.265625 40.12109375 C-38.06503834 48.88457951 -47.99321018 55.08028556 -55.79736328 61.06152344 C-58.34892875 63.02989485 -60.86213909 65.04508259 -63.375 67.0625 C-64.17679688 67.70574219 -64.97859375 68.34898437 -65.8046875 69.01171875 C-66.36414063 69.46160156 -66.92359375 69.91148437 -67.5 70.375 C-58.28085572 68.71744837 -50.3892681 65.81172867 -41.93359375 61.8984375 C-39.38711146 60.76859894 -37.2130639 59.88585682 -34.5 59.375 C-44.52021012 72.63704281 -60.79484009 83.1399467 -76.5 88.375 C-65.92359919 91.29262781 -55.29929152 90.86455745 -44.5 89.375 C-57.65766602 99.87671023 -74.40187225 101.05734281 -90.5 102.375 C-82.28673993 106.8593201 -74.96860389 110.42813961 -65.5 111.375 C-65.5 111.705 -65.5 112.035 -65.5 112.375 C-72.75259449 112.57400412 -79.56588624 112.751025 -86.5 110.375 C-88.19382812 109.81039062 -88.19382812 109.81039062 -89.921875 109.234375 C-95.43627614 107.3352244 -100.57954894 105.55337046 -105.5 102.375 C-103.26083469 100.55567818 -101.0306822 98.74726961 -98.66796875 97.08984375 C-85.472777 87.74650284 -80.74862063 75.84517097 -75.15625 61.2734375 C-70.56559757 49.40001158 -65.96222373 38.72692313 -58.5 28.375 C-58.17 27.715 -57.84 27.055 -57.5 26.375 C-58.985 26.87 -58.985 26.87 -60.5 27.375 C-60.5 28.035 -60.5 28.695 -60.5 29.375 C-61.16 30.014375 -61.82 30.65375 -62.5 31.3125 C-70.89085819 39.56272928 -75.80296334 49.52554048 -80.81884766 60.02124023 C-81.2679248 60.95524658 -81.71700195 61.88925293 -82.1796875 62.8515625 C-82.57913574 63.69799316 -82.97858398 64.54442383 -83.39013672 65.41650391 C-84.5 67.375 -84.5 67.375 -86.5 68.375 C-86.5 62.105 -86.5 55.835 -86.5 49.375 C-87.61375 52.530625 -87.61375 52.530625 -88.75 55.75 C-90.28511658 60.08025364 -91.87404469 64.37655805 -93.625 68.625 C-95.5950067 73.44591072 -97.09275181 78.36434356 -98.5 83.375 C-99.16 83.375 -99.82 83.375 -100.5 83.375 C-100.995 74.465 -100.995 74.465 -101.5 65.375 C-105.13 73.625 -108.76 81.875 -112.5 90.375 C-113.16 90.375 -113.82 90.375 -114.5 90.375 C-114.68451025 74.63012528 -114.68451025 74.63012528 -113.5 67.375 C-114.16 67.375 -114.82 67.375 -115.5 67.375 C-115.70625 68.055625 -115.9125 68.73625 -116.125 69.4375 C-117.92895027 73.29139375 -120.4010345 76.45287764 -123.5 79.375 C-124.16 79.375 -124.82 79.375 -125.5 79.375 C-123.90109514 74.17855921 -121.75861997 69.30887858 -119.5 64.375 C-120.39203125 64.79652344 -121.2840625 65.21804687 -122.203125 65.65234375 C-123.37359375 66.20019531 -124.5440625 66.74804688 -125.75 67.3125 C-126.91015625 67.85777344 -128.0703125 68.40304688 -129.265625 68.96484375 C-134.29551335 71.15782647 -137.99036711 71.48095448 -143.5 71.375 C-142.03119653 68.43739306 -139.88666236 67.99807684 -136.9375 66.625 C-127.9050086 62.17790765 -121.44143576 56.55972475 -114.53515625 49.33740234 C-113.22524309 47.98174482 -111.86618652 46.6739281 -110.5 45.375 C-109.84 45.375 -109.18 45.375 -108.5 45.375 C-108.5 52.635 -108.5 59.895 -108.5 67.375 C-107.89671875 65.57933594 -107.2934375 63.78367188 -106.671875 61.93359375 C-105.86496163 59.55976721 -105.05764892 57.18607638 -104.25 54.8125 C-103.85425781 53.63107422 -103.45851563 52.44964844 -103.05078125 51.23242188 C-100.99816621 45.22599918 -98.92777733 39.72893662 -95.5 34.375 C-95.17 34.375 -94.84 34.375 -94.5 34.375 C-94.005 42.295 -94.005 42.295 -93.5 50.375 C-93.0153125 49.28703125 -92.530625 48.1990625 -92.03125 47.078125 C-85.90842893 33.55914599 -78.81568233 22.16826021 -68.5 11.375 C-66.7840592 14.80688159 -68.83831554 18.37942123 -69.9375 21.875 C-70.41768502 23.426367 -70.89565652 24.9784214 -71.37109375 26.53125 C-71.69484985 27.56475586 -71.69484985 27.56475586 -72.02514648 28.61914062 C-72.58702038 30.3936181 -72.58702038 30.3936181 -72.5 32.375 C-72.11070312 31.85292969 -71.72140625 31.33085938 -71.3203125 30.79296875 C-63.12391252 20.00922591 -54.59827953 11.09802957 -43.5 3.375 C-42.51 3.87 -42.51 3.87 -41.5 4.375 C-42.8303125 5.3959375 -42.8303125 5.3959375 -44.1875 6.4375 C-47.68760316 9.33069691 -49.98874774 12.60812161 -52.5 16.375 C-52.17 16.705 -51.84 17.035 -51.5 17.375 C-50.62859375 16.78332031 -49.7571875 16.19164063 -48.859375 15.58203125 C-33.52233166 5.33565483 -18.63954991 -0.19084863 0 0 Z " fill="#F1F1F1" transform="translate(626.5,92.625)"/>
<path d="M0 0 C-1.03898437 0.7734375 -2.07796875 1.546875 -3.1484375 2.34375 C-9.46745671 7.05724106 -15.78671583 11.7725504 -22 16.625 C-22.78375 17.23601562 -23.5675 17.84703125 -24.375 18.4765625 C-24.91125 18.97929687 -25.4475 19.48203125 -26 20 C-26 20.66 -26 21.32 -26 22 C-25.14019531 21.49210937 -24.28039062 20.98421875 -23.39453125 20.4609375 C8.75007122 1.65678087 8.75007122 1.65678087 25.3125 1.9375 C26.529375 1.958125 27.74625 1.97875 29 2 C25.30932462 5.05468432 21.18234357 7.03173686 16.9375 9.1875 C9.75677276 12.8974783 3.38442746 17.02904795 -3 22 C-2.351521 21.7733667 -1.70304199 21.5467334 -1.03491211 21.31323242 C18.72884217 14.44884924 36.9589693 9.67462324 58 10 C56.73162309 12.53675381 55.87130196 12.64117218 53.2734375 13.6640625 C52.49524658 13.97794922 51.71705566 14.29183594 50.9152832 14.61523438 C49.65784302 15.11506836 49.65784302 15.11506836 48.375 15.625 C39.58270778 19.20831158 31.27105367 23.35139585 23 28 C23.55872803 27.88406494 24.11745605 27.76812988 24.69311523 27.64868164 C27.27372403 27.11572693 29.85558459 26.58908684 32.4375 26.0625 C33.31599609 25.88009766 34.19449219 25.69769531 35.09960938 25.50976562 C45.53087429 23.39271924 55.41307376 22.8638995 66.0625 22.9375 C67.30966797 22.94201172 68.55683594 22.94652344 69.84179688 22.95117188 C72.89458221 22.96286837 75.94726498 22.97925914 79 23 C79 23.66 79 24.32 79 25 C77.83017578 25.48879639 76.66035156 25.97759277 75.45507812 26.48120117 C71.08361665 28.30994286 66.71607342 30.14788704 62.34960938 31.98852539 C60.46523682 32.78137611 58.57983396 33.57178298 56.69335938 34.35961914 C53.96985653 35.49753088 51.25027529 36.64440581 48.53125 37.79296875 C47.69758911 38.13901657 46.86392822 38.48506439 46.00500488 38.84159851 C40.66567916 41.1100056 35.82283546 43.77602125 31 47 C32.02996094 46.67386719 33.05992187 46.34773438 34.12109375 46.01171875 C41.80562815 43.63338902 49.45073053 41.54204786 57.375 40.125 C58.09357178 39.99311279 58.81214355 39.86122559 59.55249023 39.7253418 C62.82769198 39.17364195 64.79893512 38.93297837 68 40 C64.33863695 43.04658194 60.55704545 45.63200244 56.5 48.125 C55.3965625 48.80820313 54.293125 49.49140625 53.15625 50.1953125 C50.46802389 51.73239228 47.90456452 52.94872105 45 54 C45.62567871 54.08040527 46.25135742 54.16081055 46.89599609 54.24365234 C49.72355296 54.61200718 52.54921035 54.9933349 55.375 55.375 C56.85226562 55.56449219 56.85226562 55.56449219 58.359375 55.7578125 C59.30039062 55.88671875 60.24140625 56.015625 61.2109375 56.1484375 C62.08024902 56.26364746 62.94956055 56.37885742 63.84521484 56.49755859 C66 57 66 57 68 59 C65.36 59.66 62.72 60.32 60 61 C64.05861617 62.35287206 68.03320181 62.43013249 72.28515625 62.71875 C75 63 75 63 77 64 C77 64.66 77 65.32 77 66 C76.01 66.495 76.01 66.495 75 67 C78.3 68.65 81.6 70.3 85 72 C81.36697426 73.21100858 80.42771083 72.68090621 76.90625 71.375 C75.88587646 71.00173584 74.86550293 70.62847168 73.81420898 70.24389648 C72.72052002 69.83341064 71.62683105 69.4229248 70.5 69 C69.37086182 68.58500244 68.24172363 68.17000488 67.07836914 67.74243164 C63.71529641 66.50445717 60.35691864 65.25455421 57 64 C53.81324875 62.81047534 50.62608838 61.62209218 47.4375 60.4375 C46.70490967 60.16478271 45.97231934 59.89206543 45.2175293 59.61108398 C34.90425073 55.80912215 24.44370701 52.42313313 14 49 C14 48.01 14 47.02 14 46 C16.23046875 44.0625 16.23046875 44.0625 19.1875 42 C20.15042969 41.319375 21.11335937 40.63875 22.10546875 39.9375 C24.69483177 38.20426915 27.322675 36.59190774 30 35 C29.35562988 35.3081665 28.71125977 35.61633301 28.04736328 35.93383789 C25.08403279 37.33432327 22.10523682 38.69838425 19.125 40.0625 C18.11179687 40.54783203 17.09859375 41.03316406 16.0546875 41.53320312 C9.26020872 44.60378488 4.33192121 45.63326828 -3 44 C-3 43.01 -3 42.02 -3 41 C-0.83984375 38.9140625 -0.83984375 38.9140625 2.0625 36.625 C3.00222656 35.87476563 3.94195312 35.12453125 4.91015625 34.3515625 C8.22669403 31.8274718 11.59640724 29.40503558 15 27 C11.22771108 28.95553887 7.45742492 30.91490816 3.6875 32.875 C2.0797168 33.70837891 2.0797168 33.70837891 0.43945312 34.55859375 C-0.58857422 35.09355469 -1.61660156 35.62851563 -2.67578125 36.1796875 C-3.62364502 36.67194824 -4.57150879 37.16420898 -5.5480957 37.67138672 C-8.14161564 39.02847487 -8.14161564 39.02847487 -11 41 C-16.47569935 41.12734185 -21.82525265 39.65151511 -27 38 C-24.96570318 35.79773372 -23.1440784 34.40200776 -20.4375 33.125 C-19.74527344 32.79242188 -19.05304688 32.45984375 -18.33984375 32.1171875 C-17.56769531 31.74851563 -16.79554688 31.37984375 -16 31 C-14.16510329 30.08646678 -12.33177173 29.16978325 -10.5 28.25 C-9 27.5 -7.5 26.75 -6 26 C-7.81408399 26.53633787 -9.6261225 27.07959135 -11.4375 27.625 C-12.62601562 27.98207031 -13.81453125 28.33914062 -15.0390625 28.70703125 C-17.77866157 29.56649986 -20.42859952 30.54996958 -23.0859375 31.63671875 C-32.52388388 35.43389718 -39.48867444 36.36952478 -49.75830078 35.20800781 C-68.06041214 33.50975047 -87.29480034 35.15188948 -104.90234375 40.42578125 C-111.89761329 42.34068744 -118.29873387 40.03582769 -125 38 C-124.34 37.01 -123.68 36.02 -123 35 C-122.34 35 -121.68 35 -121 35 C-121 34.34 -121 33.68 -121 33 C-116.38 30.36 -111.76 27.72 -107 25 C-107 28.10551666 -107.5393715 29.35261084 -109 32 C-108.16339844 31.43152344 -107.32679688 30.86304688 -106.46484375 30.27734375 C-100.09369972 26.02313527 -93.68966891 22.13838249 -86.75 18.875 C-86.10667725 18.56812256 -85.46335449 18.26124512 -84.80053711 17.94506836 C-83.22952098 17.22893505 -81.61695694 16.60530063 -80 16 C-79.34 16.33 -78.68 16.66 -78 17 C-78.48210937 17.45890625 -78.96421875 17.9178125 -79.4609375 18.390625 C-80.09257812 19.00421875 -80.72421875 19.6178125 -81.375 20.25 C-82.00148438 20.85328125 -82.62796875 21.4565625 -83.2734375 22.078125 C-84.98224047 23.98023147 -85.91194745 25.70716895 -87 28 C-86.51233154 27.64284912 -86.02466309 27.28569824 -85.5222168 26.91772461 C-68.98001432 14.82522069 -68.98001432 14.82522069 -60.33984375 9.5 C-57.26941022 7.53164195 -54.41023258 5.3370459 -51.55859375 3.06640625 C-50 2 -50 2 -48 2 C-48 1.34 -48 0.68 -48 0 C-47.01 0.495 -47.01 0.495 -46 1 C-46.33 1.66 -46.66 2.32 -47 3 C-47.66 3 -48.32 3 -49 3 C-49.226875 3.556875 -49.45375 4.11375 -49.6875 4.6875 C-52.93813061 10.41480155 -59.02373122 14.86284021 -63.8125 19.3125 C-64.85180664 20.28026367 -64.85180664 20.28026367 -65.91210938 21.26757812 C-67.60731349 22.84587161 -69.30329254 24.42332302 -71 26 C-61.64048465 21.42623782 -61.64048465 21.42623782 -52.5 16.4375 C-46.59636514 13.07679704 -40.26692844 10.59413396 -34 8 C-35.45649059 11.48324734 -37.30384882 13.34778456 -40.1875 15.75 C-44.55898327 19.51315388 -48.32806432 23.56061796 -52 28 C-50.989375 27.21625 -49.97875 26.4325 -48.9375 25.625 C-36.48320704 16.30081252 -23.31306308 7.38957249 -8.875 1.5 C-8.22273438 1.23219727 -7.57046875 0.96439453 -6.8984375 0.68847656 C-2.2512223 -1.12561115 -2.2512223 -1.12561115 0 0 Z " fill="#F4F4F4" transform="translate(417,113)"/>
<path d="M0 0 C7.14663351 1.49090767 13.22888851 5.56623414 18 11 C18.825 11.928125 19.65 12.85625 20.5 13.8125 C30.17982722 25.74486563 31.46310382 36.06061369 31 51 C27.60029835 47.6521582 24.45231774 44.23512243 21.4296875 40.55078125 C19.88518193 38.75318225 19.88518193 38.75318225 17 37 C17 36.34 17 35.68 17 35 C16.4225 34.731875 15.845 34.46375 15.25 34.1875 C13 33 13 33 10.875 31.375 C9.11872074 29.80287878 9.11872074 29.80287878 7 30 C7.33773437 30.65226562 7.67546875 31.30453125 8.0234375 31.9765625 C8.46945312 32.85054688 8.91546875 33.72453125 9.375 34.625 C9.81585938 35.48351562 10.25671875 36.34203125 10.7109375 37.2265625 C13.69409495 43.64487096 14.33833214 48.94732335 14.3125 55.9375 C14.32861328 56.80568359 14.34472656 57.67386719 14.36132812 58.56835938 C14.36554932 64.15300561 13.56344219 68.02868071 11 73 C9.32271382 70.48407073 8.09159576 68.15721556 6.8125 65.4375 C2.8919877 57.50368221 -2.53700389 47.97533074 -10 43 C-10 42.34 -10 41.68 -10 41 C-10.66 41 -11.32 41 -12 41 C-11.71125 41.76441406 -11.4225 42.52882813 -11.125 43.31640625 C-6.61371338 56.33334786 -6.37477756 68.30524124 -12 81 C-13.22859662 83.44059058 -14.53080819 85.69127001 -16 88 C-16.33 88 -16.66 88 -17 88 C-17.00410889 87.37657715 -17.00821777 86.7531543 -17.01245117 86.11083984 C-17.16823468 72.58384626 -17.85820571 61.28358858 -24 49 C-24.0501123 49.57967529 -24.10022461 50.15935059 -24.15185547 50.7565918 C-24.38497534 53.40099577 -24.62987578 56.04418287 -24.875 58.6875 C-24.99294922 60.05551758 -24.99294922 60.05551758 -25.11328125 61.45117188 C-25.53865157 65.95028103 -25.94423913 69.89711592 -28 74 C-28.66 74 -29.32 74 -30 74 C-30.09796875 73.42894531 -30.1959375 72.85789062 -30.296875 72.26953125 C-33.42577882 55.30332002 -40.01045185 40.52853257 -49.5546875 26.234375 C-50.86691216 24.2057466 -51.9689696 22.18218086 -53 20 C-41.93849628 23.93254861 -36.45218134 33.25441155 -31 43 C-31.495 36.565 -31.495 36.565 -32 30 C-26.3750207 34.38748386 -22.69379408 38.91132843 -19 45 C-20.59979619 36.12269959 -24.43641482 28.90091579 -29.4140625 21.4453125 C-30.77885761 19.34097324 -31.93515253 17.26675452 -33 15 C-23.08095851 19.30551801 -15.24390454 25.12010507 -7 32 C-6.4234668 32.47937012 -5.84693359 32.95874023 -5.25292969 33.45263672 C-3.83393536 34.63346943 -2.41677264 35.81650261 -1 37 C-3.87653035 28.06987593 -8.82688372 20.5639375 -13.87939453 12.75146484 C-15.30118575 10.52925783 -16.6596111 8.27206905 -18 6 C-5.8588817 9.43998352 4.03184279 16.44539266 14 24 C9.70633956 15.72870997 5.43530367 7.59707218 0 0 Z " fill="#F3F3F4" transform="translate(382,375)"/>
<path d="M0 0 C6.84646317 0.29767231 11.35934768 3.30440021 17 7 C17.65097656 7.40089844 18.30195313 7.80179687 18.97265625 8.21484375 C20.35583694 9.08137539 21.68599056 10.03178252 23 11 C23 11.66 23 12.32 23 13 C23.56847656 13.226875 24.13695312 13.45375 24.72265625 13.6875 C32.49464113 18.16672285 37.69131035 27.91641704 41 36 C41.31839844 36.73089844 41.63679688 37.46179688 41.96484375 38.21484375 C45.94735927 48.9511183 45.5043018 62.6385383 41.31640625 73.203125 C34.00696785 88.73297038 23.14752158 101.04168894 6.7890625 107.2109375 C4.04106834 107.98838122 1.83790065 108.16693533 -1 108 C-0.60974704 102.59974282 2.5546999 99.16616143 5.6875 95 C16.23272759 80.50284136 21.5565201 66.44633434 21.375 48.375 C21.38660156 47.21226562 21.39820313 46.04953125 21.41015625 44.8515625 C21.35766031 29.38275756 14.76360988 17.71633186 5 6 C4.48695312 5.37609375 3.97390625 4.7521875 3.4453125 4.109375 C2.30604088 2.73195056 1.15463651 1.36457042 0 0 Z " fill="#040404" transform="translate(114,106)"/>
<path d="M0 0 C1.05832031 -0.01933594 2.11664063 -0.03867187 3.20703125 -0.05859375 C6.89879564 0.5558939 8.53812466 1.83988865 11.1875 4.4375 C13.1420995 8.61323529 13.21620863 11.03194349 12.1875 15.4375 C2.39878467 18.006308 -7.49356151 19.57297385 -17.49194336 21.07910156 C-18.5516333 21.24120117 -19.61132324 21.40330078 -20.703125 21.5703125 C-21.66250977 21.71355957 -22.62189453 21.85680664 -23.61035156 22.00439453 C-25.77927444 22.21848779 -25.77927444 22.21848779 -26.8125 23.4375 C-32.81113496 24.85932178 -38.6535556 25.71123086 -44.8125 25.4375 C-44.8125 26.0975 -44.8125 26.7575 -44.8125 27.4375 C-31.332211 25.12186471 -31.332211 25.12186471 -18.0625 21.875 C-13.38175908 20.51072608 -8.66642592 19.56539146 -3.875 18.6875 C-3.13991211 18.54755615 -2.40482422 18.4076123 -1.64746094 18.26342773 C4.7947005 17.12644432 4.7947005 17.12644432 8.1875 18.4375 C-0.95509309 24.40817304 -12.51508772 25.91099738 -23.12109375 27.78515625 C-26.13295292 28.31741073 -29.12880094 28.88746485 -32.125 29.5 C-32.888125 29.65210938 -33.65125 29.80421875 -34.4375 29.9609375 C-36.18910412 30.31241069 -37.93884973 30.67317644 -39.6875 31.0390625 C-40.656875 31.23242188 -41.62625 31.42578125 -42.625 31.625 C-43.49769531 31.80417969 -44.37039062 31.98335938 -45.26953125 32.16796875 C-48.05534129 32.46323894 -50.12409017 32.1990632 -52.8125 31.4375 C-54.625 29.875 -54.625 29.875 -55.8125 28.4375 C-55.626875 29.241875 -55.44125 30.04625 -55.25 30.875 C-55.105625 31.720625 -54.96125 32.56625 -54.8125 33.4375 C-55.8125 34.4375 -55.8125 34.4375 -58.375 34.5 C-59.179375 34.479375 -59.98375 34.45875 -60.8125 34.4375 C-61.1425 33.4475 -61.4725 32.4575 -61.8125 31.4375 C-62.1425 32.7575 -62.4725 34.0775 -62.8125 35.4375 C-64.1325 35.4375 -65.4525 35.4375 -66.8125 35.4375 C-66.8125 33.4575 -66.8125 31.4775 -66.8125 29.4375 C-67.4725 29.4375 -68.1325 29.4375 -68.8125 29.4375 C-68.8125 31.0875 -68.8125 32.7375 -68.8125 34.4375 C-70.7925 34.9325 -70.7925 34.9325 -72.8125 35.4375 C-72.77769531 34.880625 -72.74289063 34.32375 -72.70703125 33.75 C-72.46539176 26.93806771 -73.25867155 21.21022804 -78 16.0625 C-78.598125 15.52625 -79.19625 14.99 -79.8125 14.4375 C-79.8125 13.7775 -79.8125 13.1175 -79.8125 12.4375 C-78.96993652 12.34251221 -78.12737305 12.24752441 -77.25927734 12.1496582 C-61.58209305 10.36358278 -45.94545044 8.44391834 -30.375 5.875 C-29.15796387 5.67753174 -27.94092773 5.48006348 -26.68701172 5.27661133 C-20.6146982 4.24646399 -14.8572139 2.91302121 -8.99047852 1.05053711 C-5.96904002 0.20009074 -3.13076951 0.00386038 0 0 Z " fill="#F3F3F3" transform="translate(182.8125,300.5625)"/>
<path d="M0 0 C0.83144531 0.00451172 1.66289062 0.00902344 2.51953125 0.01367188 C4.55471897 0.02536836 6.58986923 0.04330065 8.625 0.0625 C7.92878061 5.43811702 6.78259028 10.49123523 5.34375 15.70703125 C3.52274044 24.20837478 3.41718931 32.83537071 3.375 41.5 C3.354375 42.55509766 3.33375 43.61019531 3.3125 44.69726562 C3.26608486 54.12534119 5.40046876 62.23055799 8.75 71 C9.8916458 74.00456395 10.91198017 76.92666788 11.625 80.0625 C0.46273572 76.46241837 -7.29176844 63.91577824 -12.375 54.0625 C-13.96845608 50.45522827 -15.24192466 46.83757541 -16.375 43.0625 C-16.64957031 42.19238281 -16.92414063 41.32226562 -17.20703125 40.42578125 C-20.76549912 28.41814335 -21.71577256 16.51963033 -21.375 4.0625 C-14.21683285 0.14255132 -7.95669657 -0.08248569 0 0 Z " fill="#F8F8F8" transform="translate(342.375,168.9375)"/>
<path d="M0 0 C7.37662435 0.84304278 12.19637772 6.64188354 16.7578125 12.10546875 C20.95178792 18.49229418 20.90650164 25.57622868 20 33 C19.34 33.99 18.68 34.98 18 36 C17.64808594 35.40832031 17.29617188 34.81664062 16.93359375 34.20703125 C13.53347856 28.76507144 10.45608967 25.3827756 5 22 C5.495 22.99 5.99 23.98 6.5 25 C8.30103581 29.13477234 8.23515871 32.53198453 8 37 C5.14494449 35.67309094 2.82165128 34.16043795 0.375 32.1875 C-4.09148424 28.75757719 -8.90515344 26.35949861 -14 24 C-13.401875 25.134375 -12.80375 26.26875 -12.1875 27.4375 C-6.91649914 38.09204979 -5.66077839 46.52142573 -9 58 C-11.28935328 55.91056207 -12.57337813 54.07904537 -13.8125 51.25 C-15.63321148 47.41021159 -17.92872651 44.53130594 -20.828125 41.4453125 C-22 40 -22 40 -22 38 C-22.556875 37.7525 -23.11375 37.505 -23.6875 37.25 C-26.39971127 35.78393985 -28.63587365 33.97010529 -31 32 C-30.7525 33.85625 -30.7525 33.85625 -30.5 35.75 C-29.53264743 44.7833659 -29.13651665 52.6291194 -33 61 C-34.95629601 58.06555599 -35.62405533 56.0377928 -36.5625 52.6875 C-40.11035143 41.76594242 -47.06874667 32.21177997 -55 24 C-51.08978232 24 -50.04665804 25.29087428 -47.0625 27.75 C-46.20785156 28.44609375 -45.35320312 29.1421875 -44.47265625 29.859375 C-42.19810998 31.82849247 -40.01963331 33.76950011 -38 36 C-38 36.66 -38 37.32 -38 38 C-37.34 38 -36.68 38 -36 38 C-38.37699042 30.51947132 -41.32300976 24.31393682 -46 18 C-45.67 17.34 -45.34 16.68 -45 16 C-35.18604234 21.01138264 -26.56340086 27.09403156 -18 34 C-20.96899861 27.29120506 -24.51248948 21.74898481 -29.23046875 16.12890625 C-31 14 -31 14 -33 11 C-25.44092051 12.06201943 -19.50911954 14.41280458 -12.875 18.125 C-12.01390625 18.59292969 -11.1528125 19.06085938 -10.265625 19.54296875 C-8.17035344 20.68372771 -6.08240944 21.83597994 -4 23 C-6.52606169 18.31288096 -9.09676563 14.48435454 -12.75 10.5625 C-13.54921875 9.69753906 -14.3484375 8.83257812 -15.171875 7.94140625 C-15.77515625 7.30074219 -16.3784375 6.66007812 -17 6 C-16.34 5.67 -15.68 5.34 -15 5 C-5.79121636 8.69604241 2.22537568 13.8913666 10 20 C9.44570313 18.89140625 8.89140625 17.7828125 8.3203125 16.640625 C5.546875 11.09375 2.7734375 5.546875 0 0 Z " fill="#F0F0F0" transform="translate(461,356)"/>
<path d="M0 0 C13.05272085 6.04327714 21.07625483 17.27491778 27 30 C27.54333984 31.00160156 27.54333984 31.00160156 28.09765625 32.0234375 C29.33098224 34.72500871 29.13317888 37.07006465 29 40 C26.18451494 38.1477072 23.39379646 36.28287712 20.65625 34.31640625 C15.59573306 30.68501678 10.654116 27.61764629 5 25 C5.38671875 25.60585938 5.7734375 26.21171875 6.171875 26.8359375 C12.22566196 36.57594127 18.93357384 49.17473131 18 61 C14.51888678 58.28303358 11.60703318 55.60979063 8.8125 52.1875 C4.58510964 47.18889654 -0.6166147 43.66031261 -6 40 C-6.13086649 43.15421116 -6.13086649 43.15421116 -5 46.6875 C-2.56232646 57.43781567 -3.31725517 68.65324072 -7 79 C-7.66 78.67 -8.32 78.34 -9 78 C-9.45986726 76.39194803 -9.84212653 74.7614676 -10.1875 73.125 C-12.75113891 63.20371743 -19.27258431 55.43999084 -25.3984375 47.41015625 C-26.88320045 45.17576908 -27.57464101 43.61899604 -28 41 C-24.10082032 42.61537444 -21.28706228 45.27924873 -18.25 48.125 C-17.74339844 48.59292969 -17.23679687 49.06085938 -16.71484375 49.54296875 C-15.47280859 50.69126541 -14.23588506 51.84508672 -13 53 C-12.97104024 49.87501937 -12.95321517 46.7500731 -12.9375 43.625 C-12.92912109 42.73554688 -12.92074219 41.84609375 -12.91210938 40.9296875 C-12.90888672 40.07890625 -12.90566406 39.228125 -12.90234375 38.3515625 C-12.89710693 37.56604004 -12.89187012 36.78051758 -12.88647461 35.97119141 C-12.87426047 33.92227332 -12.87426047 33.92227332 -14 32 C-14.039992 30.00039988 -14.04346799 27.99952758 -14 26 C-12.10119204 27.07811106 -10.20608022 28.16273319 -8.3125 29.25 C-7.25675781 29.85328125 -6.20101562 30.4565625 -5.11328125 31.078125 C-2.20613677 32.8727487 0.38523131 34.80728117 3 37 C0.25045248 30.7194546 -3.14208271 25.11773578 -7.125 19.5625 C-7.5566748 18.95970215 -7.98834961 18.3569043 -8.43310547 17.73583984 C-10.11502845 15.42799427 -11.77165117 13.22587752 -13.8046875 11.21484375 C-15 10 -15 10 -15 8 C-5.29413898 10.88552625 3.47557375 15.6190715 12 21 C9.10820143 14.61672114 5.86090746 9.19212831 1.35546875 3.8125 C0 2 0 2 0 0 Z " fill="#F0F0F0" transform="translate(537,279)"/>
<path d="M0 0 C4.33734059 0.76343906 8.49241932 1.99678833 12.6875 3.3125 C13.34427734 3.51294922 14.00105469 3.71339844 14.67773438 3.91992188 C18.37263566 5.07301667 21.95968719 6.36600528 25.5390625 7.83984375 C31.77367753 10.37483643 38.15577503 12.44816388 44.54641724 14.54663086 C48.20263578 15.7477387 51.85520695 16.95983243 55.5078125 18.171875 C56.2332576 18.41244629 56.9587027 18.65301758 57.70613098 18.90087891 C64.17580037 21.0502058 70.62482337 23.2566079 77.0625 25.5 C77.96379639 25.81356445 78.86509277 26.12712891 79.79370117 26.45019531 C84.88914699 28.23294378 89.95238629 30.08599156 95 32 C95 32.66 95 33.32 95 34 C88.57897296 34.31033733 83.42912982 33.26024281 77.3125 31.375 C75.46364941 30.82515842 73.6146876 30.27569068 71.765625 29.7265625 C70.82009766 29.44200195 69.87457031 29.15744141 68.90039062 28.86425781 C64.13493512 27.44424834 59.34768105 26.10171737 54.5625 24.75 C49.33249695 23.27122839 44.1534861 21.7295465 39 20 C36.5451086 19.27982843 34.08665686 18.57169534 31.625 17.875 C30.37976563 17.52179688 29.13453125 17.16859375 27.8515625 16.8046875 C26.91054688 16.53914063 25.96953125 16.27359375 25 16 C26.82884368 16.71121699 28.65769403 17.42241682 30.48657227 18.13354492 C32.09654524 18.75972781 33.70640619 19.3861988 35.31616211 20.01293945 C39.50380954 21.64289131 43.69302243 23.26848131 47.88671875 24.8828125 C55.33986467 27.75662981 62.74747495 30.64234951 70 34 C65.32317146 35.51292 61.85890089 33.79078793 57.4375 32.125 C55.65832186 31.47834687 53.87832503 30.83394326 52.09765625 30.19140625 C51.13102051 29.84094238 50.16438477 29.49047852 49.16845703 29.12939453 C43.26507827 27.02513886 37.3197075 25.04631121 31.375 23.0625 C30.18318115 22.66111816 28.9913623 22.25973633 27.76342773 21.84619141 C26.09775757 21.2900415 26.09775757 21.2900415 24.3984375 20.72265625 C23.40505371 20.39015869 22.41166992 20.05766113 21.38818359 19.71508789 C19.09616503 18.9043851 19.09616503 18.9043851 17 19 C26.40435906 23.50408328 35.81667726 27.95590034 45.375 32.125 C52.81041998 35.37616746 59.93534845 39.00585072 67 43 C63.2574823 44.2475059 61.98355501 43.54732546 58.3125 42.25 C57.31863281 41.90453125 56.32476563 41.5590625 55.30078125 41.203125 C52.90707451 40.33062598 50.52047353 39.44569664 48.13671875 38.546875 C43.94591429 36.96876035 39.72688455 35.47825471 35.5 34 C31.32186275 32.53879353 27.15148103 31.06714106 23.01171875 29.5 C20.24707107 28.45535084 17.4710092 27.45986365 14.67578125 26.5 C13.95712891 26.2525 13.23847656 26.005 12.49804688 25.75 C11.03052709 25.24640072 9.56175098 24.74644888 8.09179688 24.25 C-0.21363924 21.37417722 -0.21363924 21.37417722 -3 19 C-3.65764751 14.53558518 -2.56364762 10.4682278 -1.5 6.125 C-1.2215625 4.97257813 -0.943125 3.82015625 -0.65625 2.6328125 C-0.33140625 1.32957031 -0.33140625 1.32957031 0 0 Z " fill="#F1F1F1" transform="translate(476,189)"/>
<path d="M0 0 C5.42879891 1.94926672 9.35169135 5.62227375 12.15625 10.625 C14.28876563 16.62763658 13.96843758 23.39932824 11.5 29.25 C11.005 30.1575 10.51 31.065 10 32 C10.99 31.34 11.98 30.68 13 30 C11.56179187 35.03372844 9.09754485 36.98955889 5 40 C-0.01049313 41.67016438 -3.67638207 41.55731281 -8.5625 39.5 C-14.86122157 35.46598731 -18.49476991 29.22722703 -20.53125 22.16015625 C-21.87632553 15.96159985 -20.98354458 11.55556578 -18 6 C-12.40721161 -0.27483576 -8.2243928 -0.95580781 0 0 Z " fill="#050505" transform="translate(77,312)"/>
<path d="M0 0 C0.82371094 -0.01160156 1.64742187 -0.02320313 2.49609375 -0.03515625 C7.25640232 -0.01215959 10.33700323 0.36867321 14.25 3.375 C13.76987448 7.94000299 13.76987448 7.94000299 11.52734375 9.81640625 C6.16655709 12.38493007 0.95267999 14.04328107 -4.8125 15.375 C-14.17199508 17.55504039 -21.29609086 20.57059117 -27.42578125 28.21484375 C-29.69373931 31.91449215 -30.26273474 35.07911437 -29.75 39.375 C-28.86262001 42.22438528 -27.8073633 44.95003285 -26.67578125 47.7109375 C-25.37556273 51.45249459 -25.45400258 54.45303423 -25.75 58.375 C-26.74 58.87 -26.74 58.87 -27.75 59.375 C-28.07871094 58.55708984 -28.07871094 58.55708984 -28.4140625 57.72265625 C-30.59096282 52.54588109 -33.15325299 48.01130597 -36.3828125 43.41796875 C-40.33678212 37.50960843 -40.46528856 32.40112562 -39.75 25.375 C-37.09803822 16.10107379 -29.59090538 9.44360335 -21.5703125 4.69921875 C-14.34237421 1.30549149 -7.9817161 -0.11457009 0 0 Z " fill="#070707" transform="translate(108.75,235.625)"/>
<path d="M0 0 C0.99 0.33 1.98 0.66 3 1 C2.57847656 1.60328125 2.15695312 2.2065625 1.72265625 2.828125 C1.17480469 3.62734375 0.62695312 4.4265625 0.0625 5.25 C-0.75541016 6.43335937 -0.75541016 6.43335937 -1.58984375 7.640625 C-2.89622441 9.82636993 -3.54980511 11.5153801 -4 14 C-3.17757812 13.40832031 -2.35515625 12.81664063 -1.5078125 12.20703125 C16.95229573 -0.93034299 16.95229573 -0.93034299 27 0 C23.75859576 2.68955227 20.50859808 4.94199724 16.875 7.0625 C5.53675754 14.30258254 -1.34798735 23.4177495 -8.11694336 34.80175781 C-8.59526611 35.60323242 -9.07358887 36.40470703 -9.56640625 37.23046875 C-9.98865479 37.95645264 -10.41090332 38.68243652 -10.84594727 39.43041992 C-11.22678467 39.94838135 -11.60762207 40.46634277 -12 41 C-12.66 41 -13.32 41 -14 41 C-14.33854043 34.73700212 -13.37166065 30.26890429 -11 24.5 C-10.57074219 23.40945312 -10.57074219 23.40945312 -10.1328125 22.296875 C-9.43395426 20.52643412 -8.71868368 18.76248618 -8 17 C-13.98905963 21.64457686 -17.83124185 26.7147954 -22 33 C-23.30768669 34.87836013 -24.62002315 36.75349365 -25.9375 38.625 C-26.52402344 39.46289062 -27.11054688 40.30078125 -27.71484375 41.1640625 C-28.35099609 42.07285156 -28.35099609 42.07285156 -29 43 C-31 41 -31 41 -31.1953125 38.1796875 C-31.17210937 37.08914062 -31.14890625 35.99859375 -31.125 34.875 C-31.10695313 33.77929688 -31.08890625 32.68359375 -31.0703125 31.5546875 C-31.04710937 30.71164063 -31.02390625 29.86859375 -31 29 C-33.81078206 31.47616514 -35.2909245 34.18866622 -37 37.5 C-38.7090755 40.81133378 -40.18921794 43.52383486 -43 46 C-42.70067471 38.83115924 -41.37381426 33.32082069 -38 27 C-37.46890625 25.99195312 -36.9378125 24.98390625 -36.390625 23.9453125 C-33.21486451 18.19802914 -30.45508465 13.72542367 -25 10 C-24 12 -24 12 -24.55859375 13.91796875 C-25.13980733 15.41879137 -25.72310712 16.91880792 -26.30859375 18.41796875 C-27.17868847 21.66730552 -27.10219789 24.65199715 -27 28 C-26.00419922 26.58847656 -26.00419922 26.58847656 -24.98828125 25.1484375 C-24.0964835 23.8905333 -23.2045491 22.63272597 -22.3125 21.375 C-21.87744141 20.75753906 -21.44238281 20.14007813 -20.99414062 19.50390625 C-16.81605502 13.62363763 -12.8912307 8.26144508 -6.8125 4.1875 C-5.95269531 3.60355469 -5.09289062 3.01960938 -4.20703125 2.41796875 C-2 1 -2 1 0 0 Z " fill="#EFEFEF" transform="translate(436,61)"/>
<path d="M0 0 C0.66 0 1.32 0 2 0 C2.17015625 1.19753906 2.3403125 2.39507812 2.515625 3.62890625 C6.36490401 29.86143116 13.31757534 57.02756452 35.6875 73.75 C47.40688434 81.48369669 59.91763632 85.36049644 73.875 85.3125 C74.80441406 85.32861328 75.73382813 85.34472656 76.69140625 85.36132812 C86.96291278 85.36849096 96.19771168 82.90094093 104 76 C110.14561886 69.14441796 113.87780193 61.60105527 117 53 C118.85861921 58.57585762 115.46353098 64.83838373 113 70 C106.0930614 81.25186744 96.70073434 86.62870938 84.1875 89.6875 C64.1733572 91.64967086 44.80278036 86.57910334 29 74 C15.87834771 62.87469954 7.11429527 47.70907656 2.75 31.1875 C2.48622559 30.19226318 2.22245117 29.19702637 1.95068359 28.17163086 C-0.38087054 18.69545335 -0.61080413 9.69368771 0 0 Z " fill="#E7E7E7" transform="translate(309,180)"/>
<path d="M0 0 C-0.06851669 0.65470779 -0.13703339 1.30941559 -0.20762634 1.98396301 C-0.89930309 9.00050381 -1.20281762 15.96419299 -1.31640625 23.01171875 C-1.33718735 24.10595657 -1.35796844 25.2001944 -1.37937927 26.32759094 C-1.44412061 29.78083773 -1.50340451 33.23415245 -1.5625 36.6875 C-1.60575717 39.04623064 -1.64937359 41.40495471 -1.69335938 43.76367188 C-1.7997232 49.50904535 -1.90162134 55.25448453 -2 61 C-8.23690262 55.21339214 -8.84448278 45.07509758 -9.22460938 36.95166016 C-9.38579239 32.38466019 -9.42530632 27.81950505 -9.4375 23.25 C-9.44349213 22.48799286 -9.44948425 21.72598572 -9.45565796 20.94088745 C-9.4671822 18.73608472 -9.45502213 16.53283079 -9.43359375 14.328125 C-9.42384521 13.0380957 -9.41409668 11.74806641 -9.40405273 10.41894531 C-8.9725662 6.76786527 -8.2201504 4.89752316 -6 2 C-3 0 -3 0 0 0 Z " fill="#E8E8E8" transform="translate(241,145)"/>
<path d="M0 0 C3.06054553 0.86323079 6.05563123 1.4410306 9.19921875 1.90234375 C8.86921875 2.89234375 8.53921875 3.88234375 8.19921875 4.90234375 C1.76865552 5.2960517 -3.96773837 4.1647784 -10.23828125 2.75390625 C-21.85923431 0.42775854 -33.45396632 -0.43067051 -45.28295898 -0.35839844 C-47.36666806 -0.34763876 -49.44951905 -0.35840175 -51.53320312 -0.37109375 C-60.77833375 -0.37922885 -69.66635874 0.45377101 -78.80078125 1.90234375 C-78.47078125 1.24234375 -78.14078125 0.58234375 -77.80078125 -0.09765625 C-75.2550455 -0.88392662 -72.76449009 -1.55335552 -70.17578125 -2.16015625 C-69.12583984 -2.42022461 -69.12583984 -2.42022461 -68.0546875 -2.68554688 C-46.35269995 -7.93992419 -21.36014342 -6.33867638 0 0 Z " fill="#ECECEB" transform="translate(388.80078125,161.09765625)"/>
<path d="M0 0 C0.99 0.495 0.99 0.495 2 1 C-9.10845867 10.23402959 -22.87481759 13.8359821 -36.41967773 18.13378906 C-38.99038268 18.99677148 -41.49263443 19.96870154 -44 21 C-43.01 19.68 -42.02 18.36 -41 17 C-41.69867188 17.44472656 -42.39734375 17.88945312 -43.1171875 18.34765625 C-44.02726562 18.91355469 -44.93734375 19.47945312 -45.875 20.0625 C-46.77992188 20.63097656 -47.68484375 21.19945312 -48.6171875 21.78515625 C-49.40351563 22.18605469 -50.18984375 22.58695313 -51 23 C-51.66 22.67 -52.32 22.34 -53 22 C-57.52979496 22.60789456 -60.99792037 25.39925436 -64.7578125 27.8203125 C-65.86769531 28.40425781 -65.86769531 28.40425781 -67 29 C-67.66 28.67 -68.32 28.34 -69 28 C-58.32619921 19.20291144 -46.22022705 11.81112913 -32.0625 10.6875 C-21.68951779 9.67679917 -11.26957908 5.47740093 -2.0390625 0.8203125 C-1.36617188 0.54960937 -0.69328125 0.27890625 0 0 Z " fill="#111111" transform="translate(279,208)"/>
<path d="M0 0 C10.723796 2.74969128 19.40146 10.91238971 26.38671875 19.13671875 C28.07706634 21.14214436 28.07706634 21.14214436 30.4375 23.375 C32 25 32 25 32 27 C18.18943433 26.93360305 5.37368863 20.28088401 -6 13 C-4 12 -4 12 -0.76953125 12.9609375 C0.55205318 13.42502567 1.87098194 13.89672871 3.1875 14.375 C8.15023143 16.17244701 12.74293056 17.41360834 18 18 C10.63574152 10.44401391 10.63574152 10.44401391 2.8125 3.375 C1.884375 2.59125 0.95625 1.8075 0 1 C0 0.67 0 0.34 0 0 Z " fill="#EAEAEA" transform="translate(600,316)"/>
<path d="M0 0 C4.18102178 4.18102178 5.06435497 8.39868648 5.23046875 14.19140625 C5.22654127 15.6485026 5.21210532 17.10560612 5.1875 18.5625 C5.18685547 19.29146484 5.18621094 20.02042969 5.18554688 20.77148438 C5.15171138 24.94828863 4.81220103 28.88701397 4 33 C3.34 33 2.68 33 2 33 C1.77828125 32.45214844 1.5565625 31.90429688 1.328125 31.33984375 C-1.77755538 24.41957769 -6.03075256 18.92674612 -10.89746094 13.17944336 C-11.41083008 12.56593018 -11.92419922 11.95241699 -12.453125 11.3203125 C-12.91879883 10.77648926 -13.38447266 10.23266602 -13.86425781 9.67236328 C-15.13406488 7.80259149 -15.58041467 6.20673031 -16 4 C-9.76891932 6.01431027 -6.45334651 10.34724991 -2 15 C-1.34 10.05 -0.68 5.1 0 0 Z " fill="#EDEDEE" transform="translate(492,344)"/>
<path d="M0 0 C1.93359375 -0.03867188 1.93359375 -0.03867188 3.90625 -0.078125 C7.66178705 0.26477186 9.56409084 0.92385659 12.5 3.25 C12.5 3.91 12.5 4.57 12.5 5.25 C9.28247471 6.85876265 5.78159925 6.64590948 2.2265625 6.87109375 C-0.50599255 7.25083278 -2.19809761 7.75427047 -4.5 9.25 C-5.49 10.735 -5.49 10.735 -6.5 12.25 C-7.93861294 12.16253716 -9.37597508 12.05434652 -10.8125 11.9375 C-11.61300781 11.87949219 -12.41351563 11.82148438 -13.23828125 11.76171875 C-15.89066259 11.16161175 -16.86503879 10.39291033 -18.5 8.25 C-18.5 6.25 -18.5 6.25 -17.5 4.25 C-12.08063449 0.18547587 -6.59873829 0.07918486 0 0 Z " fill="#F3F3F3" transform="translate(183.5,245.75)"/>
<path d="M0 0 C5.62033527 5.11399875 8.96732991 12.05246772 9.45703125 19.6171875 C9.75345911 32.41536318 9.75345911 32.41536318 7 38 C4.88927515 34.83391272 4.1442158 32.25793232 3.0625 28.625 C0.15637335 20.17081338 -4.91740175 14.41282688 -11 8 C-7.00717059 8 -5.84668408 9.47808076 -2.8125 12 C-1.91144531 12.7425 -1.01039063 13.485 -0.08203125 14.25 C0.60503906 14.8275 1.29210937 15.405 2 16 C1.50130596 10.63108121 0.97772468 5.30764827 0 0 Z " fill="#E9E9EA" transform="translate(505,331)"/>
<path d="M0 0 C17.88509279 -1.44234619 38.11334183 6.99089592 51.6953125 18.23046875 C53.83054575 20.12138848 55.93294855 22.03502517 58 24 C57.67 25.32 57.34 26.64 57 28 C53.3334 27.43590769 51.87733843 26.10466805 49.4375 23.375 C36.78166536 10.34693493 17.49978426 4.28527548 0 1 C0 0.67 0 0.34 0 0 Z " fill="#E6E6E6" transform="translate(223,130)"/>
<path d="M0 0 C-0.75023437 0.54527344 -1.50046875 1.09054688 -2.2734375 1.65234375 C-14.58040066 10.71981661 -25.2778963 21.13884884 -36 32 C-37 29 -37 29 -35.5 25.875 C-29.18973666 15.63162732 -14.01768646 -4.0554313 0 0 Z " fill="#E9E9E9" transform="translate(479,70)"/>
<path d="M0 0 C3.79342979 0.44445209 7.58429779 0.90789925 11.375 1.375 C12.99535156 1.56449219 12.99535156 1.56449219 14.6484375 1.7578125 C16.1953125 1.95117188 16.1953125 1.95117188 17.7734375 2.1484375 C18.72653809 2.26364746 19.67963867 2.37885742 20.66162109 2.49755859 C23 3 23 3 25 5 C22.36 5.66 19.72 6.32 17 7 C21.05861617 8.35287206 25.03320181 8.43013249 29.28515625 8.71875 C32 9 32 9 34 10 C34 10.66 34 11.32 34 12 C33.34 12.33 32.68 12.66 32 13 C35.3 14.65 38.6 16.3 42 18 C38.32186855 19.22604382 37.30375087 18.63332903 33.73046875 17.3046875 C32.68238037 16.92046631 31.63429199 16.53624512 30.55444336 16.14038086 C29.44335205 15.72280518 28.33226074 15.30522949 27.1875 14.875 C24.92190831 14.04027416 22.6562835 13.20563823 20.390625 12.37109375 C19.29427734 11.96358887 18.19792969 11.55608398 17.06835938 11.13623047 C13.20253513 9.70469434 9.32311075 8.31421254 5.4375 6.9375 C4.36371094 6.55464844 3.28992188 6.17179688 2.18359375 5.77734375 C1.46300781 5.52082031 0.74242187 5.26429688 0 5 C0 3.35 0 1.7 0 0 Z " fill="#DDDDDD" transform="translate(460,167)"/>
<path d="M0 0 C0.33 0 0.66 0 1 0 C1.59294674 11.66128581 -0.71979176 24.01005871 -8.25 33.1875 C-11.52916354 36.75845352 -14.5630037 39.0374824 -19 41 C-19.99 40.67 -20.98 40.34 -22 40 C-21.1646875 39.06994141 -21.1646875 39.06994141 -20.3125 38.12109375 C-10.49944429 26.73330782 -4.56510098 14.24399297 0 0 Z " fill="#E5E5E5" transform="translate(416,215)"/>
<path d="M0 0 C1.85861921 5.57585762 -1.53646902 11.83838373 -4 17 C-10.9069386 28.25186744 -20.29926566 33.62870938 -32.8125 36.6875 C-37.86901838 37.1832371 -42.92380416 37.07392518 -48 37 C-48 36.67 -48 36.34 -48 36 C-43.05 35.505 -43.05 35.505 -38 35 C-41.63 34.67 -45.26 34.34 -49 34 C-49 33.67 -49 33.34 -49 33 C-47.88882812 32.96261719 -46.77765625 32.92523438 -45.6328125 32.88671875 C-33.45128473 32.38920586 -22.53515323 31.43361928 -13 23 C-6.85438114 16.14441796 -3.12219807 8.60105527 0 0 Z " fill="#E4E4E4" transform="translate(426,233)"/>
<path d="M0 0 C-9.13229678 5.96394892 -20.67818442 7.47131872 -31.2734375 9.33984375 C-35.25836219 10.04576856 -39.21826135 10.84211211 -43.1796875 11.66796875 C-45 12 -45 12 -47 12 C-46.67 10.68 -46.34 9.36 -46 8 C-21.82214675 1.99269975 -21.82214675 1.99269975 -11.1875 0.0625 C-10.50824463 -0.06552002 -9.82898926 -0.19354004 -9.12915039 -0.32543945 C-5.81656644 -0.89578148 -3.193564 -1.16641506 0 0 Z " fill="#E5E5E5" transform="translate(191,319)"/>
<path d="M0 0 C7.13794647 0.26935647 14.81088602 2.81088602 20 8 C20.04080783 9.99958364 20.04254356 12.00045254 20 14 C16.40155534 14.31473277 14.49181903 14.30063715 11.3671875 12.390625 C10.54476562 11.68421875 9.72234375 10.9778125 8.875 10.25 C8.04742187 9.55390625 7.21984375 8.8578125 6.3671875 8.140625 C1.98893805 4.18141593 1.98893805 4.18141593 0 2 C0 1.34 0 0.68 0 0 Z " fill="#0A0A0A" transform="translate(242,289)"/>
<path d="M0 0 C0 0.99 0 1.98 0 3 C-1.83800383 4.6364951 -3.63869732 6.06360653 -5.625 7.5 C-6.80929631 8.38186978 -7.99286326 9.26471973 -9.17578125 10.1484375 C-9.79791504 10.60959961 -10.42004883 11.07076172 -11.06103516 11.54589844 C-14.35529847 14.01638853 -17.58171657 16.57240581 -20.8125 19.125 C-22.00645185 20.06517855 -23.20045702 21.00528938 -24.39453125 21.9453125 C-25.68423828 22.96238281 -25.68423828 22.96238281 -27 24 C-27.66 23.67 -28.32 23.34 -29 23 C-27.89847594 21.56047403 -26.7936696 20.12345929 -25.6875 18.6875 C-25.07261719 17.88699219 -24.45773437 17.08648437 -23.82421875 16.26171875 C-22.29206904 14.36211558 -20.844091 12.59614599 -19 11 C-18.34 11 -17.68 11 -17 11 C-17 10.34 -17 9.68 -17 9 C-11.877844 4.74339351 -6.28288964 2.05621843 0 0 Z " fill="#E2E2E2" transform="translate(487,82)"/>
<path d="M0 0 C0.66 0 1.32 0 2 0 C2.01458252 0.62229492 2.02916504 1.24458984 2.04418945 1.88574219 C2.35822952 13.98127818 2.94355046 25.82505702 5.0715332 37.75292969 C5.72657869 41.5134199 6.11016108 44.34287908 5 48 C-2.10757782 33.78484435 -3.15443617 15.46691284 0 0 Z " fill="#BDBDBD" transform="translate(224,161)"/>
<path d="M0 0 C3.00131187 1.39298555 5.51057409 3.03955068 8.125 5.0625 C10.93627263 7.23226195 10.93627263 7.23226195 14 9 C13.67 7.68 13.34 6.36 13 5 C13.66 5 14.32 5 15 5 C16.47265625 7.01171875 16.47265625 7.01171875 18.0625 9.6875 C18.58972656 10.55761719 19.11695313 11.42773438 19.66015625 12.32421875 C20.96711737 14.9343306 21.58056486 17.12609257 22 20 C13.62442253 17.05884356 6.01106455 10.30395017 1 3 C0.67 2.01 0.34 1.02 0 0 Z " fill="#E5E5E5" transform="translate(564,330)"/>
<path d="M0 0 C4.19469571 0.59924224 8.00999834 1.57499941 12 3 C12.9739744 13.02111443 10.08136467 21.61284264 7 31 C6.34 30.67 5.68 30.34 5 30 C5.32742188 29.02933594 5.65484375 28.05867188 5.9921875 27.05859375 C7.23781217 22.6989074 7.2253404 18.56624028 7.125 14.0625 C7.11597656 13.28326172 7.10695313 12.50402344 7.09765625 11.70117188 C7.07433691 9.80064553 7.03847586 7.90027992 7 6 C3.535 4.02 3.535 4.02 0 2 C0 1.34 0 0.68 0 0 Z " fill="#E1E1E1" transform="translate(440,177)"/>
<path d="M0 0 C0.33 0.66 0.66 1.32 1 2 C0.154375 2.4125 -0.69125 2.825 -1.5625 3.25 C-4.04379911 4.51320682 -6.37470329 5.81585859 -8.75 7.25 C-9.8225 7.8275 -10.895 8.405 -12 9 C-12.66 8.67 -13.32 8.34 -14 8 C-18.52979496 8.60789456 -21.99792037 11.39925436 -25.7578125 13.8203125 C-26.49773437 14.20960938 -27.23765625 14.59890625 -28 15 C-28.66 14.67 -29.32 14.34 -30 14 C-8.30671645 -3.87907985 -8.30671645 -3.87907985 0 0 Z " fill="#131313" transform="translate(240,222)"/>
<path d="M0 0 C5.08812429 -0.36280538 7.24753317 1.12493648 11.12890625 4.19921875 C13.88269148 6.84952144 15.35183721 9.56632753 17 13 C12.58623123 13.66206532 10.29907095 12.81498196 6.8125 10.25 C4.06196787 8.10165538 1.87947803 5.95595926 0 3 C0 2.01 0 1.02 0 0 Z " fill="#10100F" transform="translate(215,291)"/>
<path d="M0 0 C-0.33 0.66 -0.66 1.32 -1 2 C-2.84774777 2.2765191 -4.6989131 2.53769996 -6.55761719 2.72705078 C-11.11549051 3.23641727 -15.61431333 4.11875863 -20.125 4.9375 C-21.08792969 5.10701172 -22.05085938 5.27652344 -23.04296875 5.45117188 C-27.85687159 6.32191221 -32.38294038 7.34663987 -37 9 C-42.71785873 10.43167406 -48.10771155 11.25618645 -54 11 C-54 10.34 -54 9.68 -54 9 C-52.77023438 8.80664062 -51.54046875 8.61328125 -50.2734375 8.4140625 C-48.64058272 8.15130426 -47.00777254 7.88826875 -45.375 7.625 C-44.56675781 7.49867188 -43.75851563 7.37234375 -42.92578125 7.2421875 C-39.50947597 6.68669071 -36.31901283 6.10843914 -33.03515625 4.9921875 C-28.78237033 3.6019589 -24.48715455 3.09518635 -20.0625 2.5 C-12.97769487 1.5692688 -12.97769487 1.5692688 -6.05859375 -0.15625 C-3 -1 -3 -1 0 0 Z " fill="#3C3C3C" transform="translate(192,317)"/>
<path d="M0 0 C4.74582727 1.18511619 9.2165804 2.90035597 13.76953125 4.67578125 C14.66865234 5.01931641 15.56777344 5.36285156 16.49414062 5.71679688 C22.22998155 7.92735596 27.86602365 10.30898337 33.45703125 12.86328125 C30.20344483 13.94826786 28.41576143 13.787167 25.21875 12.60546875 C24.4050293 12.31164307 23.59130859 12.01781738 22.75292969 11.71508789 C21.8921582 11.3927417 21.03138672 11.07039551 20.14453125 10.73828125 C18.35191616 10.08756655 16.5589432 9.43783697 14.765625 8.7890625 C13.87472168 8.46373535 12.98381836 8.1384082 12.06591797 7.80322266 C8.30051492 6.44660636 4.50818371 5.17804644 0.70703125 3.92578125 C-0.5046875 3.52488281 -1.71640625 3.12398437 -2.96484375 2.7109375 C-3.815625 2.43121094 -4.66640625 2.15148437 -5.54296875 1.86328125 C-2.54296875 -0.13671875 -2.54296875 -0.13671875 0 0 Z " fill="#E1E1E1" transform="translate(512.54296875,210.13671875)"/>
<path d="M0 0 C2.35539128 1.9752705 4.68211803 3.98088868 7 6 C7.9075 6.78375 8.815 7.5675 9.75 8.375 C12.50165386 11.58526284 14.187729 14.83089477 15 19 C14.5703125 21.24609375 14.5703125 21.24609375 14 23 C0 4.30964467 0 4.30964467 0 0 Z " fill="#E3E3E3" transform="translate(566,294)"/>
<path d="M0 0 C1.65 0 3.3 0 5 0 C5.50615298 1.26839526 6.00469099 2.53983102 6.5 3.8125 C6.91765625 4.87404297 6.91765625 4.87404297 7.34375 5.95703125 C8 8 8 8 8 11 C5.36 11.33 2.72 11.66 0 12 C0 8.04 0 4.08 0 0 Z " fill="#EBEBEB" transform="translate(179,285)"/>
<path d="M0 0 C0 0.33 0 0.66 0 1 C4.29 1.33 8.58 1.66 13 2 C13 2.33 13 2.66 13 3 C12.4423999 3.01981934 11.8847998 3.03963867 11.31030273 3.06005859 C-0.2378592 3.48948177 -11.57866496 4.19293777 -23 6 C-22.67 5.34 -22.34 4.68 -22 4 C-19.43268274 3.18864483 -16.92526177 2.49984117 -14.3125 1.875 C-13.60416016 1.69324219 -12.89582031 1.51148438 -12.16601562 1.32421875 C-8.02328098 0.30670498 -4.29875903 -0.20309098 0 0 Z " fill="#E5E5E5" transform="translate(333,157)"/>
<path d="M0 0 C6.4922982 -0.10471449 11.67216039 1.45927378 17.4375 4.375 C18.04029785 4.67929932 18.6430957 4.98359863 19.26416016 5.29711914 C22.25716313 6.87631426 24.788454 8.41589966 27 11 C24 12 24 12 21.765625 10.890625 C20.93546875 10.34921875 20.1053125 9.8078125 19.25 9.25 C13.05174527 5.36372127 7.06721184 2.87497457 0 1 C0 0.67 0 0.34 0 0 Z " fill="#DADADA" transform="translate(644,117)"/>
<path d="M0 0 C-12.02986155 5.40116233 -22.90838355 6.09465863 -36 4 C-36 3.67 -36 3.34 -36 3 C-35.42668945 2.98541748 -34.85337891 2.97083496 -34.26269531 2.95581055 C-19.52362015 2.60863185 -19.52362015 2.60863185 -5.1796875 -0.4765625 C-3 -1 -3 -1 0 0 Z " fill="#535353" transform="translate(157,316)"/>
<path d="M0 0 C-1.70091889 1.30141481 -3.41110541 2.59072165 -5.125 3.875 C-6.07632812 4.59429687 -7.02765625 5.31359375 -8.0078125 6.0546875 C-10.97248274 7.98211019 -13.61122655 9.04470778 -17 10 C-15.55366256 6.39588346 -13.80863332 4.88597432 -10.5625 2.8125 C-9.78003906 2.30332031 -8.99757813 1.79414062 -8.19140625 1.26953125 C-4.92764945 -0.62123695 -3.6617716 -1.22059053 0 0 Z " fill="#DEDEDF" transform="translate(494,100)"/>
<path d="M0 0 C6.6 0 13.2 0 20 0 C19.67 0.99 19.34 1.98 19 3 C13.03325384 4.32594359 7.07416385 4.0884587 1 4 C1 3.67 1 3.34 1 3 C4.3 2.67 7.6 2.34 11 2 C7.37 1.67 3.74 1.34 0 1 C0 0.67 0 0.34 0 0 Z " fill="#AEAEAE" transform="translate(377,266)"/>
<path d="M0 0 C0.33 0 0.66 0 1 0 C1.02708567 1.60407328 1.04643483 3.2082785 1.0625 4.8125 C1.07410156 5.70582031 1.08570313 6.59914062 1.09765625 7.51953125 C1 10 1 10 0 13 C-3.44444444 16 -3.44444444 16 -6 16 C-4.25192871 10.53262809 -2.34205919 5.24175152 0 0 Z " fill="#D3D3D3" transform="translate(278,180)"/>
<path d="M0 0 C1.35808693 4.07426078 0.20039115 5.99892097 -1.25 10 C-1.68828125 11.2375 -2.1265625 12.475 -2.578125 13.75 C-3.81816489 16.58437688 -4.63013185 18.10410548 -7 20 C-7.99 19.67 -8.98 19.34 -10 19 C-9.278125 18.0925 -8.55625 17.185 -7.8125 16.25 C-4.23400483 11.29122812 -2.18867663 5.6719322 0 0 Z " fill="#C7C7C7" transform="translate(426,233)"/>
<path d="M0 0 C0.33 0 0.66 0 1 0 C1.53373082 3.24801825 2.04971268 6.49861491 2.5625 9.75 C2.71396484 10.67039063 2.86542969 11.59078125 3.02148438 12.5390625 C3.16005859 13.42851562 3.29863281 14.31796875 3.44140625 15.234375 C3.57232666 16.05131836 3.70324707 16.86826172 3.83813477 17.70996094 C4.00431883 20.06110207 3.70259545 21.76426496 3 24 C-0.92454254 15.80965036 -1.33566412 8.87702921 0 0 Z " fill="#C4C5C5" transform="translate(226,185)"/>
<path d="M0 0 C0.66 0.33 1.32 0.66 2 1 C1.67 1.33 1.34 1.66 1 2 C1.66 2.66 2.32 3.32 3 4 C0.73194205 4.69809445 -1.53866607 5.38371017 -3.8125 6.0625 C-4.45509766 6.26166016 -5.09769531 6.46082031 -5.75976562 6.66601562 C-10.66015625 8.11328125 -10.66015625 8.11328125 -14 7 C-11.71296692 5.80274117 -9.42115138 4.61702982 -7.125 3.4375 C-6.14853516 2.92413086 -6.14853516 2.92413086 -5.15234375 2.40039062 C-3.46470143 1.53917109 -1.73420407 0.76313297 0 0 Z " fill="#2C2C2C" transform="translate(459,153)"/>
<path d="M0 0 C8.08306125 1.70169711 16.03100406 3.83713681 24 6 C21.59009373 7.53919421 20.39841998 8.05144951 17.51953125 7.6796875 C11.44740799 5.87469848 5.70012017 3.77265105 0 1 C0 0.67 0 0.34 0 0 Z " fill="#3E3E3E" transform="translate(496,203)"/>
<path d="M0 0 C-0.99 0.33 -1.98 0.66 -3 1 C-2.01 1.66 -1.02 2.32 0 3 C-5.28 3 -10.56 3 -16 3 C-15.67 2.34 -15.34 1.68 -15 1 C-12.63671875 0.33203125 -12.63671875 0.33203125 -9.6875 -0.1875 C-8.72199219 -0.36667969 -7.75648438 -0.54585937 -6.76171875 -0.73046875 C-4.14592982 -0.98575791 -2.46648091 -0.82606605 0 0 Z " fill="#4F4F4F" transform="translate(298,215)"/>
<path d="M0 0 C-0.67546875 0.39832031 -1.3509375 0.79664063 -2.046875 1.20703125 C-3.38492187 2.00173828 -3.38492187 2.00173828 -4.75 2.8125 C-5.63171875 3.33457031 -6.5134375 3.85664063 -7.421875 4.39453125 C-9.99280766 5.93597921 -9.99280766 5.93597921 -12.203125 7.69921875 C-14 9 -14 9 -16 9 C-15.05445036 5.48964698 -14.44190137 4.25986814 -11.25 2.3828125 C-10.1775 1.96773437 -9.105 1.55265625 -8 1.125 C-6.9275 0.69445312 -5.855 0.26390625 -4.75 -0.1796875 C-2 -1 -2 -1 0 0 Z " fill="#272627" transform="translate(449,148)"/>
<path d="M0 0 C4.82034262 0.41317222 6.90992611 2.38019915 10 6 C10 6.66 10 7.32 10 8 C6.01328937 6.63312778 3.11505367 4.84804907 0 2 C0 1.34 0 0.68 0 0 Z " fill="#1D1D1D" transform="translate(228,281)"/>
<path d="M0 0 C5.78591511 -0.10477512 11.29309366 0.00749455 17 1 C15.68 1.33 14.36 1.66 13 2 C13 2.66 13 3.32 13 4 C11.20676747 3.71812064 9.41542874 3.4241719 7.625 3.125 C6.62726563 2.96257812 5.62953125 2.80015625 4.6015625 2.6328125 C2 2 2 2 0 0 Z " fill="#303030" transform="translate(472,232)"/>
<path d="M0 0 C6.40353322 -0.2361959 11.84629161 0.176679 18 2 C17.67 2.99 17.34 3.98 17 5 C8.585 3.02 8.585 3.02 0 1 C0 0.67 0 0.34 0 0 Z " fill="#C4C4C4" transform="translate(223,130)"/>
<path d="M0 0 C-6.93 2.97 -6.93 2.97 -14 6 C-14.33 4.68 -14.66 3.36 -15 2 C-13.25364835 1.46706165 -11.50272348 0.94909337 -9.75 0.4375 C-8.77546875 0.14746094 -7.8009375 -0.14257812 -6.796875 -0.44140625 C-4 -1 -4 -1 0 0 Z " fill="#2A2B2B" transform="translate(415,139)"/>
<path d="M0 0 C0 0.99 0 1.98 0 3 C-4.95 3.66 -9.9 4.32 -15 5 C-14 3 -14 3 -11.85546875 2.1484375 C-10.97503906 1.89320313 -10.09460938 1.63796875 -9.1875 1.375 C-8.31480469 1.11460937 -7.44210937 0.85421875 -6.54296875 0.5859375 C-4 0 -4 0 0 0 Z " fill="#CCCCCC" transform="translate(325,158)"/>
<path d="M0 0 C0.66 0.33 1.32 0.66 2 1 C2 1.66 2 2.32 2 3 C0.2335343 4.0076952 -1.53833823 5.00591714 -3.3125 6 C-4.79169922 6.8353125 -4.79169922 6.8353125 -6.30078125 7.6875 C-9 9 -9 9 -12 9 C-8.04 6.03 -4.08 3.06 0 0 Z " fill="#383838" transform="translate(222,227)"/>
<path d="M0 0 C5.49152542 0.61016949 5.49152542 0.61016949 7.875 2.4375 C9 4 9 4 9 6 C5.21213403 5.4739075 2.82847776 4.61896089 0 2 C0 1.34 0 0.68 0 0 Z " fill="#151515" transform="translate(239,305)"/>
<path d="M0 0 C9.59453303 4.03872437 9.59453303 4.03872437 13 7 C7.88634986 5.9318153 2.92772031 4.76892524 -2 3 C-1.34 2.67 -0.68 2.34 0 2 C0 1.34 0 0.68 0 0 Z " fill="#1E1E1E" transform="translate(452,230)"/>
<path d="M0 0 C0.66 0.33 1.32 0.66 2 1 C-3.445 4.96 -3.445 4.96 -9 9 C-9.99 8.01 -10.98 7.02 -12 6 C-10.04669132 4.96958487 -8.08718472 3.9509107 -6.125 2.9375 C-5.03445313 2.36902344 -3.94390625 1.80054688 -2.8203125 1.21484375 C-1.42425781 0.61349609 -1.42425781 0.61349609 0 0 Z " fill="#353535" transform="translate(432,139)"/>
<path d="M0 0 C4.30289834 1.05181959 8.08855769 2.95114927 12 5 C8.14507389 6.28497537 6.59653164 5.4052209 2.8125 4.0625 C1.72582031 3.68222656 0.63914062 3.30195313 -0.48046875 2.91015625 C-1.31191406 2.60980469 -2.14335938 2.30945313 -3 2 C-2.01 1.34 -1.02 0.68 0 0 Z " fill="#D0D0D0" transform="translate(531,227)"/>
<path d="M0 0 C-3.19990508 2.74277578 -6.00499382 4.6302836 -10 6 C-10 5.34 -10 4.68 -10 4 C-10.66 3.67 -11.32 3.34 -12 3 C-10.3789897 2.30314502 -8.75303934 1.61777139 -7.125 0.9375 C-6.22007812 0.55464844 -5.31515625 0.17179688 -4.3828125 -0.22265625 C-2 -1 -2 -1 0 0 Z " fill="#2C2C2C" transform="translate(281,209)"/>
<path d="M0 0 C0.66 0.33 1.32 0.66 2 1 C-1.07881696 4.87051275 -4.00073014 8.02911382 -8 11 C-8.66 10.67 -9.32 10.34 -10 10 C-6.7 6.7 -3.4 3.4 0 0 Z " fill="#1D1D1D" transform="translate(355,129)"/>
<path d="M0 0 C10.55808656 0.77904328 10.55808656 0.77904328 15 3 C14.67 3.66 14.34 4.32 14 5 C10.88200997 4.24964259 7.81929597 3.36636589 4.75 2.4375 C3.85796875 2.16808594 2.9659375 1.89867188 2.046875 1.62109375 C1.37140625 1.41613281 0.6959375 1.21117188 0 1 C0 0.67 0 0.34 0 0 Z " fill="#C0C0C0" transform="translate(644,117)"/>
<path d="M0 0 C2.31 0.33 4.62 0.66 7 1 C6.67 1.99 6.34 2.98 6 4 C2.7 3.67 -0.6 3.34 -4 3 C-2.68 2.67 -1.36 2.34 0 2 C0 1.34 0 0.68 0 0 Z " fill="#D3D3D3" transform="translate(370,265)"/>
<path d="M0 0 C0.95412881 2.57614778 1.01981848 3.91676239 0.375 6.625 C-1.33984343 9.58700229 -2.77611813 10.06677104 -6 11 C-4.18690997 7.22272911 -2.0926741 3.62730178 0 0 Z " fill="#343434" transform="translate(630,234)"/>
<path d="M0 0 C0 0.33 0 0.66 0 1 C-7.92 1.495 -7.92 1.495 -16 2 C-10.89004565 -3.10995435 -6.38230719 -1.80762513 0 0 Z " fill="#383939" transform="translate(301,207)"/>
<path d="M0 0 C0.33 0.66 0.66 1.32 1 2 C-1.64 2.66 -4.28 3.32 -7 4 C-7 3.34 -7 2.68 -7 2 C-7.99 1.67 -8.98 1.34 -10 1 C-8.71073008 0.63720544 -7.41846728 0.28503302 -6.125 -0.0625 C-5.40570313 -0.25972656 -4.68640625 -0.45695312 -3.9453125 -0.66015625 C-2 -1 -2 -1 0 0 Z " fill="#D7D7D7" transform="translate(404,264)"/>
<path d="M0 0 C3.43595166 1.52708963 6.11912454 3.59927045 9 6 C8.67 6.99 8.34 7.98 8 9 C5.06799526 6.14723863 2.35684596 3.34920216 0 0 Z " fill="#CCCCCC" transform="translate(494,338)"/>
<path d="M0 0 C0 3 0 3 -2.25 5.625 C-4.72881204 7.76579221 -5.83568489 8.64840943 -9 9 C-7.625 7 -7.625 7 -6 5 C-5.34 5 -4.68 5 -4 5 C-4 4.34 -4 3.68 -4 3 C-2 1.375 -2 1.375 0 0 Z " fill="#464647" transform="translate(570,117)"/>
<path d="M0 0 C0.66 0.33 1.32 0.66 2 1 C1 4 1 4 -0.875 5.25 C-3 6 -3 6 -6 5 C-4.06745228 2.9754262 -2.36841312 1.57894208 0 0 Z " fill="#EDEDED" transform="translate(409,259)"/>
<path d="M0 0 C1.46067199 0.45082469 2.91848032 0.91093537 4.375 1.375 C5.18710937 1.63023437 5.99921875 1.88546875 6.8359375 2.1484375 C9 3 9 3 11 5 C6.6822542 4.49202991 2.96697886 3.80317221 -1 2 C-0.67 1.34 -0.34 0.68 0 0 Z " fill="#373737" transform="translate(444,245)"/>
<path d="M0 0 C1.46067199 0.45082469 2.91848032 0.91093537 4.375 1.375 C5.18710937 1.63023437 5.99921875 1.88546875 6.8359375 2.1484375 C9 3 9 3 11 5 C6.6822542 4.49202991 2.96697886 3.80317221 -1 2 C-0.67 1.34 -0.34 0.68 0 0 Z " fill="#BEBEBE" transform="translate(535,219)"/>
<path d="M0 0 C0.66 0.33 1.32 0.66 2 1 C1 4 1 4 -0.84765625 5.16796875 C-1.57855469 5.50441406 -2.30945313 5.84085938 -3.0625 6.1875 C-3.79597656 6.53167969 -4.52945313 6.87585938 -5.28515625 7.23046875 C-6.13400391 7.61138672 -6.13400391 7.61138672 -7 8 C-5.61918777 3.8575633 -3.40174442 2.67796901 0 0 Z " fill="#C3C3C4" transform="translate(614,143)"/>
<path d="M0 0 C-6.75 4 -6.75 4 -9 4 C-9 3.01 -9 2.02 -9 1 C-2.25 -1.125 -2.25 -1.125 0 0 Z " fill="#2A2A2A" transform="translate(611,249)"/>
<path d="M0 0 C3.91402949 1.26941497 5.79072873 2.51167694 8 6 C7.34 6.66 6.68 7.32 6 8 C4.02 5.36 2.04 2.72 0 0 Z " fill="#C8C8C8" transform="translate(406,379)"/>
<path d="M0 0 C2.64 0 5.28 0 8 0 C5.61426621 1.89213369 3.92824652 3.02391783 1 4 C0.67 2.68 0.34 1.36 0 0 Z " fill="#CBCCCC" transform="translate(438,115)"/>
<path d="M0 0 C2.64 0 5.28 0 8 0 C3.25 4 3.25 4 1 4 C0.67 2.68 0.34 1.36 0 0 Z " fill="#CECECE" transform="translate(455,61)"/>
<path d="M0 0 C3.3 0.99 6.6 1.98 10 3 C8.02 3.99 8.02 3.99 6 5 C3.98079663 3.69593116 1.98075027 2.36176581 0 1 C0 0.67 0 0.34 0 0 Z " fill="#C8C9C9" transform="translate(594,328)"/>
<path d="M0 0 C0.928125 0.20625 1.85625 0.4125 2.8125 0.625 C2.4825 1.615 2.1525 2.605 1.8125 3.625 C-0.8275 2.965 -3.4675 2.305 -6.1875 1.625 C-3.1875 -0.375 -3.1875 -0.375 0 0 Z " fill="#CECECE" transform="translate(519.1875,212.375)"/>
<path d="M0 0 C4.95 0.99 4.95 0.99 10 2 C9.01 2.66 8.02 3.32 7 4 C3.875 3.25 3.875 3.25 1 2 C0.67 1.34 0.34 0.68 0 0 Z " fill="#2B2B2B" transform="translate(492,207)"/>
<path d="M0 0 C0.99 0 1.98 0 3 0 C2.75 1.875 2.75 1.875 2 4 C-0.0625 5.25 -0.0625 5.25 -2 6 C-1.34 4.02 -0.68 2.04 0 0 Z " fill="#C5C5C5" transform="translate(503,166)"/>
<path d="M0 0 C2.31 0.33 4.62 0.66 7 1 C7 1.66 7 2.32 7 3 C4.69 2.67 2.38 2.34 0 2 C0 1.34 0 0.68 0 0 Z " fill="#EEEEEE" transform="translate(240,133)"/>
<path d="M0 0 C0.66 0.33 1.32 0.66 2 1 C1.67 1.99 1.34 2.98 1 4 C-2.5625 5.1875 -2.5625 5.1875 -6 6 C-4 4 -2 2 0 0 Z " fill="#212122" transform="translate(419,130)"/>
<path d="M0 0 C2 3 2 3 1.75 6.125 C1.5025 7.07375 1.255 8.0225 1 9 C0.01 9.495 0.01 9.495 -1 10 C-0.67 6.7 -0.34 3.4 0 0 Z " fill="#CCCCCD" transform="translate(394,97)"/>
</svg>
