<?xml version="1.0" encoding="UTF-8"?>
<svg version="1.1" xmlns="http://www.w3.org/2000/svg" width="1536" height="1024">
<path d="M0 0 C337.92 0 675.84 0 1024 0 C1024 337.92 1024 675.84 1024 1024 C686.08 1024 348.16 1024 0 1024 C0 686.08 0 348.16 0 0 Z " fill="#FDFDFD" transform="translate(221,0)"/>
<path d="M0 0 C3.8979906 3.42068563 6.06925222 7.28211562 8.4375 11.8125 C9.02736694 12.93930176 9.02736694 12.93930176 9.62915039 14.08886719 C21.33495327 37.05127151 23.21218851 63.04428784 16.97265625 87.90625 C13.92934984 100.05645299 13.43030866 112.54961934 19 124 C22.94284475 130.50412784 27.46123867 136.76894763 33 142 C37.91700805 131.28794675 34.2726874 118.75311574 31 108 C43.79381233 112.682849 51.15884513 123.60247484 56.875 135.4375 C59.8222383 141.84636835 61.3523666 147.99032089 62 155 C62.10828125 156.051875 62.2165625 157.10375 62.328125 158.1875 C62.58045309 160.79046349 62.80492991 163.39222084 63 166 C71.17880591 159.49033816 76.68271879 151.92367314 81.8359375 142.87109375 C82.22007812 142.25363281 82.60421875 141.63617188 83 141 C83.33 141 83.66 141 84 141 C84.33 148.26 84.66 155.52 85 163 C86.7325 160.586875 86.7325 160.586875 88.5 158.125 C92.50972889 152.6142654 96.69363434 147.28061948 101 142 C101.69867187 141.13761719 102.39734375 140.27523437 103.1171875 139.38671875 C106.69564362 134.98687324 110.31065827 130.62319345 113.99169922 126.30908203 C120.2017311 119.02933763 126.12392211 111.55043201 132 104 C133.49526392 102.07963625 134.99473747 100.16253649 136.5 98.25 C137.1084375 97.47140625 137.716875 96.6928125 138.34375 95.890625 C140 94 140 94 143 92 C142.40557629 105.8123351 141.00043621 119.51947699 139.52587891 133.26220703 C139.12878367 136.96472111 138.73770631 140.66783155 138.34765625 144.37109375 C136.97373255 157.33934576 135.52676186 170.29492482 133.90774536 183.23510742 C133.78849701 184.20037354 133.66924866 185.16563965 133.54638672 186.16015625 C133.44059296 187.00199463 133.33479919 187.84383301 133.22579956 188.71118164 C132.93454884 191.28012444 132.93454884 191.28012444 133 195 C133.83917969 194.07380859 133.83917969 194.07380859 134.6953125 193.12890625 C144.50219898 182.77018532 155.56444302 175.84061202 169 171 C169.83660156 170.69320312 170.67320312 170.38640625 171.53515625 170.0703125 C179.77689743 167.18088738 187.30596853 166.87338789 196 167 C192.71576263 170.95792708 189.3998269 174.56898602 185.625 178.0625 C179.52383208 184.03957637 175.78718555 191.42562889 172 199 C196.95257203 193.87325771 196.95257203 193.87325771 216.1875 178.125 C219.28081773 172.99310612 221.52494695 167.42382548 223.90576172 161.93701172 C236.47689284 133.16150885 256.43488841 113.89110363 285.2734375 101.60546875 C292.27678679 99.00448732 298.56745907 98.52558249 306 99 C302.91598058 103.33429757 299.77059789 107.28524221 296.0480957 111.09301758 C281.77748808 125.82878482 276.63018753 143.38342621 276.83203125 163.703125 C276.93830632 167.74702771 277.42366573 171.68177245 278 175.6875 C281.61076984 201.47871311 278.0209745 228.71406815 262 250 C259.70196417 252.70245989 257.35186612 255.3257323 254.91796875 257.90625 C252.85659569 260.04935291 252.85659569 260.04935291 251 263 C252.92694702 262.56917114 252.92694702 262.56917114 254.89282227 262.12963867 C259.72887399 261.04885731 264.56541691 259.97028777 269.40209961 258.89233398 C271.48230916 258.42840467 273.56239088 257.96390173 275.64233398 257.4987793 C286.43685708 255.08527462 297.2286381 252.6923213 308.08496094 250.5715332 C313.08218755 249.5917587 318.04327654 248.52076171 322.96484375 247.2109375 C328.46911067 245.75492623 333.30051366 244.61139866 339 245 C336.00024723 249.95611327 332.32942293 254.03177366 328.421875 258.296875 C326.04637015 260.94824493 323.79573627 263.66575286 321.5625 266.4375 C317.65014127 271.27161863 313.53732721 275.8770699 309.33203125 280.45703125 C304.77664795 285.42445928 300.39324154 290.52669094 296.05151367 295.68139648 C291.47416398 301.11577519 286.83163945 306.46902168 282.0546875 311.73046875 C278.99115232 315.11433556 275.99696894 318.55725765 273 322 C271.68786505 323.50031934 270.37537249 325.00032601 269.0625 326.5 C268.47597656 327.1703125 267.88945313 327.840625 267.28515625 328.53125 C266.64900391 329.25828125 266.64900391 329.25828125 266 330 C267.155 329.835 268.31 329.67 269.5 329.5 C290.65328337 327.25596994 312.9321822 329.61920255 330.375 342.75 C332.82975401 344.77825235 334.20285955 346.30428933 336 349 C334.81664062 349.04898437 333.63328125 349.09796875 332.4140625 349.1484375 C319.02801845 349.75496162 308.34386697 351.44313893 296 357 C297.0415625 357.27972656 298.083125 357.55945313 299.15625 357.84765625 C325.00504517 364.98884593 347.056908 377.69688817 365 398 C365 398.66 365 399.32 365 400 C365.66 400 366.32 400 367 400 C367 400.66 367 401.32 367 402 C365.73285156 401.71125 364.46570312 401.4225 363.16015625 401.125 C361.46104656 400.74950615 359.76182152 400.37453401 358.0625 400 C357.23169922 399.80921875 356.40089844 399.6184375 355.54492188 399.421875 C348.23748529 397.8295931 341.36175353 397.55723765 333.9375 398.5 C332.638125 398.665 331.33875 398.83 330 399 C330 399.66 330 400.32 330 401 C339.6609201 409.59855088 349.030156 414.90681777 362.203125 414.59765625 C369.83543415 413.87309122 377.28372929 411.66579715 384.66162109 409.66674805 C415.02700829 401.4421661 444.65197022 404.12392409 472.15625 419.8984375 C472.7646875 420.26195312 473.373125 420.62546875 474 421 C474 421.66 474 422.32 474 423 C473.31075439 423.09498779 472.62150879 423.18997559 471.91137695 423.2878418 C442.88359185 427.37301827 425.20457488 436.78669946 405.75 458.8125 C398.34891152 467.14485127 389.82539927 473.76720946 380 479 C378.92492188 479.5878125 377.84984375 480.175625 376.7421875 480.78125 C359.71138438 489.66923711 341.89891124 490.70477867 323 490 C331.21593817 499.42690411 339.76851803 508.92283934 352 513 C352 513.66 352 514.32 352 515 C334.39466717 518.02782423 314.30147693 517.29861332 297.91796875 509.76953125 C295.88038864 508.81381592 295.88038864 508.81381592 293 509 C296.69541557 512.72035349 300.39427082 516.43724226 304.09619141 520.15112305 C305.3519982 521.41192215 306.60690164 522.67362176 307.86083984 523.9362793 C316.91249383 533.07246407 316.91249383 533.07246407 326.4609375 541.68139648 C328.4144213 543.3550586 330.21388778 545.15009806 332 547 C335.82923672 550.88148751 339.86889991 554.4458692 344 558 C345.67037408 559.45408539 347.33704661 560.91243379 349 562.375 C349.763125 563.04273438 350.52625 563.71046875 351.3125 564.3984375 C351.869375 564.92695312 352.42625 565.45546875 353 566 C353 566.33 353 566.66 353 567 C345.84403144 567.18965418 339.00289248 566.6477355 331.921875 565.64453125 C330.88387756 565.50251282 329.84588013 565.36049438 328.77642822 565.21417236 C325.43323553 564.75419265 322.0916121 564.28381362 318.75 563.8125 C316.45184048 563.49328173 314.15366332 563.17419046 311.85546875 562.85522461 C295.9483337 560.63141254 280.09384881 558.19252009 264.28515625 555.34790039 C261.8909436 554.92474534 261.8909436 554.92474534 259 555 C259.71285156 555.56847656 260.42570313 556.13695312 261.16015625 556.72265625 C275.15281087 568.00341011 285.02529469 579.82565102 291 597 C291.31839844 597.91394531 291.63679688 598.82789063 291.96484375 599.76953125 C294.07709132 606.57349924 294.33409363 612.90979079 294 620 C290.42384804 617.00770958 287.05793069 614.08772283 283.9375 610.625 C277.30249647 603.88585965 267.91114315 599.87094423 259.4375 595.9375 C254.2484909 593.42266648 251.80475641 591.00849359 249 586 C255.70002548 597.38393387 258.87942563 609.3851013 262.22094727 622.08349609 C267.6033325 642.23328424 275.94278476 657.61503789 294.32666016 668.35986328 C295.87737689 669.23876582 297.43119963 670.11221014 298.98803711 670.98022461 C307.32958367 675.63603105 314.97648711 680.46049642 322 687 C322.49580566 687.46019531 322.99161133 687.92039062 323.50244141 688.39453125 C332.69955474 697.01451506 339.59717094 705.9845469 345.4375 717.1875 C345.79231445 717.85297852 346.14712891 718.51845703 346.51269531 719.20410156 C348.72927837 723.63066416 349.37353 726.94751526 349 732 C343.76291703 729.18523706 338.73593789 726.17866254 333.75 722.9375 C324.0352776 716.90138878 313.36613805 713.87979263 301.9296875 713.8671875 C300.785 713.86589844 299.6403125 713.86460937 298.4609375 713.86328125 C296.68589844 713.86908203 296.68589844 713.86908203 294.875 713.875 C293.71484375 713.87113281 292.5546875 713.86726562 291.359375 713.86328125 C284.82134795 713.87059448 278.39426497 714.16088921 271.88525391 714.75976562 C246.29957479 716.8901014 220.65166028 712.09766986 200.46875 695.1328125 C194.26363222 689.65434898 188.73495539 683.81833576 184 677 C184.06352286 694.05588781 192.16173155 709.22811622 203.71484375 721.44140625 C205 723 205 723 205 725 C191.66251203 725 180.03388682 716.62042523 170.16015625 708.39453125 C165.52399457 703.41452569 161.87290614 697.59419776 158 692 C157.67 703.88 157.34 715.76 157 728 C156.34 728 155.68 728 155 728 C153.81149144 726.50674566 152.7013947 724.95098717 151.625 723.375 C146.54312368 716.18348867 140.79748817 709.618799 135 703 C135.7585932 707.57709445 136.51837683 712.15398946 137.27920532 716.73071289 C137.55120658 718.36739647 137.82299644 720.0041152 138.09457397 721.64086914 C139.52220983 730.24174569 140.95942726 738.84018241 142.4765625 747.42578125 C142.81554565 749.35224487 142.81554565 749.35224487 143.16137695 751.31762695 C143.58236595 753.69849576 144.00768903 756.07860407 144.43823242 758.45776367 C145.70398623 765.62647016 146.5247181 772.73579472 147 780 C142.83325098 777.0959022 140.10547763 773.69328585 137.0859375 769.69140625 C134.64774838 766.54550306 132.08644317 763.52409496 129.5 760.5 C125.18559841 755.43823319 121.04773085 750.27817315 117 745 C111.74767774 738.2259769 106.45600856 731.49723659 100.9375 724.9375 C95.75664408 718.77535837 90.86219068 712.41395366 86 706 C85.9906543 706.56807373 85.98130859 707.13614746 85.97167969 707.72143555 C85.65731683 722.96649298 83.72623685 735.15396988 77 749 C74.79757988 745.69636982 74.03459928 742.94816766 73 739.125 C71.86972567 734.96594368 70.68961575 730.96757984 69 727 C68.94054199 727.57331055 68.88108398 728.14662109 68.81982422 728.73730469 C67.00795682 745.37445172 63.94102397 758.3447829 51 770 C46.35733082 773.33000974 41.45040685 776.21882129 36 778 C35.01 777.67 34.02 777.34 33 777 C33.40992188 776.34773437 33.81984375 775.69546875 34.2421875 775.0234375 C34.78101563 774.14945313 35.31984375 773.27546875 35.875 772.375 C36.40867187 771.51648438 36.94234375 770.65796875 37.4921875 769.7734375 C40.92730183 763.45496296 41.28634527 758.10132358 41.1875 751.0625 C41.18685547 750.19431641 41.18621094 749.32613281 41.18554688 748.43164062 C41.15215108 743.52245822 40.82312009 738.83994612 40 734 C29.09189815 744.26801764 18.12719389 758.07729914 17.5 773.5625 C17.6806351 777.92032172 18.33987031 782.11045096 19.08520508 786.39624023 C20.78377849 796.29075526 21.31011111 805.98144266 21.3125 816 C21.31765625 817.2991333 21.3228125 818.5982666 21.328125 819.93676758 C21.24655838 831.31166922 19.91725858 841.77846264 15.875 852.4375 C15.57223145 853.24517822 15.26946289 854.05285645 14.95751953 854.88500977 C11.37611433 864.08142277 7.13300305 873.04799258 -1 879 C-1.08636719 877.72769531 -1.17273438 876.45539062 -1.26171875 875.14453125 C-1.99866729 865.51433149 -3.14202575 856.15705216 -5.375 846.75 C-5.6702356 845.48506714 -5.6702356 845.48506714 -5.97143555 844.19458008 C-9.11209097 831.6207284 -15.38493207 820.82704033 -24.1875 811.3125 C-34.87211535 799.75906645 -43.92623043 787.56025649 -50 773 C-50.78890625 771.24236328 -50.78890625 771.24236328 -51.59375 769.44921875 C-57.53415579 754.43821676 -55.42696048 736.83694961 -55 721 C-55.95366457 722.40151182 -56.90341227 723.80568926 -57.8515625 725.2109375 C-58.38088379 725.99259277 -58.91020508 726.77424805 -59.45556641 727.57958984 C-66.65666531 738.86503002 -65.42282784 751.09887213 -65 764 C-75.24634064 755.95035685 -83.15023859 744.09202599 -85 731 C-85.52872437 722.67259111 -85.32142677 714.33237093 -85 706 C-85.59425781 706.77601563 -86.18851563 707.55203125 -86.80078125 708.3515625 C-95.36918478 719.52637111 -103.93726547 730.67761091 -113.08569336 741.38671875 C-115.78301108 744.54719272 -118.42049701 747.74278645 -121 751 C-124.54232493 755.47145934 -128.21369356 759.82068537 -131.91601562 764.15942383 C-135.50525197 768.37803151 -138.95726902 772.69044783 -142.34375 777.07421875 C-144 779 -144 779 -147 781 C-147.30871233 773.43237622 -146.26405788 766.23382018 -145.03433228 758.78790283 C-144.68138212 756.65045036 -144.33700548 754.51176761 -143.99487305 752.37255859 C-143.54070207 749.53583851 -143.08378507 746.69958882 -142.62402344 743.86376953 C-140.37528368 729.94023454 -138.44038602 716.03105443 -137 702 C-138.1446875 703.546875 -138.1446875 703.546875 -139.3125 705.125 C-142.37308003 709.20090371 -145.4885943 713.23234641 -148.625 717.25 C-149.32556519 718.15322998 -149.32556519 718.15322998 -150.0402832 719.07470703 C-150.49363037 719.65333496 -150.94697754 720.23196289 -151.4140625 720.828125 C-151.8157666 721.3427832 -152.2174707 721.85744141 -152.63134766 722.38769531 C-154.30674319 724.3613507 -156.16939002 726.16939002 -158 728 C-158.33 715.79 -158.66 703.58 -159 691 C-162.465 696.445 -162.465 696.445 -166 702 C-173.37737274 711.95087485 -183.57013221 718.50389087 -195 723 C-195.85078125 723.36996094 -196.7015625 723.73992188 -197.578125 724.12109375 C-200.77747103 725.28214674 -203.62650249 725.13229402 -207 725 C-206.14700232 723.85329616 -205.29250133 722.70771066 -204.4375 721.5625 C-203.8909375 720.82773437 -203.344375 720.09296875 -202.78125 719.3359375 C-201.62365769 717.81786688 -200.43722508 716.32121445 -199.21875 714.8515625 C-190.70603662 704.50936248 -185.23374957 691.53709088 -186 678 C-186.60585938 678.7734375 -187.21171875 679.546875 -187.8359375 680.34375 C-202.34965738 698.53201466 -223.39592786 711.78218496 -246.77587891 714.79785156 C-256.51845657 715.683346 -266.51343476 715.48765868 -276.23828125 714.5 C-283.13387141 713.82839125 -290.01360075 713.77779287 -296.9375 713.75 C-298.21818359 713.729375 -299.49886719 713.70875 -300.81835938 713.6875 C-318.81696859 713.61414856 -332.74753281 719.47033993 -346.890625 730.49609375 C-349 732 -349 732 -351 732 C-350.55457377 725.61316267 -348.97049917 721.13097876 -345.875 715.5625 C-345.46830078 714.81605225 -345.06160156 714.06960449 -344.64257812 713.30053711 C-341.56184596 707.75872555 -338.18834829 702.77083382 -334 698 C-333.10861328 696.87851563 -333.10861328 696.87851563 -332.19921875 695.734375 C-321.99952103 683.45512726 -308.39510992 674.26200609 -294.45751953 666.72680664 C-279.63154639 658.64473732 -270.31246405 644.99280177 -265.40234375 628.95703125 C-263.53806433 622.59504262 -261.78907779 616.2027275 -260.203125 609.765625 C-258.13070634 601.42540358 -254.56740229 593.7896428 -251 586 C-251.28584961 586.53173828 -251.57169922 587.06347656 -251.86621094 587.61132812 C-255.09831885 593.30950197 -259.41569207 595.46980633 -265.1875 598 C-276.34549856 602.9031188 -284.66320724 609.25610348 -293.1015625 618.09375 C-293.72804688 618.7228125 -294.35453125 619.351875 -295 620 C-295.33 620 -295.66 620 -296 620 C-297.38537424 603.02916557 -288.15769414 583.98027464 -278 571 C-272.74905711 565.18027366 -266.97076383 560.05705766 -261 555 C-265.95872694 555.65241313 -270.91675825 556.30983357 -275.87426758 556.97143555 C-277.55248075 557.19473908 -279.23086083 557.41679267 -280.90942383 557.63745117 C-290.26696704 558.86848548 -299.57335583 560.22476705 -308.85974121 561.91348267 C-316.02634627 563.20838425 -323.21825439 564.22568241 -330.4375 565.1875 C-331.70787109 565.36474609 -332.97824219 565.54199219 -334.28710938 565.72460938 C-341.23834503 566.65696051 -347.98544075 567.2667638 -355 567 C-351.59629996 562.67638103 -348.12412775 559.17830001 -343.8125 555.75 C-338.69259636 551.67355498 -334.13081698 547.23205953 -329.5625 542.56640625 C-326.78499646 539.78466871 -323.88247849 537.22557737 -320.89453125 534.67578125 C-318.13064629 532.23102528 -315.58015483 529.58918448 -312.9921875 526.9609375 C-311.09672926 525.09521194 -309.14553265 523.35340745 -307.125 521.625 C-302.15078153 517.35430645 -297.59056416 512.67522621 -293 508 C-293.53778076 508.17128418 -294.07556152 508.34256836 -294.62963867 508.51904297 C-313.88659193 514.60451139 -334.7715629 519.56323317 -355 515 C-351.95069735 512.58657088 -348.78452856 510.73719634 -345.375 508.875 C-337.26876132 504.19756154 -330.71358448 498.40168899 -325 491 C-326.00244751 490.98598145 -326.00244751 490.98598145 -327.02514648 490.97167969 C-344.9706222 490.65763001 -360.33495545 489.35096446 -376.75 481.875 C-377.84803955 481.3809668 -377.84803955 481.3809668 -378.96826172 480.87695312 C-393.23148098 473.93655217 -403.98968404 462.33011645 -414.77050781 451.01708984 C-424.64390172 440.69391405 -434.71764389 431.49965017 -449 428 C-449.98484375 427.74734375 -450.9696875 427.4946875 -451.984375 427.234375 C-459.59549022 425.37711722 -467.24339373 424.07906961 -475 423 C-475 422.34 -475 421.68 -475 421 C-447.69717771 404.04616736 -419.8227006 402.06381615 -389 409 C-385.67227583 409.86483578 -382.36841081 410.8057454 -379.0625 411.75 C-368.45853461 414.72799321 -356.87903484 416.40317188 -346.52734375 411.5546875 C-341.01373909 408.16301106 -335.99549931 404.10288658 -331 400 C-335.5109644 398.4963452 -339.9624326 398.81558224 -344.6875 398.8125 C-345.65623047 398.80025391 -346.62496094 398.78800781 -347.62304688 398.77539062 C-353.47215391 398.76352631 -358.37637077 399.43133606 -364 401 C-365.32 401 -366.64 401 -368 401 C-361.20165245 384.66877405 -336.10407271 370.71032332 -321 364 C-313.51147029 360.91843689 -305.88268462 358.8159064 -298 357 C-311.52813255 351.89283757 -323.62617836 349.67767397 -338 349 C-335.04035099 344.86657291 -332.03576166 342.48089124 -327.6875 339.875 C-326.59824219 339.21242188 -325.50898438 338.54984375 -324.38671875 337.8671875 C-306.92005564 328.23735478 -285.27797544 326.14801517 -266 331 C-266.76183594 330.26136719 -267.52367187 329.52273438 -268.30859375 328.76171875 C-274.14481058 323.04803968 -279.56937829 317.25232262 -284.65625 310.84765625 C-287.3200323 307.61116075 -290.13369837 304.55631034 -293 301.5 C-297.49674203 296.69838211 -301.72439927 291.7548387 -305.84765625 286.625 C-308.75100915 283.08406869 -311.81467395 279.70371918 -314.89453125 276.31640625 C-317.98069904 272.92104911 -320.99638858 269.46838688 -324 266 C-324.45842285 265.47325684 -324.9168457 264.94651367 -325.38916016 264.40380859 C-326.97111988 262.58458004 -328.5484105 260.76138355 -330.125 258.9375 C-330.87970581 258.0707666 -330.87970581 258.0707666 -331.6496582 257.18652344 C-335.01743071 253.2771355 -338.05331472 249.23653469 -341 245 C-332.81669361 245.96224337 -324.77107636 247.48736324 -316.6875 249.0625 C-315.51755493 249.28951599 -315.51755493 249.28951599 -314.32397461 249.52111816 C-302.1672938 251.88838083 -290.06970148 254.47396702 -278 257.25 C-276.91578262 257.49932785 -276.91578262 257.49932785 -275.80966187 257.75369263 C-267.18338328 259.74408777 -258.58003881 261.81842763 -250 264 C-250.845625 263.21238281 -251.69125 262.42476563 -252.5625 261.61328125 C-268.91709658 246.05287836 -279.25946987 226.42108825 -280.13183594 203.54248047 C-280.60252345 180.76643474 -280.60252345 180.76643474 -279 173 C-277.47973258 151.24654592 -280.30274549 131.13841831 -294.84008789 114.02539062 C-296.99319319 111.57167459 -299.184744 109.15694078 -301.39892578 106.75830078 C-304.00252558 103.89902574 -306.50152491 100.95110959 -309 98 C-303.22389066 97.77512366 -298.65019243 98.35357686 -293.1875 100.1875 C-292.14384277 100.5280542 -292.14384277 100.5280542 -291.07910156 100.87548828 C-267.0663591 108.90006989 -247.68559621 123.62440211 -234 145 C-233.43796875 145.86625 -232.8759375 146.7325 -232.296875 147.625 C-229.01240673 152.95116476 -226.41272874 158.30684357 -224.11987305 164.11254883 C-218.65246316 177.91993905 -211.83782755 186.64207923 -198 193 C-194.37885941 194.29950152 -190.7581451 195.19250666 -187 196 C-184.60413124 196.56234911 -182.20829821 197.12485042 -179.8125 197.6875 C-177.87550137 198.12721447 -175.93818103 198.56552699 -174 199 C-178.09335796 188.16464069 -184.59026393 179.84384729 -193 172 C-194.02558132 170.98393684 -195.04743395 169.96406822 -196.0625 168.9375 C-196.701875 168.298125 -197.34125 167.65875 -198 167 C-179.0023661 165.9531916 -158.16000915 173.1514652 -143.76171875 185.78515625 C-140.43642989 188.7804398 -137.16497885 191.83502115 -134 195 C-134.34346996 183.13311291 -135.80495733 171.5416904 -137.48510742 159.79711914 C-138.56547439 152.2237712 -139.53012856 144.66324416 -140.27880859 137.05053711 C-140.93566074 130.41604041 -141.74588415 123.80404434 -142.5625 117.1875 C-143.63280527 108.46471 -144.54452203 99.7797306 -145 91 C-141.08848784 94.76189148 -137.67195485 98.74234228 -134.3125 103 C-133.78849609 103.65935547 -133.26449219 104.31871094 -132.72460938 104.99804688 C-129.03148573 109.65809744 -125.39800984 114.3614283 -121.78808594 119.08618164 C-118.10381127 123.89636948 -114.32250706 128.62560568 -110.52685547 133.34814453 C-106.74467581 138.05686773 -103.01594373 142.80472042 -99.30517578 147.56982422 C-96.68052433 150.92034255 -94.00067432 154.21601323 -91.26953125 157.48046875 C-90.31602783 158.62249756 -90.31602783 158.62249756 -89.34326172 159.78759766 C-88.09928322 161.27253125 -86.84983722 162.75290647 -85.59423828 164.22802734 C-82.71225465 167.66860457 -80.30679837 170.61838194 -79 175 C-78.34 175 -77.68 175 -77 175 C-78.42601696 161.93097395 -80.57271439 149.43856433 -85 137 C-82 137 -82 137 -80.1953125 138.6875 C-79.51210938 139.450625 -78.82890625 140.21375 -78.125 141 C-71.77500015 147.60024615 -64.17910046 151.958239 -56 156 C-56.0314209 154.85337891 -56.0314209 154.85337891 -56.06347656 153.68359375 C-56.73894117 125.26277924 -56.73894117 125.26277924 -52 112 C-51.66097656 110.989375 -51.32195312 109.97875 -50.97265625 108.9375 C-45.19807407 93.48381389 -34.82108286 80.57938647 -23.7734375 68.58203125 C-5.94476497 49.13569925 -2.01438147 25.39180849 0 0 Z " fill="#030303" transform="translate(734,45)"/>
<path d="M0 0 C0.99128906 0.51304687 1.98257812 1.02609375 3.00390625 1.5546875 C19.00612914 9.97691007 33.43333724 21.06932864 46.47314453 33.54052734 C47.50315775 34.52508427 48.53812459 35.5044814 49.57763672 36.47900391 C67.96653507 53.76087828 82.55411009 75.06896155 93 98 C93.33628418 98.73444336 93.67256836 99.46888672 94.01904297 100.22558594 C117.94269341 153.10707911 119.49598177 211.86091898 99.0625 266.125 C95.58536161 275.03921007 91.52713214 283.57690059 87 292 C86.40960937 293.13179687 85.81921875 294.26359375 85.2109375 295.4296875 C77.04023618 310.4846393 66.48187709 324.26197656 54.49316406 336.47167969 C52.96233715 338.03854961 51.46125536 339.63050004 49.9609375 341.2265625 C33.11616378 358.89682772 12.16749904 372.90192899 -10 383 C-10.73444336 383.33628418 -11.46888672 383.67256836 -12.22558594 384.01904297 C-65.10707911 407.94269341 -123.86091898 409.49598177 -178.125 389.0625 C-187.03921007 385.58536161 -195.57690059 381.52713214 -204 377 C-205.13179687 376.40960937 -206.26359375 375.81921875 -207.4296875 375.2109375 C-222.4846393 367.04023618 -236.26197656 356.48187709 -248.47167969 344.49316406 C-250.03854961 342.96233715 -251.63050004 341.46125536 -253.2265625 339.9609375 C-270.89682772 323.11616378 -284.90192899 302.16749904 -295 280 C-295.50442627 278.89833496 -295.50442627 278.89833496 -296.01904297 277.77441406 C-319.94269341 224.89292089 -321.49598177 166.13908102 -301.0625 111.875 C-297.58536161 102.96078993 -293.52713214 94.42309941 -289 86 C-288.40960937 84.86820312 -287.81921875 83.73640625 -287.2109375 82.5703125 C-279.04023618 67.5153607 -268.48187709 53.73802344 -256.49316406 41.52832031 C-254.96233715 39.96145039 -253.46125536 38.36949996 -251.9609375 36.7734375 C-235.11616378 19.10317228 -214.16749904 5.09807101 -192 -5 C-191.26555664 -5.33628418 -190.53111328 -5.67256836 -189.77441406 -6.01904297 C-129.03438222 -33.49790565 -58.88218426 -31.6599371 0 0 Z " fill="#000000" transform="translate(832,296)"/>
<path d="M0 0 C1.30784958 0.00131424 1.30784958 0.00131424 2.64212036 0.00265503 C48.43467424 0.15355121 93.58876048 14.12944683 130.6875 41.375 C131.26226074 41.79571777 131.83702148 42.21643555 132.42919922 42.64990234 C180.11894731 77.96925098 211.02421172 130.38833401 220.24951172 188.94213867 C221.73106807 199.53440749 222.08893402 210.00036501 222.0625 220.6875 C222.06162384 221.55939972 222.06074768 222.43129944 222.05984497 223.32962036 C221.90894879 269.12217424 207.93305317 314.27626048 180.6875 351.375 C180.05642334 352.23714111 180.05642334 352.23714111 179.41259766 353.11669922 C144.09324902 400.80644731 91.67416599 431.71171172 33.12036133 440.93701172 C22.52809251 442.41856807 12.06213499 442.77643402 1.375 442.75 C0.06715042 442.74868576 0.06715042 442.74868576 -1.26712036 442.74734497 C-47.05967424 442.59644879 -92.21376048 428.62055317 -129.3125 401.375 C-129.88726074 400.95428223 -130.46202148 400.53356445 -131.05419922 400.10009766 C-178.74394731 364.78074902 -209.64921172 312.36166599 -218.87451172 253.80786133 C-220.35606807 243.21559251 -220.71393402 232.74963499 -220.6875 222.0625 C-220.68662384 221.19060028 -220.68574768 220.31870056 -220.68484497 219.42037964 C-220.53394879 173.62782576 -206.55805317 128.47373952 -179.3125 91.375 C-178.89178223 90.80023926 -178.47106445 90.22547852 -178.03759766 89.63330078 C-142.71824902 41.94355269 -90.29916599 11.03828828 -31.74536133 1.81298828 C-21.15309251 0.33143193 -10.68713499 -0.02643402 0 0 Z M-102.3125 33.375 C-103.44429687 33.96539062 -104.57609375 34.55578125 -105.7421875 35.1640625 C-120.7971393 43.33476382 -134.57447656 53.89312291 -146.78417969 65.88183594 C-148.35104961 67.41266285 -149.94300004 68.91374464 -151.5390625 70.4140625 C-169.20932772 87.25883622 -183.21442899 108.20750096 -193.3125 130.375 C-193.64878418 131.10944336 -193.98506836 131.84388672 -194.33154297 132.60058594 C-218.25519341 185.48207911 -219.80848177 244.23591898 -199.375 298.5 C-195.89786161 307.41421007 -191.83963214 315.95190059 -187.3125 324.375 C-186.72210937 325.50679687 -186.13171875 326.63859375 -185.5234375 327.8046875 C-177.35273618 342.8596393 -166.79437709 356.63697656 -154.80566406 368.84667969 C-153.27483715 370.41354961 -151.77375536 372.00550004 -150.2734375 373.6015625 C-133.42866378 391.27182772 -112.47999904 405.27692899 -90.3125 415.375 C-89.57805664 415.71128418 -88.84361328 416.04756836 -88.08691406 416.39404297 C-35.20542089 440.31769341 23.54841898 441.87098177 77.8125 421.4375 C86.72671007 417.96036161 95.26440059 413.90213214 103.6875 409.375 C104.81929687 408.78460937 105.95109375 408.19421875 107.1171875 407.5859375 C122.1721393 399.41523618 135.94947656 388.85687709 148.15917969 376.86816406 C149.72604961 375.33733715 151.31800004 373.83625536 152.9140625 372.3359375 C170.58432772 355.49116378 184.58942899 334.54249904 194.6875 312.375 C195.02378418 311.64055664 195.36006836 310.90611328 195.70654297 310.14941406 C219.63019341 257.26792089 221.18348177 198.51408102 200.75 144.25 C197.27286161 135.33578993 193.21463214 126.79809941 188.6875 118.375 C188.09710937 117.24320312 187.50671875 116.11140625 186.8984375 114.9453125 C178.72773618 99.8903607 168.16937709 86.11302344 156.18066406 73.90332031 C154.64983715 72.33645039 153.14875536 70.74449996 151.6484375 69.1484375 C134.80366378 51.47817228 113.85499904 37.47307101 91.6875 27.375 C90.95305664 27.03871582 90.21861328 26.70243164 89.46191406 26.35595703 C27.57555539 -1.64150527 -42.5049488 1.23045631 -102.3125 33.375 Z " fill="#E3E3E3" transform="translate(730.3125,263.625)"/>
<path d="M0 0 C0 0.33 0 0.66 0 1 C-1.14855469 1.08636719 -2.29710937 1.17273438 -3.48046875 1.26171875 C-16.11287226 2.35034272 -26.37503106 4.61281745 -37 12 C-35.43765625 12.29390625 -35.43765625 12.29390625 -33.84375 12.59375 C-17.01694933 15.99834823 -4.18897014 23.71758241 10.11645508 32.98120117 C28.3149624 44.73077716 43.80828113 50.51799749 65.51171875 46.05859375 C71.35305863 44.75429279 77.03592774 42.92639388 82.74267578 41.13574219 C89.45480291 39.06463138 96.00079664 37.7407916 103 37 C100.57900954 39.6041575 97.91361651 41.5339792 95 43.5625 C90.97088505 46.45100049 87.2974765 49.47894803 83.6875 52.875 C74.23091685 61.63109551 63.88224689 68.91837918 52 74 C50.94296875 74.48597656 49.8859375 74.97195313 48.796875 75.47265625 C40.56122051 78.7872302 33.13003125 79.45959745 24.3125 79.5 C22.76332886 79.50942627 22.76332886 79.50942627 21.18286133 79.51904297 C13.78447754 79.39782551 7.09346081 78.0666548 0 76 C0 75.67 0 75.34 0 75 C0.83640015 74.90295776 0.83640015 74.90295776 1.68969727 74.80395508 C22.19326462 72.35026674 38.55920317 66.15245443 57 57 C56.09967041 57.13631836 56.09967041 57.13631836 55.18115234 57.27539062 C22.11851723 62.12748007 -10.11365988 59.84293455 -43 55 C-40.31820278 52.83276884 -37.96649363 51.43499439 -34.6875 50.375 C-33.96949219 50.13523437 -33.25148438 49.89546875 -32.51171875 49.6484375 C-26.75409096 48.16202037 -21.04585568 47.8350328 -15.125 47.875 C-14.07989258 47.87790039 -14.07989258 47.87790039 -13.01367188 47.88085938 C-7.93694334 47.92336222 -3.02159106 48.28262985 2 49 C-12.67979312 39.31080562 -27.38554902 34.17592026 -45.13818359 37.38671875 C-60.76362107 41.03326192 -72.79644426 50.01691372 -85 60 C-85.74609375 58.36328125 -85.74609375 58.36328125 -86 56 C-78.23696151 42.4766725 -66.3502157 33.56646686 -51.59375 28.9296875 C-44.79168942 27.26156312 -37.98575982 26.40598604 -31 26 C-31.95261719 25.66226563 -32.90523437 25.32453125 -33.88671875 24.9765625 C-35.1536641 24.52609304 -36.42059016 24.07556933 -37.6875 23.625 C-38.92886719 23.18414062 -40.17023437 22.74328125 -41.44921875 22.2890625 C-45 21 -45 21 -47.484375 19.86328125 C-56.49484693 16.77117831 -66.92159547 18.49155174 -75.29296875 22.48828125 C-79.36581858 24.76272985 -83.24127381 27.23790575 -87 30 C-87.96229455 24.43035578 -88.27069659 19.90224041 -85.04296875 15.0703125 C-76.29448852 6.02722752 -64.91732267 -1.84078974 -53 -6 C-52.00742187 -6.35320312 -51.01484375 -6.70640625 -49.9921875 -7.0703125 C-34.35399008 -11.40489204 -13.54911857 -9.09217167 0 0 Z " fill="#F7F7F8" transform="translate(1043,432)"/>
<path d="M0 0 C2.84181491 2.40810769 4.43309286 3.77454938 5.4375 7.37890625 C5.53883776 11.73009637 5.13053191 14.02295213 2.6875 17.6875 C1.44033203 17.16349609 1.44033203 17.16349609 0.16796875 16.62890625 C-0.91871094 16.17386719 -2.00539063 15.71882813 -3.125 15.25 C-4.74341797 14.57130859 -4.74341797 14.57130859 -6.39453125 13.87890625 C-17.37536777 9.39543217 -29.28290349 11.50531616 -40.0625 15.77734375 C-42.17154747 16.70334741 -44.25048403 17.66169912 -46.3125 18.6875 C-45.30832031 18.78546875 -44.30414063 18.8834375 -43.26953125 18.984375 C-27.16794366 20.68521904 -10.98595164 24.55279971 0.55078125 36.84375 C2.58808453 40.14824192 2.15065847 42.91606671 1.6875 46.6875 C1.03265625 46.25179687 0.3778125 45.81609375 -0.296875 45.3671875 C-17.60591829 34.07230332 -35.08607842 26.27506267 -56 30.41796875 C-64.15562046 32.77425061 -73.78186565 35.8999033 -79.3125 42.6875 C-78.78785156 42.543125 -78.26320313 42.39875 -77.72265625 42.25 C-63.53499138 38.85062605 -47.14898007 39.19955329 -34.3125 46.6875 C-34.3125 47.0175 -34.3125 47.3475 -34.3125 47.6875 C-35.32183594 47.79707031 -36.33117187 47.90664063 -37.37109375 48.01953125 C-38.39444824 48.13192139 -38.39444824 48.13192139 -39.43847656 48.24658203 C-41.01966051 48.4199311 -42.60105235 48.59139161 -44.18261719 48.76123047 C-48.8069451 49.26638708 -53.41422302 49.83104833 -58.01953125 50.48828125 C-82.83663221 53.94024576 -107.43342744 53.19878357 -132.3125 50.6875 C-113.42102012 60.15032967 -97.42043015 65.97726259 -76.3125 67.6875 C-83.4826698 71.51990147 -91.06040246 72.02941546 -99.0625 71.9375 C-99.93720947 71.92928223 -100.81191895 71.92106445 -101.71313477 71.91259766 C-114.28474787 71.69718356 -124.13075231 69.63676319 -135.3125 63.6875 C-136.15296875 63.24535156 -136.9934375 62.80320312 -137.859375 62.34765625 C-147.83595164 56.72360569 -156.73518763 49.18406379 -165.0625 41.375 C-169.75626814 37.00205405 -174.66263314 33.70239641 -180.3125 30.6875 C-176.46038549 29.24648895 -173.75488646 30.14702224 -169.875 31.25 C-168.92101318 31.51647339 -168.92101318 31.51647339 -167.94775391 31.78833008 C-165.73274374 32.41043255 -163.52262481 33.0482639 -161.3125 33.6875 C-158.54186055 34.482003 -155.77088083 35.27530739 -152.99975586 36.06811523 C-151.15198945 36.59827132 -149.3051137 37.13154345 -147.45922852 37.66821289 C-146.17616821 38.03934204 -146.17616821 38.03934204 -144.8671875 38.41796875 C-143.72999268 38.74897583 -143.72999268 38.74897583 -142.56982422 39.08666992 C-125.1247609 43.73000767 -108.49041453 38.46196142 -93.3125 29.6875 C-89.78883011 27.53819102 -86.33229898 25.28928137 -82.8828125 23.0234375 C-69.42466752 14.18758196 -56.57903127 6.87158336 -40.3125 4.6875 C-52.71002656 -2.6982605 -63.95447905 -5.25717157 -78.3125 -6.3125 C-75.64281172 -9.63262142 -72.45049151 -10.56597686 -68.5 -11.9375 C-67.29730469 -12.36289062 -66.09460938 -12.78828125 -64.85546875 -13.2265625 C-41.74585196 -20.3097747 -19.03132293 -13.79222635 0 0 Z " fill="#F8F8F8" transform="translate(500.3125,439.3125)"/>
<path d="M0 0 C9.519795 4.44099618 18.21668461 8.80481294 26 16 C26.71881348 16.6494458 26.71881348 16.6494458 27.45214844 17.31201172 C41.5904592 30.19069492 49.58382454 45.73318711 54.5625 64.125 C56.54326902 71.39547932 58.77377185 78.1870763 62 85 C62.67834587 86.66194738 63.35199575 88.32598903 64 90 C57.69785303 89.66830805 53.14783064 86.32676012 48 83 C50.4152735 95.36051734 60.60281106 104.04472305 70.390625 110.7890625 C79.50443379 116.58308253 89.62888655 120.40860849 99.60546875 124.42578125 C100.63027344 124.84472656 101.65507813 125.26367188 102.7109375 125.6953125 C103.63181152 126.06672363 104.55268555 126.43813477 105.50146484 126.82080078 C107.95013201 127.97646449 109.90375035 129.29737196 112 131 C85.23500956 131.55772314 62.88062906 129.94089955 39 117 C39 116.67 39 116.34 39 116 C47.415 115.505 47.415 115.505 56 115 C54.47375 114.505 52.9475 114.01 51.375 113.5 C36.48508668 108.05247074 22.78674518 98.55092876 12 87 C11.21625 86.236875 10.4325 85.47375 9.625 84.6875 C1.21840853 76.08075159 -5.54285914 67.11034582 -12 57 C-11.01 56.505 -11.01 56.505 -10 56 C8.85694392 63.09532466 22.94573157 75.94573157 37 90 C25.82746045 63.68007509 10.14785635 46.09155314 -16.171875 34.6171875 C-18.43567823 33.70271331 -20.7013134 32.8221185 -23 32 C-21.31147357 28.55658584 -19.82102828 25.66854026 -17 23 C-11.31153006 23.25566157 -6.78807491 25.13048384 -1.75 27.5625 C-1.00492188 27.91892578 -0.25984375 28.27535156 0.5078125 28.64257812 C6.87462316 31.77641486 12.51823288 35.4819629 18 40 C18.79921875 40.64839844 19.5984375 41.29679688 20.421875 41.96484375 C25.71353553 46.4485494 29.95279388 51.37815742 34 57 C28.42561003 35.81731812 12.63368662 21.03024633 -4 8 C-2.87548273 5.0280615 -1.77706209 2.66559313 0 0 Z " fill="#F8F8F9" transform="translate(921,608)"/>
<path d="M0 0 C1.65 2.97 3.3 5.94 5 9 C4.38253906 9.47308594 3.76507812 9.94617188 3.12890625 10.43359375 C-12.52666117 22.65780393 -21.22916014 35.92898808 -29 54 C-26.4633669 51.51288902 -24.09142637 48.97345768 -21.8125 46.25 C-12.99409154 36.15844552 -0.91940344 26.2329786 12 22 C15.2302908 22.15149624 16.52939403 22.51714398 18.80078125 24.84765625 C19.54908203 25.94400391 19.54908203 25.94400391 20.3125 27.0625 C20.82425781 27.79597656 21.33601562 28.52945313 21.86328125 29.28515625 C22.42595703 30.13400391 22.42595703 30.13400391 23 31 C21.96101562 31.49628906 20.92203125 31.99257813 19.8515625 32.50390625 C3.76788045 40.29075736 -10.43798553 49.46713486 -20 65 C-20.33805664 65.54881836 -20.67611328 66.09763672 -21.02441406 66.66308594 C-25.21061338 73.52875644 -28.84692413 80.19509996 -31 88 C-30.64550781 87.56171875 -30.29101562 87.1234375 -29.92578125 86.671875 C-18.61583891 73.19852964 -1.03502751 55.60024426 17 53 C8.12373602 77.88922261 -18.99642665 97.98413033 -42 109 C-44.6462205 110.08241827 -47.30122693 111.0516176 -50 112 C-42.90565767 112.09733092 -36.01805857 112.10087193 -29 111 C-31.03214407 115.06428813 -36.98664645 116.29884648 -41 118 C-41.98613281 118.42796875 -42.97226562 118.8559375 -43.98828125 119.296875 C-60.14387312 125.94797 -76.64557996 128.18161693 -94 128.0625 C-95.25167969 128.05798828 -96.50335938 128.05347656 -97.79296875 128.04882812 C-100.86202941 128.03711415 -103.93098907 128.02071073 -107 128 C-104.46237695 125.99006437 -102.12386788 124.47691416 -99.12109375 123.2734375 C-98.00033447 122.81602173 -98.00033447 122.81602173 -96.85693359 122.34936523 C-96.05852051 122.02782471 -95.26010742 121.70628418 -94.4375 121.375 C-63.45136277 108.69454789 -63.45136277 108.69454789 -43 83 C-43 82.01 -43 81.02 -43 80 C-43.65226562 80.42152344 -44.30453125 80.84304688 -44.9765625 81.27734375 C-45.85054688 81.82519531 -46.72453125 82.37304688 -47.625 82.9375 C-48.48351562 83.48277344 -49.34203125 84.02804687 -50.2265625 84.58984375 C-53.1957564 86.09953248 -55.70789623 86.6186566 -59 87 C-58.60167969 86.16597656 -58.20335937 85.33195313 -57.79296875 84.47265625 C-54.26648434 76.98209447 -51.1385158 69.76930498 -49.21484375 61.7109375 C-42.67796995 34.82769026 -27.4560257 15.41166686 -4 1 C-2 0 -2 0 0 0 Z " fill="#F8F8F8" transform="translate(540,611)"/>
<path d="M0 0 C2.46716557 2.25817929 4.88953265 4.55907157 7.30834961 6.86914062 C8.23389648 7.74183594 9.15944336 8.61453125 10.11303711 9.51367188 C50.9521886 49.02236942 71.58264897 105.79505086 72.55834961 161.86914062 C71.55441697 219.5657399 50.11604343 272.18747549 10.30834961 313.86914062 C8.99930664 315.25746094 8.99930664 315.25746094 7.66381836 316.67382812 C-31.84487919 357.51297962 -88.61756063 378.14343998 -144.69165039 379.11914062 C-202.38824967 378.11520799 -255.00998525 356.67683444 -296.69165039 316.86914062 C-297.61719727 315.99644531 -298.54274414 315.12375 -299.49633789 314.22460938 C-340.33548938 274.71591183 -360.96594975 217.94323039 -361.94165039 161.86914062 C-360.93771775 104.17254135 -339.49934421 51.55080576 -299.69165039 9.86914062 C-298.81895508 8.94359375 -297.94625977 8.01804687 -297.04711914 7.06445312 C-230.60458982 -61.61552594 -119.18935672 -73.63142439 0 0 Z M-247.69165039 -26.13085938 C-248.82344727 -25.54046875 -249.95524414 -24.95007813 -251.12133789 -24.34179688 C-266.17628969 -16.17109555 -279.95362695 -5.61273646 -292.16333008 6.37597656 C-293.7302 7.90680347 -295.32215043 9.40788527 -296.91821289 10.90820312 C-314.58847811 27.75297685 -328.59357938 48.70164158 -338.69165039 70.86914062 C-339.02793457 71.60358398 -339.36421875 72.33802734 -339.71069336 73.09472656 C-363.6343438 125.97621973 -365.18763216 184.73005961 -344.75415039 238.99414062 C-341.277012 247.9083507 -337.21878253 256.44604121 -332.69165039 264.86914062 C-332.10125977 266.0009375 -331.51086914 267.13273437 -330.90258789 268.29882812 C-322.73188657 283.35377992 -312.17352748 297.13111719 -300.18481445 309.34082031 C-298.65398754 310.90769024 -297.15290575 312.49964067 -295.65258789 314.09570312 C-278.80781417 331.76596834 -257.85914943 345.77106962 -235.69165039 355.86914062 C-234.95720703 356.2054248 -234.22276367 356.54170898 -233.46606445 356.88818359 C-180.58457128 380.81183403 -121.83073141 382.36512239 -67.56665039 361.93164062 C-58.65244032 358.45450223 -50.1147498 354.39627276 -41.69165039 349.86914062 C-40.55985352 349.27875 -39.42805664 348.68835938 -38.26196289 348.08007812 C-23.20701109 339.9093768 -9.42967383 329.35101771 2.7800293 317.36230469 C4.34689922 315.83147778 5.93884965 314.33039598 7.53491211 312.83007812 C25.20517732 295.9853044 39.2102786 275.03663967 49.30834961 252.86914062 C49.64463379 252.13469727 49.98091797 251.40025391 50.32739258 250.64355469 C74.25104302 197.76206152 75.80433138 139.00822164 55.37084961 84.74414062 C51.89371122 75.82993055 47.83548175 67.29224004 43.30834961 58.86914062 C42.71795898 57.73734375 42.12756836 56.60554688 41.51928711 55.43945312 C33.34858579 40.38450133 22.7902267 26.60716406 10.80151367 14.39746094 C9.27068676 12.83059101 7.76960497 11.23864058 6.26928711 9.64257812 C-10.57548661 -8.02768709 -31.52415135 -22.03278837 -53.69165039 -32.13085938 C-54.42609375 -32.46714355 -55.16053711 -32.80342773 -55.91723633 -33.14990234 C-117.803595 -61.14736465 -187.88409919 -58.27540306 -247.69165039 -26.13085938 Z " fill="#ECECEC" transform="translate(875.691650390625,323.130859375)"/>
<path d="M0 0 C3.38791766 3.95257061 5.8460893 8.04349152 8.25 12.625 C8.63841064 13.35847656 9.02682129 14.09195313 9.42700195 14.84765625 C12.33161923 20.44566736 14.81239191 26.16076046 17.1875 32 C19.85260716 38.53048996 22.59030161 44.43244784 27 50 C27.39960938 50.58265625 27.79921875 51.1653125 28.2109375 51.765625 C37.77071932 64.6278769 55.31111883 69.86450057 69.87744141 74.54980469 C87.75762613 80.32662641 103.37859234 87.92072874 113 105 C117.84236057 115.39847949 117.84236057 115.39847949 116 121 C114.2120002 123.16808359 112.34503954 124.35847232 110 126 C109.01 126 108.02 126 107 126 C105.7109375 124.1640625 105.7109375 124.1640625 104.375 121.625 C95.29914783 105.75906584 80.66878143 94.8446687 64 88 C64.33 88.33 64.66 88.66 65 89 C77.00676334 101.06664745 84.0761406 114.95638699 85 132 C83.25303354 129.72617064 81.61103413 127.42075417 80.01171875 125.0390625 C70.62085015 111.11891521 59.22809092 100.57897761 45.703125 90.7421875 C36.13426546 83.74806178 26.92488798 75.36402424 21 65 C21.41592532 81.75044679 30.56494145 96.43986874 41 109 C35.78496538 109 32.0700104 105.02215843 28 102 C26.96875 101.2575 25.9375 100.515 24.875 99.75 C13.13282665 88.51835593 7.27771797 73.64126291 4 58 C3.82412354 57.20795166 3.64824707 56.41590332 3.46704102 55.59985352 C1.48404031 45.50238172 1.58192537 35.31311295 1.4375 25.0625 C1.39337324 22.26997521 1.34662978 19.47755616 1.29469299 16.68516541 C1.26305691 14.96012002 1.23607119 13.23498101 1.21446228 11.50978088 C1.14615296 7.55123148 0.96781948 3.86493957 0 0 Z " fill="#F7F7F8" transform="translate(474,187)"/>
<path d="M0 0 C0.495 1.485 0.495 1.485 1 3 C0.67 3.66 0.34 4.32 0 5 C-0.12143475 7.91123825 -0.18588446 10.80245349 -0.2109375 13.71484375 C-0.23907766 15.53581518 -0.26774226 17.35677856 -0.296875 19.17773438 C-0.33757225 22.02920672 -0.3744626 24.8805404 -0.40136719 27.73217773 C-0.50340215 37.6972988 -0.82252257 47.4883831 -2.3671875 57.34765625 C-2.48460297 58.09740219 -2.60201843 58.84714813 -2.72299194 59.61961365 C-5.84675676 77.733042 -14.72999731 93.90640333 -29.640625 104.95703125 C-31.73231946 106.36136071 -33.83446712 107.71323408 -36 109 C-36.66 108.67 -37.32 108.34 -38 108 C-37.43152344 107.22398437 -36.86304688 106.44796875 -36.27734375 105.6484375 C-27.76928466 93.83189436 -18.54206832 80.11174559 -19 65 C-19.56847656 65.78503906 -20.13695312 66.57007813 -20.72265625 67.37890625 C-29.27306676 79.01260336 -38.93320006 87.21820942 -50.41796875 95.80859375 C-63.10882018 105.44809293 -75.1374709 116.33216624 -82 131 C-82.33 131 -82.66 131 -83 131 C-82.70098068 115.66846391 -76.37657751 102.18389595 -65.5625 91.3125 C-64.38505675 90.1976154 -63.20138259 89.08904552 -62 88 C-74.65990802 93.9326663 -74.65990802 93.9326663 -86 102 C-86.79664063 102.63164062 -87.59328125 103.26328125 -88.4140625 103.9140625 C-97.11691264 111.14452712 -102.07215 119.94839159 -107 130 C-112.75 126.25 -112.75 126.25 -115 124 C-115.70376822 113.11505146 -109.29865152 102.3438312 -103 94 C-92.41646038 82.17257824 -77.54570219 76.71222953 -62.875 71.9375 C-44.54575949 65.95652845 -28.41692341 58.85457351 -19 41 C-16.49546237 35.40327293 -14.27106595 29.69698259 -12.04101562 23.98657227 C-8.6970155 15.48130954 -4.95573018 7.68209177 0 0 Z " fill="#F7F7F8" transform="translate(991,187)"/>
<path d="M0 0 C2.64 0 5.28 0 8 0 C8.81542431 2.08219049 9.62723189 4.16579761 10.4375 6.25 C11.11619141 7.99023438 11.11619141 7.99023438 11.80859375 9.765625 C16.10274924 21.42320122 15.37448126 35.29303976 10.671875 46.6796875 C7.25970141 53.45620047 3.06767567 59.64018216 -1.2890625 65.83203125 C-12.9271625 82.38322137 -18.4691221 96.51261766 -16 117 C-14.9725831 122.56435947 -13.64928114 128.03648743 -12.13574219 133.48779297 C-10.45438041 139.56004201 -9.68661061 144.69303861 -10 151 C-11.91371155 148.12943268 -13.4265332 145.25500378 -15 142.1875 C-18.38691663 135.84408739 -22.33836267 130.1484654 -26.57421875 124.3515625 C-38.15687034 108.47584983 -44.59652696 94.01357507 -44.5 74.125 C-44.49935547 72.87372314 -44.49871094 71.62244629 -44.49804688 70.33325195 C-44.31543766 58.76039301 -42.19604853 48.08343971 -39 37 C-33.07504381 42.92495619 -33.73414751 53.74735386 -33.70703125 61.578125 C-33.71596042 65.46925146 -33.76170081 69.35922921 -33.8125 73.25 C-33.82757581 75.26691708 -33.84125909 77.28384507 -33.85351562 79.30078125 C-33.88628759 84.20079428 -33.93790964 89.10027436 -34 94 C-33.66371582 92.82937012 -33.32743164 91.65874023 -32.98095703 90.45263672 C-32.53174646 88.90327074 -32.08235543 87.35395708 -31.6328125 85.8046875 C-31.41214111 85.03471436 -31.19146973 84.26474121 -30.96411133 83.47143555 C-29.60868377 78.8160536 -28.00544426 74.48657586 -25.91015625 70.109375 C-19.35265434 54.91173108 -18.84945019 37.04198706 -24.91113281 21.69287109 C-26.93012379 16.76359709 -29.03458338 11.87457048 -31.19970703 7.0078125 C-31.99078969 5.02310726 -32.53251475 3.08238125 -33 1 C-29.52609039 0.44389984 -26.45958705 0.28207066 -23 1 C-20.07002949 3.46665669 -18.65360219 6.58944549 -17 10 C-16.70996094 10.57862793 -16.41992188 11.15725586 -16.12109375 11.75341797 C-11.22035575 21.55745711 -7.00029376 30.99676861 -6 42 C-2.22745363 28.04157841 -0.65489264 14.39040396 0 0 Z " fill="#F8F8F8" transform="translate(748,713)"/>
<path d="M0 0 C0.33 0 0.66 0 1 0 C1.17991552 5.57738099 0.66731456 10.41360881 -0.8125 15.8125 C-0.99337158 16.504646 -1.17424316 17.19679199 -1.3605957 17.90991211 C-2.64083858 22.78070823 -3.98350793 27.63589045 -5.38671875 32.47265625 C-7.85095137 42.62780596 -9.46801345 56.56459494 -4.24609375 66.05078125 C-3.83488281 66.69402344 -3.42367187 67.33726562 -3 68 C-2.59910156 68.67417969 -2.19820312 69.34835938 -1.78515625 70.04296875 C0.84543405 74.22903853 3.83959146 78.07087047 6.94287109 81.90942383 C20.05236956 98.18567294 27.62967041 114.33391086 26.24951172 135.7109375 C25.63395195 141.35818637 23.92843702 146.67162783 22 152 C21.67 152.99 21.34 153.98 21 155 C19.7625 155.020625 18.525 155.04125 17.25 155.0625 C16.55390625 155.07410156 15.8578125 155.08570313 15.140625 155.09765625 C12.96707597 154.99849799 11.08693463 154.59693851 9 154 C9.2165625 153.21302734 9.2165625 153.21302734 9.4375 152.41015625 C13.4030005 135.85969929 11.30360524 119.83489948 3 105 C2.96132813 106.95679688 2.96132813 106.95679688 2.921875 108.953125 C2.51636097 123.11627885 0.90188407 134.50615923 -8 146 C-8.57105469 146.76957031 -9.14210938 147.53914062 -9.73046875 148.33203125 C-14.1263026 153.87291674 -14.1263026 153.87291674 -18.4375 154.5 C-19.283125 154.335 -20.12875 154.17 -21 154 C-19.82833618 150.05894898 -18.29606377 146.40526326 -16.5625 142.6875 C-9.03814472 126.3958281 -6.59654008 107.15711922 -12 89.75 C-12.69214141 87.89099195 -13.38662796 86.03233105 -14.13037109 84.19335938 C-15.18641076 81.52983878 -16.14987947 78.8390121 -17.11328125 76.140625 C-19.04059225 70.74723515 -21.00787498 65.36975331 -23 60 C-23.22116647 70.4577081 -23.22116647 70.4577081 -22.5 80.875 C-21.23674974 91.85413097 -20.32238293 104.72211663 -25 115 C-25.99 115.495 -25.99 115.495 -27 116 C-39.12626195 62.78097535 -39.12626195 62.78097535 -26.3125 39.9375 C-23.2449043 35.15883332 -19.80890298 30.66064152 -16.37109375 26.14453125 C-10.11544903 17.84833026 -4.27625798 9.51950897 0 0 Z " fill="#F7F7F7" transform="translate(736,106)"/>
<path d="M0 0 C4.44160049 3.8857787 8.73875158 7.91842474 13 12 C14.12535156 13.06347656 14.12535156 13.06347656 15.2734375 14.1484375 C55.52421256 53.12646078 76.14722173 109.47047753 77.33447266 164.71362305 C77.96137348 224.25031848 53.83114557 279.37144523 13 322 C11.93652344 323.12535156 11.93652344 323.12535156 10.8515625 324.2734375 C5.62620182 329.6694222 -0.08199456 334.38380613 -6 339 C-6.5451123 339.42684082 -7.09022461 339.85368164 -7.65185547 340.29345703 C-35.2935172 361.76461433 -68.5499532 376.68600428 -103 383 C-103.75829102 383.14663086 -104.51658203 383.29326172 -105.29785156 383.44433594 C-145.1169601 390.88940448 -187.75491316 385.50997227 -225 370 C-225.85625977 369.6498584 -226.71251953 369.2997168 -227.59472656 368.93896484 C-254.09777911 357.97367507 -276.33953294 341.66926025 -297 322 C-297.72574219 321.31550781 -298.45148437 320.63101562 -299.19921875 319.92578125 C-304.62069401 314.67472565 -309.36151158 308.94658726 -314 303 C-314.64026123 302.18233154 -314.64026123 302.18233154 -315.29345703 301.34814453 C-336.76461433 273.7064828 -351.68600428 240.4500468 -358 206 C-358.14663086 205.24170898 -358.29326172 204.48341797 -358.44433594 203.70214844 C-366.62942465 159.92512558 -359.43955291 112.8835812 -340 73 C-339.52433594 71.97519531 -339.04867187 70.95039063 -338.55859375 69.89453125 C-328.13272563 48.06301462 -313.60736278 29.44426925 -297 12 C-296.31550781 11.27425781 -295.63101563 10.54851562 -294.92578125 9.80078125 C-229.4493437 -57.80065224 -122.00070778 -69.4382694 0 0 Z M-294 12 C-294.92554688 12.87269531 -295.85109375 13.74539063 -296.8046875 14.64453125 C-337.64383899 54.1532288 -358.27429936 110.92591024 -359.25 167 C-358.24606736 224.69659928 -336.80769382 277.31833486 -297 319 C-295.69095703 320.38832031 -295.69095703 320.38832031 -294.35546875 321.8046875 C-254.8467712 362.64383899 -198.07408976 383.27429936 -142 384.25 C-84.30340072 383.24606736 -31.68166514 361.80769382 10 322 C10.92554688 321.12730469 11.85109375 320.25460937 12.8046875 319.35546875 C53.64383899 279.8467712 74.27429936 223.07408976 75.25 167 C74.24606736 109.30340072 52.80769382 56.68166514 13 15 C12.12730469 14.07445312 11.25460937 13.14890625 10.35546875 12.1953125 C-29.1532288 -28.64383899 -85.92591024 -49.27429936 -142 -50.25 C-199.69659928 -49.24606736 -252.31833486 -27.80769382 -294 12 Z " fill="#0D0D0D" transform="translate(873,318)"/>
<path d="M0 0 C-0.47305069 0.47083008 -0.94610138 0.94166016 -1.43348694 1.42675781 C-6.38476399 6.3558022 -11.33243084 11.28844961 -16.27807617 16.22314453 C-18.12091419 18.06097352 -19.96465125 19.89790149 -21.80932617 21.73388672 C-24.47034408 24.38268823 -27.12804403 27.03478125 -29.78515625 29.6875 C-30.60210464 30.49928711 -31.41905304 31.31107422 -32.26075745 32.14746094 C-36.53636793 36.42265754 -40.6556825 40.77127332 -44.59281921 45.36109924 C-56.25038139 58.93830813 -73.04867257 72.81142015 -90 79 C-93 78 -93 78 -94.1875 76.125 C-95 74 -95 74 -95 71 C-93.12109375 69.6328125 -93.12109375 69.6328125 -90.4375 68.125 C-75.15454755 58.75614026 -59.48947195 44.49392573 -49 30 C-57.31270951 32.22950825 -65.14378615 35.41053104 -73.0625 38.75 C-74.348338 39.28794534 -75.63439113 39.82537674 -76.9206543 40.36230469 C-79.45124043 41.41913192 -81.98088641 42.47815767 -84.50976562 43.5390625 C-89.10293981 45.46166703 -93.70611548 47.359316 -98.3125 49.25 C-99.64195119 49.79681639 -100.9713814 50.3436838 -102.30078125 50.890625 C-103.19152344 51.25671875 -104.08226562 51.6228125 -105 52 C-104.43190288 48.07742465 -102.57812926 46.06365708 -99.9375 43.1875 C-98.83728516 41.97126953 -98.83728516 41.97126953 -97.71484375 40.73046875 C-91.37700169 34.3561499 -85.15700367 29.57326102 -77.125 25.5 C-76.20952393 25.02933105 -75.29404785 24.55866211 -74.35083008 24.07373047 C-62.18048105 17.93015091 -49.61413702 13.32084122 -36.5703125 9.39453125 C-32.90512587 8.28858347 -29.26034397 7.12568807 -25.6171875 5.94921875 C-24.49513916 5.58691162 -23.37309082 5.22460449 -22.21704102 4.85131836 C-19.98262145 4.12851688 -17.74871637 3.40412263 -15.51538086 2.67797852 C-13.9705603 2.17995728 -13.9705603 2.17995728 -12.39453125 1.671875 C-11.01551636 1.22473145 -11.01551636 1.22473145 -9.60864258 0.76855469 C-2.5953713 -1.29768565 -2.5953713 -1.29768565 0 0 Z " fill="#F8F8F8" transform="translate(1031,315)"/>
<path d="M0 0 C71.01263337 16.45414676 71.01263337 16.45414676 93 38 C93.76570312 38.6909375 94.53140625 39.381875 95.3203125 40.09375 C101.33281424 45.70821155 101.33281424 45.70821155 102 51 C98.42445783 50.37825361 95.25028882 49.42225669 91.88671875 48.06640625 C90.89663818 47.66921387 89.90655762 47.27202148 88.88647461 46.86279297 C87.83081299 46.43369629 86.77515137 46.00459961 85.6875 45.5625 C84.59767822 45.12309082 83.50785645 44.68368164 82.38500977 44.23095703 C70.88521956 39.57952347 59.43562099 34.80670108 48 30 C52.03174148 35.68126019 56.40137724 40.69188874 61.375 45.5625 C62.04128418 46.22016357 62.70756836 46.87782715 63.39404297 47.55541992 C71.75801293 55.76700159 80.66898791 62.93062042 90 70 C88.125 75.75 88.125 75.75 87 78 C82.42846045 77.45210013 79.14321997 75.48685658 75.375 73 C74.54548828 72.47599609 74.54548828 72.47599609 73.69921875 71.94140625 C61.79892267 64.21289936 51.96784319 54.2563042 42.02832031 44.23413086 C39.74600024 41.9334681 37.45569281 39.64099496 35.1640625 37.34960938 C33.68702651 35.86765927 32.21044806 34.38525297 30.734375 32.90234375 C30.0613031 32.22815903 29.3882312 31.5539743 28.69476318 30.85935974 C24.83085381 26.95721206 21.1518459 22.9551563 17.60113525 18.76515198 C16.00502959 17.00554481 14.33510587 15.50521497 12.5 14 C7.62105559 9.98010224 3.50263316 5.25394974 0 0 Z " fill="#F9F9F9" transform="translate(436,314)"/>
<path d="M0 0 C13.89362674 7.14586246 24.39922145 19.2316467 34.83203125 30.5703125 C39.48313083 35.62447986 44.18760085 40.57198681 49.5 44.9375 C50.325 45.618125 51.15 46.29875 52 47 C52 47.33 52 47.66 52 48 C44.25586972 48.36362033 36.86207911 46.98319728 29.25 45.6875 C26.46785828 45.22278145 23.68507689 44.76194307 20.90234375 44.30078125 C20.2192363 44.18690063 19.53612885 44.07302002 18.83232117 43.95568848 C13.99374224 43.15238932 9.14871273 42.41943205 4.29296875 41.72875977 C-10.36404602 39.63840402 -27.25698525 36.82578785 -39 27 C-38.34 25.02 -37.68 23.04 -37 21 C-28.82832707 22.32898555 -20.92288761 24.27070008 -12.9375 26.4375 C-2.35161062 29.25550464 8.14989825 31.51077035 19 33 C17.96746094 32.37996094 16.93492187 31.75992188 15.87109375 31.12109375 C3.94309404 23.91612236 -7.78222982 16.41730453 -19.39111328 8.70849609 C-21.13774627 7.56466888 -22.90230459 6.44777974 -24.68310547 5.35791016 C-25.5082666 4.84405762 -26.33342773 4.33020508 -27.18359375 3.80078125 C-27.9202124 3.35516846 -28.65683105 2.90955566 -29.41577148 2.45043945 C-29.93856689 1.97179443 -30.4613623 1.49314941 -31 1 C-31 -0.32 -31 -1.64 -31 -3 C-21.14256145 -6.28581285 -9.17487601 -4.30473875 0 0 Z " fill="#F8F8F8" transform="translate(982,537)"/>
<path d="M0 0 C0.495 4.95 0.495 4.95 1 10 C-0.68802734 11.01707031 -0.68802734 11.01707031 -2.41015625 12.0546875 C-11.33367763 17.45571479 -20.11807223 23.00201917 -28.76953125 28.828125 C-39.43705036 36 -39.43705036 36 -42 36 C-42 36.66 -42 37.32 -42 38 C-41.44957031 37.84144531 -40.89914062 37.68289063 -40.33203125 37.51953125 C-32.84140827 35.41751147 -25.28913797 33.62117478 -17.71557617 31.84814453 C-12.98202276 30.73381811 -8.2941592 29.55203267 -3.625 28.1875 C0.40406244 27.04368323 3.82438269 26.72162551 8 27 C8.99 30.96 8.99 30.96 10 35 C-9.86601843 44.36617989 -30.66713592 47.12596116 -52.25 49.875 C-53.14864777 49.99063293 -54.04729553 50.10626587 -54.97317505 50.22540283 C-57.54876316 50.55297852 -60.1254833 50.86872775 -62.703125 51.1796875 C-63.48129074 51.27832092 -64.25945648 51.37695435 -65.061203 51.47857666 C-68.66525898 51.89803247 -71.52430752 52.01683196 -75 51 C-65.23416271 42.14126618 -65.23416271 42.14126618 -61.8125 39.4375 C-57.39405994 35.60818529 -53.78050919 31.10582816 -50.01171875 26.6484375 C-41.90910851 17.31636355 -32.44112094 8.04943326 -21 3 C-19.94619141 2.52626953 -19.94619141 2.52626953 -18.87109375 2.04296875 C-12.63218505 -0.40125487 -6.62719857 -0.30276542 0 0 Z " fill="#F7F7F7" transform="translate(507,533)"/>
<path d="M0 0 C1.2973613 3.89208391 0.56775827 7.05614473 -0.07421875 11.0078125 C-0.26187553 12.20614212 -0.26187553 12.20614212 -0.45332336 13.42868042 C-0.72147636 15.12895481 -0.99324208 16.82866271 -1.26831055 18.52783203 C-1.67785789 21.06526048 -2.07326523 23.60457622 -2.46679688 26.14453125 C-5.44644667 45.03643002 -9.07754748 64.12941359 -18.0625 81.1875 C-18.39088867 81.81156738 -18.71927734 82.43563477 -19.05761719 83.07861328 C-20.98165459 86.57590205 -23.02895913 89.33334194 -26 92 C-26.66 91.34 -27.32 90.68 -28 90 C-27.77476959 87.58108709 -27.42937499 85.36804687 -26.9375 83 C-26.79755615 82.29157959 -26.6576123 81.58315918 -26.51342773 80.85327148 C-25.26186934 74.76333088 -23.63656076 68.79726516 -21.91894531 62.82470703 C-19.65983258 54.94857194 -17.81025001 46.98937156 -16 39 C-16.50144531 39.83015625 -17.00289062 40.6603125 -17.51953125 41.515625 C-26.17920562 55.67381814 -35.62873024 69.30819103 -45 83 C-47.97 82.34 -50.94 81.68 -54 81 C-54.86397005 67.25876206 -42.75823725 55.05869488 -34.67333984 45.07763672 C-32.39951498 42.25443135 -30.19880523 39.38207033 -28 36.5 C-24.6101387 32.08256955 -21.19807488 27.68338315 -17.77392578 23.29248047 C-11.76613918 15.58826489 -5.81757093 7.84910363 0 0 Z " fill="#F7F7F7" transform="translate(854,190)"/>
<path d="M0 0 C4.07461979 3.91645525 7.64824038 8.09799629 11.1875 12.5 C12.04396118 13.55948853 12.04396118 13.55948853 12.91772461 14.64038086 C17.18538713 19.93901232 21.34709622 25.30964016 25.46875 30.72265625 C27.76476563 33.7193211 30.13298473 36.65337218 32.51123047 39.58496094 C54.55668831 66.80003354 54.55668831 66.80003354 54 77 C50.12315913 78.19287411 47.08378077 79 43 79 C41.37731723 76.68547574 40.06950725 74.48349915 38.75 72 C34.32384178 64.05568028 29.44937617 56.48285723 24.375 48.9375 C23.65151367 47.86048828 22.92802734 46.78347656 22.18261719 45.67382812 C20.45879842 43.11334073 18.73149777 40.55529833 17 38 C18.57918462 44.34298531 20.17155717 50.68229425 21.7890625 57.015625 C22.40107882 59.42707391 23.01305766 61.83853232 23.625 64.25 C23.93695312 65.46429688 24.24890625 66.67859375 24.5703125 67.9296875 C26.09319101 73.95556023 27.430005 79.80708131 28 86 C26.515 86.495 26.515 86.495 25 87 C12.56236304 70.88760667 7.34644624 50.70505488 4.31591797 30.97363281 C3.92468658 28.52949482 3.44639474 26.10968116 2.9375 23.6875 C1.32129319 15.8509342 -0.1681358 8.02247957 0 0 Z " fill="#F7F7F7" transform="translate(613,192)"/>
<path d="M0 0 C5.75 0.75 5.75 0.75 8 3 C7.95166016 5.2590332 7.95166016 5.2590332 7.5390625 8.05078125 C7.32636719 9.56381836 7.32636719 9.56381836 7.109375 11.10742188 C6.86960937 12.69393555 6.86960937 12.69393555 6.625 14.3125 C6.32269061 16.39151751 6.02311602 18.47093492 5.7265625 20.55078125 C5.51894287 21.93777222 5.51894287 21.93777222 5.30712891 23.3527832 C5.00819195 25.92939166 4.94551202 28.4088913 5 31 C5.56847656 30.17757812 6.13695312 29.35515625 6.72265625 28.5078125 C11.46053428 21.65688823 16.213957 14.81741817 21 8 C23.97 8.99 26.94 9.98 30 11 C29.12925474 14.48298103 28.59079627 15.90697175 26.62890625 18.6875 C26.14228516 19.37980713 25.65566406 20.07211426 25.15429688 20.78540039 C24.62900391 21.51621826 24.10371094 22.24703613 23.5625 23 C23.02044922 23.76111084 22.47839844 24.52222168 21.91992188 25.30639648 C18.01999883 30.72479777 13.89690024 35.84388547 9.55859375 40.91796875 C6.03152718 45.09783874 2.81584269 49.51265233 -0.44238281 53.90258789 C-5.49877911 60.70480086 -10.73096334 67.36184358 -16 74 C-17.52317757 70.95364485 -16.54413517 68.08802164 -15.99609375 64.84375 C-15.87786255 64.11743378 -15.75963135 63.39111755 -15.63781738 62.64279175 C-15.24621529 60.26035615 -14.84314661 57.88008242 -14.4375 55.5 C-14.30095001 54.69121399 -14.16440002 53.88242798 -14.02371216 53.0491333 C-12.22460762 42.44102343 -10.29056054 31.87602987 -7.9375 21.375 C-7.71698975 20.35986328 -7.49647949 19.34472656 -7.26928711 18.29882812 C-5.7160059 11.66822059 -3.29837435 5.9528462 0 0 Z " fill="#F5F5F6" transform="translate(630,692)"/>
<path d="M0 0 C1.13851162 2.19213922 2.05720262 4.25746806 2.9296875 6.5546875 C3.19014862 7.22539276 3.45060974 7.89609802 3.71896362 8.58712769 C6.48967471 15.9473196 8.36231227 23.4725414 10.125 31.125 C10.46569086 32.56991236 10.80675971 34.01473564 11.14819336 35.45947266 C13.08862216 43.73559392 14.92753928 52.03266153 16.5625 60.375 C16.73088379 61.22336426 16.89926758 62.07172852 17.07275391 62.94580078 C18.12482144 68.62553569 18.12482144 68.62553569 17 72 C15.35293061 70.06353897 13.70704202 68.12610637 12.0625 66.1875 C11.56177979 65.59727051 11.06105957 65.00704102 10.54516602 64.39892578 C7.46501686 60.75870504 4.43350807 57.08511035 1.4375 53.375 C-1.59982492 49.63925277 -4.74164227 46.0445309 -8 42.5 C-14.7479733 35.14710792 -20.98662978 27.41222949 -27.0625 19.5 C-27.81660156 18.5203125 -28.57070313 17.540625 -29.34765625 16.53125 C-31 14 -31 14 -31 11 C-23.21834993 8.40611664 -23.21834993 8.40611664 -19 10 C-17.12222627 12.18878001 -15.57039508 14.23505499 -14 16.625 C-13.5875 17.22957031 -13.175 17.83414063 -12.75 18.45703125 C-11.91796942 19.67647607 -11.09111516 20.89946915 -10.26953125 22.12597656 C-8.23739443 25.12572315 -6.11661164 28.05942169 -4 31 C-5.09002815 21.13225799 -5.09002815 21.13225799 -7.125 11.4375 C-7.99175999 8.03237147 -8.56598775 5.47678189 -8 2 C-4.88411016 -0.61061041 -3.93844351 -1.3128145 0 0 Z " fill="#F5F5F5" transform="translate(836,689)"/>
<path d="M0 0 C3.69214945 1.23071648 4.22994645 2.76976119 5.95654297 6.11499023 C6.4730542 7.17182007 6.4730542 7.17182007 7 8.25 C7.35594238 8.97582275 7.71188477 9.70164551 8.07861328 10.44946289 C11.09788523 16.82573453 12.9271789 23.01456338 14 30 C14.20238281 31.28132812 14.40476562 32.56265625 14.61328125 33.8828125 C16.19463365 44.9183559 16.20714103 55.8719234 16 67 C13.04269853 63.48123691 10.70701104 59.93269595 8.49609375 55.90625 C8.17592285 55.32587982 7.85575195 54.74550964 7.52587891 54.14755249 C6.49109622 52.26789936 5.46376795 50.38431387 4.4375 48.5 C3.72605944 47.19934508 3.01455176 45.89872687 2.30297852 44.59814453 C0.52796108 41.34862411 -1.23870901 38.09464598 -3.00244141 34.83898926 C-3.94410885 33.10303477 -4.88989435 31.36931594 -5.8359375 29.63574219 C-7.42327291 26.72166503 -8.99605819 23.80034902 -10.5625 20.875 C-11.03308838 20.01197266 -11.50367676 19.14894531 -11.98852539 18.25976562 C-12.61488892 17.07543945 -12.61488892 17.07543945 -13.25390625 15.8671875 C-13.80026733 14.84794189 -13.80026733 14.84794189 -14.35766602 13.80810547 C-15 12 -15 12 -14 9 C-11.6015625 7.24609375 -11.6015625 7.24609375 -8.625 5.4375 C-7.64789062 4.83808594 -6.67078125 4.23867188 -5.6640625 3.62109375 C-4.78492188 3.08613281 -3.90578125 2.55117188 -3 2 C-2.01 1.34 -1.02 0.68 0 0 Z " fill="#F8F8F8" transform="translate(863,670)"/>
<path d="M0 0 C23.00156538 -1.02464731 47.61081167 10.73367955 65.54296875 24.19921875 C65.54296875 24.52921875 65.54296875 24.85921875 65.54296875 25.19921875 C39.29194578 27.19296733 12.42444846 16.03756429 -11.71826172 7.15136719 C-13.95890553 6.37239492 -16.14577511 5.72051313 -18.45703125 5.19921875 C-18.45703125 4.53921875 -18.45703125 3.87921875 -18.45703125 3.19921875 C-12.36097587 0.7928811 -6.44809074 0.52281817 0 0 Z " fill="#F5F5F5" transform="translate(973.45703125,509.80078125)"/>
<path d="M0 0 C4.27186525 1.52853935 7.99326863 3.71509481 11.8125 6.125 C12.40998047 6.49753906 13.00746094 6.87007812 13.62304688 7.25390625 C15.08426251 8.1657048 16.54244585 9.08235976 18 10 C12.56182579 21.84838923 6.75596601 33.35625674 0.31005859 44.68701172 C-2.02942463 48.81751191 -4.3240646 52.97294541 -6.625 57.125 C-7.47116923 58.64854023 -8.3175055 60.1719877 -9.1640625 61.6953125 C-9.76992188 62.78585937 -10.37578125 63.87640625 -11 65 C-11.33 65 -11.66 65 -12 65 C-12.22372217 54.68115996 -11.67114024 44.748887 -10.3125 34.5 C-10.22485382 33.82633392 -10.13720764 33.15266785 -10.04690552 32.45858765 C-6.86691574 8.3398194 -6.86691574 8.3398194 0 0 Z " fill="#F7F7F7" transform="translate(599,674)"/>
<path d="M0 0 C1.05896484 -0.00128906 2.11792969 -0.00257813 3.20898438 -0.00390625 C4.84383789 0.00189453 4.84383789 0.00189453 6.51171875 0.0078125 C7.62095703 0.00394531 8.73019531 0.00007813 9.87304688 -0.00390625 C11.45182617 -0.00197266 11.45182617 -0.00197266 13.0625 0 C14.50556519 0.00169189 14.50556519 0.00169189 15.9777832 0.00341797 C18.19921875 0.1328125 18.19921875 0.1328125 19.19921875 1.1328125 C19.23985707 2.79898365 19.24193975 4.46669345 19.19921875 6.1328125 C2.75356487 12.34195968 -13.45810283 17.9532666 -30.80078125 21.1328125 C-31.67686035 21.29362305 -32.55293945 21.45443359 -33.45556641 21.62011719 C-41.6371712 23.08462294 -49.47250978 24.31140974 -57.80078125 24.1328125 C-42.13711384 11.35748093 -20.65494587 0.02407537 0 0 Z " fill="#F9F8F9" transform="translate(484.80078125,510.8671875)"/>
<path d="M0 0 C0 0.66 0 1.32 0 2 C-1.20011719 2.44988281 -2.40023437 2.89976562 -3.63671875 3.36328125 C-21.05136894 10.02779846 -37.38468829 18.19822005 -52.84838867 28.64770508 C-57.81818585 32 -57.81818585 32 -60 32 C-60.53532823 30.44240657 -61.05265378 28.87861955 -61.5625 27.3125 C-61.85253906 26.44238281 -62.14257812 25.57226562 -62.44140625 24.67578125 C-63.07490686 21.64118044 -63.01924067 19.92373733 -62 17 C-52.19073641 6.23262229 -34.44178017 0.89683676 -20.34375 0.08203125 C-13.56175689 -0.08434942 -6.78322423 -0.07233296 0 0 Z " fill="#F7F7F7" transform="translate(1010,395)"/>
<path d="M0 0 C0.99 0 1.98 0 3 0 C-4.2007379 35.71944984 -21.10187336 68.5924096 -45 96 C-45.49999512 96.57443848 -45.99999023 97.14887695 -46.51513672 97.74072266 C-76.60875487 131.98176329 -118.66711641 158.99935365 -164 167 C-164 166.01 -164 165.02 -164 164 C-162.8236499 163.65388672 -162.8236499 163.65388672 -161.62353516 163.30078125 C-146.31805167 158.76449503 -131.31303042 154.17879897 -117 147 C-116.2898877 146.64969727 -115.57977539 146.29939453 -114.84814453 145.93847656 C-93.54947928 135.35806396 -75.14666205 121.38984387 -58 105 C-57.32324219 104.36449219 -56.64648438 103.72898437 -55.94921875 103.07421875 C-50.81416755 98.12804299 -46.38830922 92.60806291 -42 87 C-41.57170898 86.4534375 -41.14341797 85.906875 -40.70214844 85.34375 C-20.90652674 59.85706807 -8.54811094 30.97011921 0 0 Z " fill="#E3E3E3" transform="translate(944,534)"/>
<path d="M0 0 C22.5951951 -0.84689637 40.8746119 1.24974126 60 14 C59 21.42857143 59 21.42857143 58 25 C57.34 25 56.68 25 56 25 C55.67 26.32 55.34 27.64 55 29 C54.30519531 28.55011719 53.61039062 28.10023438 52.89453125 27.63671875 C27.81521416 11.74395513 27.81521416 11.74395513 0 2 C0 1.34 0 0.68 0 0 Z " fill="#F5F4F5" transform="translate(455,395)"/>
<path d="M0 0 C15.63924964 3.09061362 32.95826908 18.1050741 43 30 C43.68954236 31.32164805 44.36025607 32.65354171 45 34 C37.20677039 31.8120612 29.67517951 29.09718906 22.125 26.1875 C21.03058594 25.77435547 19.93617188 25.36121094 18.80859375 24.93554688 C-0.46657361 17.53342639 -0.46657361 17.53342639 -5 13 C-4.71857705 8.21580984 -2.2129098 4.1479193 0 0 Z " fill="#F6F6F6" transform="translate(935,582)"/>
<path d="M0 0 C0.66 0.33 1.32 0.66 2 1 C1.50371094 2.21171875 1.00742187 3.4234375 0.49609375 4.671875 C-3.46577419 14.41948368 -7.1984025 24.20373382 -10.61962891 34.15429688 C-12.5782343 39.84167579 -14.65254587 45.45942504 -17 51 C-22.31027254 49.53967505 -26.46330032 47.01679014 -31 44 C-27.34834597 25.78370286 -12.70264714 12.46397527 0 0 Z " fill="#F6F6F7" transform="translate(883,251)"/>
<path d="M0 0 C3.98424036 7.87716112 4.64745509 16.07548365 4.5 24.75 C4.49009033 25.87873535 4.48018066 27.0074707 4.4699707 28.17041016 C4.25019483 38.12078076 3.79121455 50.0996186 -3 58 C-3.02578125 57.07703125 -3.0515625 56.1540625 -3.078125 55.203125 C-3.79260501 38.7700848 -7.44659913 23.17678566 -12.046875 7.4296875 C-13 4 -13 4 -13 2 C-11.39935157 1.46845258 -9.79431126 0.95011647 -8.1875 0.4375 C-7.29417969 0.14746094 -6.40085937 -0.14257812 -5.48046875 -0.44140625 C-3 -1 -3 -1 0 0 Z " fill="#F7F7F7" transform="translate(790,707)"/>
<path d="M0 0 C0 4.23941178 -2.37816003 6.40868922 -4.9375 9.5625 C-5.43822021 10.18729248 -5.93894043 10.81208496 -6.45483398 11.45581055 C-25.33535841 34.8338396 -25.33535841 34.8338396 -34 37 C-36.31 34.03 -38.62 31.06 -41 28 C-32.44712023 13.12542649 -15.06623811 6.52510312 0 0 Z " fill="#F6F6F6" transform="translate(950,316)"/>
<path d="M0 0 C11.50354371 9.45846927 20.28579448 19.30401793 28 32 C28.44214844 32.70253906 28.88429688 33.40507812 29.33984375 34.12890625 C30.29673823 36.84105097 30.01182819 38.32163127 29 41 C26.8203125 42.8359375 26.8203125 42.8359375 24.125 44.375 C22.79855469 45.16003906 22.79855469 45.16003906 21.4453125 45.9609375 C19 47 19 47 16 46 C15.078125 43.7265625 15.078125 43.7265625 14.25 40.625 C12.57065522 34.78268175 10.66527794 29.07891894 8.5625 23.375 C8.11233521 22.15321045 8.11233521 22.15321045 7.65307617 20.90673828 C5.62775582 15.49164819 3.40194047 10.22194977 0.84765625 5.03125 C0 3 0 3 0 0 Z " fill="#F6F6F6" transform="translate(585,251)"/>
<path d="M0 0 C1.00484204 1.95585325 2.00373805 3.91476237 3 5.875 C3.556875 6.96554687 4.11375 8.05609375 4.6875 9.1796875 C6 12 6 12 6 14 C-1.23047441 16.90361093 -8.46483746 19.79731284 -15.70263672 22.68261719 C-18.67015927 23.86822001 -21.6342121 25.06206521 -24.59765625 26.2578125 C-26.2107518 26.90150724 -27.82402036 27.54476865 -29.4375 28.1875 C-30.18112793 28.49051025 -30.92475586 28.79352051 -31.69091797 29.10571289 C-33.43835837 29.79634418 -35.21702713 30.40710266 -37 31 C-37.66 30.67 -38.32 30.34 -39 30 C-31.08089743 20.47232972 -13.07117947 0 0 0 Z " fill="#F8F8F8" transform="translate(525,585)"/>
<path d="M0 0 C-1.29227642 2.58455284 -2.182588 2.61600287 -4.8671875 3.55078125 C-5.66487549 3.834375 -6.46256348 4.11796875 -7.28442383 4.41015625 C-8.13931396 4.70792969 -8.9942041 5.00570313 -9.875 5.3125 C-17.09026467 7.90050415 -24.10381616 10.63874891 -31 14 C-32.02480469 14.47566406 -33.04960938 14.95132812 -34.10546875 15.44140625 C-55.9432147 25.87024925 -74.54130136 40.40080652 -92 57 C-92.65226563 57.61101562 -93.30453125 58.22203125 -93.9765625 58.8515625 C-106.40679696 70.82772447 -116.83690806 85.70650551 -125.34375 100.68359375 C-125.8903125 101.44800781 -126.436875 102.21242188 -127 103 C-127.99 103 -128.98 103 -130 103 C-115.27127448 61.80682649 -68.80147407 28.24399823 -31.3125 10.125 C-24.40462631 6.85961769 -17.43989263 3.84045876 -10.25 1.25 C-9.55302002 0.99750488 -8.85604004 0.74500977 -8.13793945 0.48486328 C-3.38515454 -1.12838485 -3.38515454 -1.12838485 0 0 Z " fill="#E2E2E2" transform="translate(668,274)"/>
<path d="M0 0 C6.89079902 2.04136766 13.14565645 4.84719716 19.5 8.1875 C20.42256592 8.67001221 21.34513184 9.15252441 22.2956543 9.6496582 C28.6613227 13.06810076 34.1217041 16.59515788 39 22 C38.38801624 25.43950364 37.07941153 27.51564485 34.9375 30.25 C34.38964844 30.95640625 33.84179688 31.6628125 33.27734375 32.390625 C32.85582031 32.92171875 32.43429687 33.4528125 32 34 C26.88451157 32.51238141 23.93482167 29.39444372 20.3125 25.6875 C19.70108154 25.06883057 19.08966309 24.45016113 18.4597168 23.81274414 C11.42809614 16.56952166 5.06289907 8.75961903 0 0 Z " fill="#F8F8F8" transform="translate(516,317)"/>
<path d="M0 0 C6.6642532 2.61028736 9.69837391 10.12074857 12.4921875 16.30078125 C17.26142328 28.30853169 18.44213374 39.21311807 19 52 C16.45063733 48.81485965 14.58508129 45.48848801 12.70703125 41.87109375 C12.06995874 40.65804695 11.43257848 39.44516173 10.79492188 38.23242188 C9.80874299 36.34781629 8.82517387 34.46198528 7.84741211 32.57299805 C3.48752699 24.16742375 -1.17206799 16.50021964 -7 9 C-5.27845212 5.23511958 -3.00765886 2.84936103 0 0 Z " fill="#F3F3F3" transform="translate(882,654)"/>
<path d="M0 0 C10.28687465 7.82505849 15.78430477 20.76793652 18.75 33.125 C19.09464933 37.08846734 19.07950803 41.02459851 19 45 C14.73383684 46.13764351 11.43513689 47 7 47 C5.92015256 43.76045768 5.85877657 41.2859224 5.75 37.875 C5.34466172 29.24582301 3.52459131 20.91225918 1.72753906 12.48193359 C1.50678711 11.44246582 1.28603516 10.40299805 1.05859375 9.33203125 C0.85548584 8.40108643 0.65237793 7.4701416 0.44311523 6.51098633 C0 4 0 4 0 0 Z " fill="#F5F5F5" transform="translate(677,217)"/>
<path d="M0 0 C2.29199177 0.14063135 4.58359186 0.28765943 6.875 0.4375 C8.15117188 0.51871094 9.42734375 0.59992187 10.7421875 0.68359375 C14 1 14 1 16 2 C12.00906393 15.30312023 5.11026814 26.81974335 -3 38 C-3.33 38 -3.66 38 -4 38 C-4.34100567 10.94688385 -4.34100567 10.94688385 0 0 Z " fill="#F5F5F5" transform="translate(677,709)"/>
<path d="M0 0 C3.92300272 1.82504909 6.73787272 4.18270826 10 7 C9.61070312 7.64582031 9.22140625 8.29164063 8.8203125 8.95703125 C1.29160301 21.63787604 -5.5285506 34.75055887 -12 48 C-12.33 48 -12.66 48 -13 48 C-14.14039102 31.27426509 -8.57640925 14.23543339 0 0 Z " fill="#F3F3F3" transform="translate(579,658)"/>
<path d="M0 0 C1 3 1 3 -0.37109375 6.08984375 C-1.0536184 7.37574742 -1.74296122 8.65804542 -2.4375 9.9375 C-17.15951474 38.31599189 -26.27953597 70.50449416 -26.09765625 102.6015625 C-26.0962413 103.564039 -26.09482635 104.5265155 -26.09336853 105.51815796 C-26.08782807 108.55380532 -26.07528716 111.58937541 -26.0625 114.625 C-26.05747729 116.69921768 -26.05291574 118.77343652 -26.04882812 120.84765625 C-26.03787824 125.89846669 -26.02065564 130.9492203 -26 136 C-30.01577973 131.98422027 -29.18481087 126.09394246 -29.23828125 120.7109375 C-29.24812042 119.90331467 -29.25795959 119.09569183 -29.26809692 118.26359558 C-29.66522161 77.07408882 -22.81136053 37.2000426 -2 1 C-1.34 0.67 -0.68 0.34 0 0 Z " fill="#EAEAEA" transform="translate(539,376)"/>
<path d="M0 0 C0.66 0.33 1.32 0.66 2 1 C2.05880804 4.16658663 2.09386406 7.33302993 2.125 10.5 C2.14175781 11.386875 2.15851562 12.27375 2.17578125 13.1875 C2.23193388 20.82425735 1.3531061 27.30003183 -2.625 34 C-3.07101562 34.763125 -3.51703125 35.52625 -3.9765625 36.3125 C-4.31429687 36.869375 -4.65203125 37.42625 -5 38 C-11.02900687 37.48758893 -17.02004643 36.930215 -23 36 C-21.80278148 32.40834444 -21.1172911 32.28897338 -17.9375 30.5 C-6.78242714 23.22880784 -3.19548318 12.24423121 0 0 Z " fill="#F7F7F7" transform="translate(782,226)"/>
<path d="M0 0 C3 1 3 1 3.90380859 2.67626953 C4.14953613 3.40442871 4.39526367 4.13258789 4.6484375 4.8828125 C5.06959839 6.12188354 5.06959839 6.12188354 5.49926758 7.38598633 C5.78825928 8.28986084 6.07725098 9.19373535 6.375 10.125 C6.67881592 11.05916748 6.98263184 11.99333496 7.2956543 12.95581055 C9.46633268 19.83715259 11.26299739 26.76660365 12.8125 33.8125 C13.0069873 34.69244629 13.20147461 35.57239258 13.40185547 36.47900391 C16.44364504 51.08333923 17.40225545 65.44100151 17.375 80.3125 C17.37611786 81.17675598 17.37723572 82.04101196 17.37838745 82.93145752 C17.35535124 119.28929752 17.35535124 119.28929752 12 130 C11.34 130 10.68 130 10 130 C10.43853967 125.06169037 10.93493729 120.15688892 11.75390625 115.265625 C17.71292786 79.07705877 14.39229124 39.71756835 0.8828125 5.4765625 C0 3 0 3 0 0 Z " fill="#EFEFEF" transform="translate(935,404)"/>
<path d="M0 0 C0.66 0.33 1.32 0.66 2 1 C1.37974691 4.3546502 0.57073987 7.53952103 -0.48828125 10.78125 C-10.75538194 42.85285469 -13.53632663 74.11033077 -10.53613281 107.59448242 C-10.43913086 108.76599854 -10.34212891 109.93751465 -10.2421875 111.14453125 C-10.1479248 112.20003174 -10.05366211 113.25553223 -9.95654297 114.34301758 C-10 117 -10 117 -12 120 C-19.33121819 79.59102353 -14.83550983 38.24615477 0 0 Z " fill="#171717" transform="translate(527,404)"/>
<path d="M0 0 C0.72958923 0.00016113 1.45917847 0.00032227 2.21087646 0.00048828 C14.78557586 0.01969415 26.98672981 1.06495206 39.375 3.3125 C35.79389976 5.69990016 34.70747557 5.44432172 30.51953125 5.0703125 C29.34801514 4.97331055 28.17649902 4.87630859 26.96948242 4.77636719 C25.72142822 4.66454102 24.47337402 4.55271484 23.1875 4.4375 C7.79929887 3.20688815 7.79929887 3.20688815 -7.625 3.3125 C-8.85718262 3.3741333 -8.85718262 3.3741333 -10.11425781 3.43701172 C-30.6584525 4.59730276 -50.74046715 8.00907307 -70.07861328 15.16479492 C-70.88411621 15.45845947 -71.68961914 15.75212402 -72.51953125 16.0546875 C-73.21925049 16.3213623 -73.91896973 16.58803711 -74.63989258 16.86279297 C-76.96392117 17.38927934 -78.38643132 17.05545026 -80.625 16.3125 C-70.40645724 9.50013816 -56.17051355 6.9733163 -44.3125 4.5 C-43.38477783 4.30559326 -42.45705566 4.11118652 -41.5012207 3.91088867 C-27.6694677 1.16912357 -14.07713971 -0.06426634 0 0 Z " fill="#161616" transform="translate(730.625,265.6875)"/>
<path d="M0 0 C7.23100291 0.90260766 14.29478545 2.51841191 21.40429688 4.09570312 C35.35196714 7.09027063 49.07464124 8.40460267 63.3125 8.375 C64.03569427 8.3764502 64.75888855 8.37790039 65.5039978 8.37939453 C79.08078235 8.37642063 92.13585465 6.88633805 105.4934082 4.3671875 C108.03287304 3.99518447 110.43735925 3.93556723 113 4 C113 4.66 113 5.32 113 6 C96.93788557 10.12554309 81.21082196 11.41057696 64.6875 11.375 C63.81892365 11.37512085 62.95034729 11.3752417 62.05545044 11.37536621 C42.20027637 11.33625302 18.14744447 11.07372223 0 2 C0 1.34 0 0.68 0 0 Z " fill="#F4F4F4" transform="translate(667,695)"/>
<path d="M0 0 C1.87402747 2.81104121 2.673313 4.78905669 3.62109375 7.98046875 C3.91540283 8.97143555 4.20971191 9.96240234 4.51293945 10.98339844 C7.57766986 21.60434428 10.45227227 32.03511198 12 43 C12.10151367 43.70350586 12.20302734 44.40701172 12.30761719 45.13183594 C15.52243597 68.34546429 15.02669805 91.94235996 11 115 C8.8805083 111.57251992 8.87119639 109.23427859 9.2421875 105.265625 C9.33918945 104.1425293 9.43619141 103.01943359 9.53613281 101.86230469 C9.70387207 100.07421387 9.70387207 100.07421387 9.875 98.25 C12.43392579 67.35604828 10.26374467 36.43468185 -0.1796875 7.01171875 C-0.97898329 4.07716135 -1.11078405 2.77696012 0 0 Z " fill="#121212" transform="translate(936,409)"/>
<path d="M0 0 C2.00954046 3.01431069 2.44780391 4.53106542 3.03515625 8.015625 C3.2043457 9.01207031 3.37353516 10.00851562 3.54785156 11.03515625 C3.71768555 12.09605469 3.88751953 13.15695312 4.0625 14.25 C4.2387793 15.33667969 4.41505859 16.42335938 4.59667969 17.54296875 C5.8806779 25.70812943 6.78577874 33.72919651 7 42 C7.03996094 43.2065625 7.07992187 44.413125 7.12109375 45.65625 C7.41918891 62.91069943 5.66936235 80.14539562 2 97 C0 95 0 95 -0.046875 92.99609375 C0.05109375 92.15175781 0.1490625 91.30742188 0.25 90.4375 C0.35699219 89.426875 0.46398437 88.41625 0.57421875 87.375 C0.85600679 85.14137735 1.17069827 82.91163808 1.51953125 80.6875 C4.77593985 58.19719601 4.03472775 34.63393157 0.36767578 12.26074219 C-1.22718383 2.45436767 -1.22718383 2.45436767 0 0 Z " fill="#F5F5F5" transform="translate(941,435)"/>
<path d="M0 0 C2.67852747 0.01085723 5.35640304 -0.00003672 8.03491211 -0.01269531 C9.76212711 -0.01137566 11.48934171 -0.0088173 13.21655273 -0.00488281 C14.00518204 -0.00893127 14.79381134 -0.01297974 15.6063385 -0.01715088 C20.46383653 0.02375327 24.47524752 0.72085466 29.08764648 2.26074219 C29.08764648 2.59074219 29.08764648 2.92074219 29.08764648 3.26074219 C27.26112549 3.23717651 27.26112549 3.23717651 25.39770508 3.21313477 C-0.87261279 2.9040818 -25.66927762 2.94132206 -51.21875 9.72241211 C-52.44766968 10.04302612 -52.44766968 10.04302612 -53.70141602 10.37011719 C-54.42022949 10.56573242 -55.13904297 10.76134766 -55.87963867 10.96289062 C-58.17075577 11.2986056 -59.72319222 10.96112609 -61.91235352 10.26074219 C-57.10876875 6.73262747 -51.8159215 5.88643468 -46.09985352 4.69824219 C-45.15948242 4.49005859 -44.21911133 4.281875 -43.25024414 4.06738281 C-28.79670942 0.98331754 -14.73390076 -0.07114522 0 0 Z " fill="#F2F2F2" transform="translate(728.912353515625,263.7392578125)"/>
<path d="M0 0 C0.99 0.495 0.99 0.495 2 1 C2.57495117 2.79980469 2.57495117 2.79980469 3.04296875 5.171875 C3.22569336 6.05311035 3.40841797 6.9343457 3.59667969 7.84228516 C3.79165039 8.80183105 3.98662109 9.76137695 4.1875 10.75 C9.12365816 33.53426688 17.34089348 55.15061684 29.37109375 75.15234375 C30.8425157 77.72468572 31.98203686 80.2223418 33 83 C29.61029512 81.87009837 29.43081746 81.52660884 27.80078125 78.5625 C27.40044678 77.84199463 27.0001123 77.12148926 26.58764648 76.37915039 C26.16684814 75.59403076 25.7460498 74.80891113 25.3125 74 C24.87043213 73.18329834 24.42836426 72.36659668 23.97290039 71.52514648 C22.63260616 69.02485692 21.31302545 66.5147007 20 64 C19.63680664 63.31309082 19.27361328 62.62618164 18.89941406 61.91845703 C9.68352614 44.27901737 -1.16385826 20.17354321 0 0 Z " fill="#0A0A0A" transform="translate(516,521)"/>
<path d="M0 0 C1.68416016 0.14550293 1.68416016 0.14550293 3.40234375 0.29394531 C4.59472656 0.40577148 5.78710938 0.51759766 7.015625 0.6328125 C23.34214472 1.98193467 38.80947656 1.82444318 55.12890625 0.29394531 C56.25167969 0.19694336 57.37445312 0.09994141 58.53125 0 C60.04380371 -0.14139404 60.04380371 -0.14139404 61.58691406 -0.28564453 C64.41333675 -0.23979116 65.88670886 0.28673378 68.265625 1.7578125 C42.53154552 6.42663038 15.99970448 6.42663038 -9.734375 1.7578125 C-6.30689492 -0.3616792 -3.96865359 -0.37099111 0 0 Z " fill="#1A1A1A" transform="translate(701.734375,699.2421875)"/>
<path d="M0 0 C3.69972908 3.69972908 2.37850368 10.09978482 2.37966919 15.14355469 C2.37812836 15.90055664 2.37658752 16.65755859 2.375 17.4375 C2.37611786 18.19466309 2.37723572 18.95182617 2.37838745 19.73193359 C2.35328601 54.29342799 2.35328601 54.29342799 -3 65 C-3.66 65 -4.32 65 -5 65 C-4.56061934 60.10025953 -4.07415806 55.22765565 -3.28125 50.37109375 C-0.59252167 33.63252534 -0.27890185 16.91593632 0 0 Z " fill="#FBFBFB" transform="translate(950,469)"/>
<path d="M0 0 C5.58809539 1.64624741 10.6088125 4.18206963 15.8125 6.75 C25.00671366 11.22128616 34.27640511 14.86500086 44 18 C44 18.99 44 19.98 44 21 C28.03348343 17.555538 13.14730225 9.9512491 -1 2 C-0.67 1.34 -0.34 0.68 0 0 Z " fill="#E8E8E8" transform="translate(623,676)"/>
<path d="M0 0 C-1.29227642 2.58455284 -2.182588 2.61600287 -4.8671875 3.55078125 C-5.66503662 3.83445557 -6.46288574 4.11812988 -7.28491211 4.41040039 C-8.13964111 4.70809326 -8.99437012 5.00578613 -9.875 5.3125 C-18.24831091 8.31390113 -26.32159821 11.56723107 -34.22265625 15.67578125 C-35.30417969 16.23652344 -36.38570312 16.79726563 -37.5 17.375 C-38.4796875 17.89835937 -39.459375 18.42171875 -40.46875 18.9609375 C-43 20 -43 20 -46 19 C-43.68444619 16.41553408 -41.38627994 15.02035118 -38.2734375 13.51171875 C-37.33145508 13.05506836 -36.38947266 12.59841797 -35.41894531 12.12792969 C-34.41444336 11.65258789 -33.40994141 11.17724609 -32.375 10.6875 C-31.34987305 10.20055664 -30.32474609 9.71361328 -29.26855469 9.21191406 C-23.02052191 6.29123602 -16.74563473 3.57171846 -10.25 1.25 C-9.55438965 0.99822998 -8.8587793 0.74645996 -8.14208984 0.48706055 C-3.38685684 -1.12895228 -3.38685684 -1.12895228 0 0 Z " fill="#E9E9E9" transform="translate(668,274)"/>
<path d="M0 0 C0.33 0 0.66 0 1 0 C1 17.16 1 34.32 1 52 C-3.13572667 47.86427333 -2.16060964 41.44917075 -2.16796875 35.9375 C-2.17129715 35.06859131 -2.17462555 34.19968262 -2.17805481 33.30444336 C-2.18310445 31.47217333 -2.18546374 29.63989416 -2.18530273 27.80761719 C-2.18749248 25.00961164 -2.20567782 22.21199855 -2.22460938 19.4140625 C-2.22754308 17.63020968 -2.22952803 15.84635499 -2.23046875 14.0625 C-2.23765427 13.22904053 -2.24483978 12.39558105 -2.25224304 11.53686523 C-2.23536877 7.23516761 -1.99894092 3.92162796 0 0 Z " fill="#FAFAFA" transform="translate(512,460)"/>
<path d="M0 0 C1.05058633 3.229461 0.91833264 5.29244252 0.07421875 8.5625 C-0.14443848 9.43664551 -0.3630957 10.31079102 -0.58837891 11.21142578 C-0.82733887 12.13165527 -1.06629883 13.05188477 -1.3125 14 C-3.05667295 20.93270107 -4.60096324 27.7154224 -5.4453125 34.8203125 C-6.08993459 37.35340494 -7.01056347 38.35468222 -9 40 C-8.80676628 31.83148355 -7.32279573 24.03244716 -5.625 16.0625 C-5.41593018 15.05566162 -5.20686035 14.04882324 -4.99145508 13.01147461 C-3.93126886 8.18380484 -2.99339707 4.05246446 0 0 Z " fill="#EFEFEF" transform="translate(520,421)"/>
<path d="M0 0 C0.71020798 -0.00191345 1.42041595 -0.0038269 2.15214539 -0.00579834 C3.65245926 -0.0071566 5.15278502 -0.00348522 6.65307617 0.00488281 C8.93110093 0.01554024 11.20832856 0.00500048 13.48632812 -0.0078125 C14.94922047 -0.00648991 16.41211232 -0.00392547 17.875 0 C18.5481575 -0.00404846 19.221315 -0.00809692 19.91487122 -0.01226807 C24.53388173 0.03272218 28.28978704 0.8477417 32.63671875 2.265625 C32.63671875 2.595625 32.63671875 2.925625 32.63671875 3.265625 C10.85671875 2.770625 10.85671875 2.770625 -11.36328125 2.265625 C-7.00444441 0.08620658 -4.80582891 0.00823168 0 0 Z " fill="#FBFBFB" transform="translate(725.36328125,263.734375)"/>
<path d="M0 0 C0.88734283 2.91741406 1.03297323 4.98576486 0.4765625 7.9765625 C0.34290283 8.72566895 0.20924316 9.47477539 0.0715332 10.24658203 C-0.07582275 11.03145996 -0.22317871 11.81633789 -0.375 12.625 C-1.52523129 19.0800487 -2.47246218 25.45853107 -3 32 C-4.485 32.495 -4.485 32.495 -6 33 C-5.66489763 24.95754321 -5.01765281 17.10788312 -3.5625 9.1875 C-3.37917114 8.15689453 -3.37917114 8.15689453 -3.19213867 7.10546875 C-2.25066376 2.25066376 -2.25066376 2.25066376 0 0 Z " fill="#F5F5F5" transform="translate(521,436)"/>
<path d="M0 0 C-0.33 0.99 -0.66 1.98 -1 3 C-4.64564198 3.48062972 -8.29154738 3.95923288 -11.9375 4.4375 C-12.95908203 4.57220703 -13.98066406 4.70691406 -15.03320312 4.84570312 C-21.01633244 5.62943572 -27.00023596 6.35560407 -33 7 C-31 4 -31 4 -28.6809082 3.29223633 C-27.73046631 3.14036865 -26.78002441 2.98850098 -25.80078125 2.83203125 C-24.23360352 2.57583008 -24.23360352 2.57583008 -22.63476562 2.31445312 C-21.53841797 2.14880859 -20.44207031 1.98316406 -19.3125 1.8125 C-18.23548828 1.63525391 -17.15847656 1.45800781 -16.04882812 1.27539062 C-10.64108308 0.41665 -5.4751076 -0.22715039 0 0 Z " fill="#F5F5F5" transform="translate(715,269)"/>
<path d="M0 0 C0.99 0 1.98 0 3 0 C-1.03872437 17.85649203 -1.03872437 17.85649203 -4 26 C-4.99 25.67 -5.98 25.34 -7 25 C-4.74868611 16.64284994 -2.39214186 8.31785366 0 0 Z " fill="#DBDBDB" transform="translate(944,534)"/>
<path d="M0 0 C0.33 0.99 0.66 1.98 1 3 C-5.27 9.27 -11.54 15.54 -18 22 C-18.66 21.34 -19.32 20.68 -20 20 C-17.98406752 17.78702148 -15.96250115 15.57965623 -13.9375 13.375 C-13.37611328 12.75753906 -12.81472656 12.14007812 -12.23632812 11.50390625 C-8.39290663 7.33104863 -4.3703098 3.61872786 0 0 Z " fill="#E4E4E4" transform="translate(893,626)"/>
<path d="M0 0 C0 0.66 0 1.32 0 2 C-7.23240763 3.87045025 -13.85282294 5.13346393 -21.375 5.0625 C-23.24285156 5.04896484 -23.24285156 5.04896484 -25.1484375 5.03515625 C-26.55996094 5.01775391 -26.55996094 5.01775391 -28 5 C-27.67 4.34 -27.34 3.68 -27 3 C-24.94628906 2.49755859 -24.94628906 2.49755859 -22.265625 2.1484375 C-21.29882812 2.01953125 -20.33203125 1.890625 -19.3359375 1.7578125 C-18.31757812 1.63148438 -17.29921875 1.50515625 -16.25 1.375 C-15.24710938 1.2409375 -14.24421875 1.106875 -13.2109375 0.96875 C-8.77015333 0.39156585 -4.48429851 -0.07564606 0 0 Z " fill="#F7F7F7" transform="translate(776,695)"/>
<path d="M0 0 C0.99 0 1.98 0 3 0 C4.32 8.25 5.64 16.5 7 25 C6.01 25.33 5.02 25.66 4 26 C3.32754163 22.41772843 2.66304461 18.8340249 2 15.25 C1.80921875 14.23421875 1.6184375 13.2184375 1.421875 12.171875 C1.15117188 10.70234375 1.15117188 10.70234375 0.875 9.203125 C0.70742188 8.30239258 0.53984375 7.40166016 0.3671875 6.47363281 C0 4 0 4 0 0 Z " fill="#F0F0F0" transform="translate(511,510)"/>
<path d="M0 0 C17.85649203 1.92710706 17.85649203 1.92710706 26 4 C25.67 4.66 25.34 5.32 25 6 C16.61044093 5.34938113 8.31984045 4.25101251 0 3 C0 2.01 0 1.02 0 0 Z " fill="#F0F0F0" transform="translate(756,265)"/>
<path d="M0 0 C0.99 0 1.98 0 3 0 C2.71573032 2.6884654 2.42281156 5.37552857 2.125 8.0625 C2.04636719 8.81466797 1.96773437 9.56683594 1.88671875 10.34179688 C1.35212021 15.0914993 0.44092853 19.44109588 -1 24 C-1.66 24 -2.32 24 -3 24 C-2.29563752 15.95543903 -1.18531495 7.98649105 0 0 Z " fill="#F2F2F2" transform="translate(948,510)"/>
<path d="M0 0 C0.66 0.33 1.32 0.66 2 1 C1.236875 1.721875 0.47375 2.44375 -0.3125 3.1875 C-3.00886829 5.78543811 -3.00886829 5.78543811 -4.4375 8.5 C-6.46830948 11.74929517 -8.98907865 13.65148135 -12 16 C-12.94875 16.763125 -13.8975 17.52625 -14.875 18.3125 C-15.57625 18.869375 -16.2775 19.42625 -17 20 C-17.66 19.67 -18.32 19.34 -19 19 C-12.73 12.73 -6.46 6.46 0 0 Z " fill="#DFDFDF" transform="translate(587,322)"/>
<path d="M0 0 C0.66 0.33 1.32 0.66 2 1 C-6.76433469 13.52491802 -6.76433469 13.52491802 -14 15 C-9.59156563 9.70987876 -4.92440206 4.81191572 0 0 Z " fill="#DCDCDC" transform="translate(581,321)"/>
<path d="M0 0 C2.58366245 0.14120016 5.16682885 0.28778333 7.75 0.4375 C8.47960937 0.47681641 9.20921875 0.51613281 9.9609375 0.55664062 C13.4272973 0.76147098 16.65333026 1.0852002 20 2 C20 2.66 20 3.32 20 4 C17.41633755 3.85879984 14.83317115 3.71221667 12.25 3.5625 C11.52039063 3.52318359 10.79078125 3.48386719 10.0390625 3.44335938 C6.5727027 3.23852902 3.34666974 2.9147998 0 2 C0 1.34 0 0.68 0 0 Z " fill="#F6F6F6" transform="translate(698,702)"/>
<path d="M0 0 C0.66 0.33 1.32 0.66 2 1 C-2.60136502 6.53601728 -7.46398272 11.39863498 -13 16 C-13 11.93645091 -11.47015238 10.94829419 -8.75 8 C-7.96109375 7.13375 -7.1721875 6.2675 -6.359375 5.375 C-4.3351828 3.33740256 -2.34982916 1.63841299 0 0 Z " fill="#F0F0F0" transform="translate(597,314)"/>
<path d="M0 0 C1.73017508 0.45451184 3.45909877 0.91378857 5.1875 1.375 C6.15042969 1.63023437 7.11335937 1.88546875 8.10546875 2.1484375 C10.82210207 2.94766296 13.39137175 3.9031362 16 5 C16 5.66 16 6.32 16 7 C3.33029613 3.92482916 3.33029613 3.92482916 -2 2 C-1.34 1.34 -0.68 0.68 0 0 Z " fill="#191919" transform="translate(657,689)"/>
<path d="M0 0 C2.12600304 3.18900456 3.02136239 5.90414569 4.125 9.5625 C4.47820313 10.71878906 4.83140625 11.87507813 5.1953125 13.06640625 C6 16 6 16 6 18 C5.01 17.67 4.02 17.34 3 17 C1.796875 14.19921875 1.796875 14.19921875 0.75 10.6875 C0.39421875 9.53636719 0.0384375 8.38523437 -0.328125 7.19921875 C-0.954299 4.21761114 -1.07377154 2.7876761 0 0 Z " fill="#191919" transform="translate(936,409)"/>
<path d="M0 0 C0.33 0.99 0.66 1.98 1 3 C-0.43359375 5.04296875 -0.43359375 5.04296875 -2.4375 7.1875 C-3.09621094 7.90292969 -3.75492188 8.61835937 -4.43359375 9.35546875 C-4.95050781 9.89816406 -5.46742188 10.44085937 -6 11 C-6.66 10.67 -7.32 10.34 -8 10 C-6.44303593 6.17836093 -3.96591316 3.81381505 -1 1 C-0.67 0.67 -0.34 0.34 0 0 Z " fill="#EFEFEF" transform="translate(901,616)"/>
<path d="M0 0 C-0.66 0.66 -1.32 1.32 -2 2 C-0.68 2.66 0.64 3.32 2 4 C-2.62 4 -7.24 4 -12 4 C-10.720327 1.44065399 -9.75798964 1.3010767 -7.125 0.3125 C-6.07699219 -0.09548828 -6.07699219 -0.09548828 -5.0078125 -0.51171875 C-3 -1 -3 -1 0 0 Z " fill="#343434" transform="translate(501,720)"/>
<path d="M0 0 C0.99 0 1.98 0 3 0 C2.57835981 1.98260599 2.13721222 3.96107245 1.6875 5.9375 C1.44386719 7.03964844 1.20023438 8.14179687 0.94921875 9.27734375 C0.63597656 10.17582031 0.32273437 11.07429687 0 12 C-0.99 12.33 -1.98 12.66 -3 13 C-2.68991116 11.39536551 -2.37683713 9.79130769 -2.0625 8.1875 C-1.88847656 7.29417969 -1.71445312 6.40085937 -1.53515625 5.48046875 C-1 3 -1 3 0 0 Z " fill="#E2E2E2" transform="translate(944,534)"/>
<path d="M0 0 C0.33 0 0.66 0 1 0 C0.85780436 2.20857055 0.71108153 4.41684987 0.5625 6.625 C0.48128906 7.85476563 0.40007813 9.08453125 0.31640625 10.3515625 C0.03336056 13.61532388 -0.41038953 16.77943859 -1 20 C-3.04419175 16.65853272 -3.15708055 14.42440891 -2.75 10.5625 C-2.66234375 9.63566406 -2.5746875 8.70882812 -2.484375 7.75390625 C-1.99092913 4.94842774 -1.15057055 2.59821465 0 0 Z " fill="#181818" transform="translate(948,504)"/>
<path d="M0 0 C0.33 0 0.66 0 1 0 C0.88490339 1.41750563 0.75746342 2.83401169 0.625 4.25 C0.55539062 5.03890625 0.48578125 5.8278125 0.4140625 6.640625 C-0.01507113 9.085877 -0.78600638 10.84836903 -2 13 C-2.66 13 -3.32 13 -4 13 C-3.56407724 7.85611138 -3.18386087 4.24514783 0 0 Z " fill="#EEEEEE" transform="translate(524,424)"/>
<path d="M0 0 C0.33 0 0.66 0 1 0 C1.33 4.95 1.66 9.9 2 15 C1.01 15.33 0.02 15.66 -1 16 C-1.22127098 13.70954632 -1.4266504 11.41755236 -1.625 9.125 C-1.74101563 7.84882813 -1.85703125 6.57265625 -1.9765625 5.2578125 C-1.98816406 3.64519531 -1.98816406 3.64519531 -2 2 C-1.34 1.34 -0.68 0.68 0 0 Z " fill="#DADADA" transform="translate(950,456)"/>
<path d="M0 0 C1.32 0.33 2.64 0.66 4 1 C3.04737966 2.48285242 2.08771595 3.96118201 1.125 5.4375 C0.59132813 6.26121094 0.05765625 7.08492187 -0.4921875 7.93359375 C-2 10 -2 10 -4 11 C-3.52269162 9.5410574 -3.04308958 8.08286504 -2.5625 6.625 C-2.29566406 5.81289063 -2.02882813 5.00078125 -1.75390625 4.1640625 C-1 2 -1 2 0 0 Z " fill="#242323" transform="translate(514,656)"/>
<path d="M0 0 C-0.33 0.66 -0.66 1.32 -1 2 C-3.14453125 2.484375 -3.14453125 2.484375 -5.8125 2.75 C-6.68519531 2.84796875 -7.55789063 2.9459375 -8.45703125 3.046875 C-11.20801558 2.99616561 -12.67126574 2.41135409 -15 1 C-9.94997778 -0.03590199 -5.12583611 -0.10251672 0 0 Z " fill="#202020" transform="translate(713,267)"/>
<path d="M0 0 C0 0.66 0 1.32 0 2 C-3.3 2.66 -6.6 3.32 -10 4 C-10 3.01 -10 2.02 -10 1 C-6.59437148 0.22157062 -3.49234244 -0.09978121 0 0 Z " fill="#EFEFEF" transform="translate(780,699)"/>
<path d="M0 0 C0.99 0 1.98 0 3 0 C2.67 3.63 2.34 7.26 2 11 C1.01 10.67 0.02 10.34 -1 10 C-0.67 6.7 -0.34 3.4 0 0 Z " fill="#EAEAEA" transform="translate(948,510)"/>
<path d="M0 0 C0 0.66 0 1.32 0 2 C-4.455 3.485 -4.455 3.485 -9 5 C-8.67 3.68 -8.34 2.36 -8 1 C-2.71910112 -1.35955056 -2.71910112 -1.35955056 0 0 Z " fill="#D9D9D9" transform="translate(805,692)"/>
<path d="M0 0 C0.66 0.33 1.32 0.66 2 1 C-0.48076923 7.69807692 -0.48076923 7.69807692 -3.109375 9.2265625 C-3.73328125 9.48179687 -4.3571875 9.73703125 -5 10 C-4.55090939 8.51800098 -4.09043436 7.03944764 -3.625 5.5625 C-3.36976563 4.73878906 -3.11453125 3.91507812 -2.8515625 3.06640625 C-2 1 -2 1 0 0 Z " fill="#E5E5E5" transform="translate(528,399)"/>
<path d="M0 0 C0.6875 1.6875 0.6875 1.6875 1 4 C-0.4375 6.75 -0.4375 6.75 -2 9 C-2.66 8.67 -3.32 8.34 -4 8 C-2.25 2.25 -2.25 2.25 0 0 Z " fill="#F2F2F2" transform="translate(925,577)"/>
<path d="M0 0 C0.99 0 1.98 0 3 0 C3.33 2.97 3.66 5.94 4 9 C3.34 9 2.68 9 2 9 C1.67 9.66 1.34 10.32 1 11 C0.67 7.37 0.34 3.74 0 0 Z " fill="#E7E7E7" transform="translate(511,510)"/>
<path d="M0 0 C0 0.99 0 1.98 0 3 C-2.35438733 4.42944945 -3.48032433 5.08661261 -6.25 4.625 C-6.8275 4.41875 -7.405 4.2125 -8 4 C-2.25 0 -2.25 0 0 0 Z " fill="#F2F2F2" transform="translate(831,675)"/>
<path d="M0 0 C-0.11362262 1.4800841 -0.24122908 2.95910074 -0.375 4.4375 C-0.47941406 5.67306641 -0.47941406 5.67306641 -0.5859375 6.93359375 C-0.72257813 7.61550781 -0.85921875 8.29742187 -1 9 C-1.99 9.495 -1.99 9.495 -3 10 C-3 7.03 -3 4.06 -3 1 C-1 0 -1 0 0 0 Z " fill="#1D1D1D" transform="translate(516,457)"/>
<path d="M0 0 C0.33 0 0.66 0 1 0 C0.67 3.3 0.34 6.6 0 10 C-0.66 10 -1.32 10 -2 10 C-2.1953125 3.9453125 -2.1953125 3.9453125 -2 2 C-1.34 1.34 -0.68 0.68 0 0 Z " fill="#F5F5F5" transform="translate(515,441)"/>
<path d="M0 0 C0.33 0.66 0.66 1.32 1 2 C-0.25 5.0625 -0.25 5.0625 -2 8 C-2.99 8.33 -3.98 8.66 -5 9 C-4.5206753 4.68607774 -3.2542015 2.83430453 0 0 Z " fill="#F2F2F2" transform="translate(541,383)"/>
<path d="M0 0 C-2.52956528 3.0916909 -5.22454612 3.90931332 -9 5 C-8.00233891 2.50584728 -7.31383315 1.21259665 -5.0625 -0.3125 C-3 -1 -3 -1 0 0 Z " fill="#F2F2F2" transform="translate(640,290)"/>
<path d="M0 0 C3.63 0.33 7.26 0.66 11 1 C9 3 9 3 6.8359375 3.1953125 C5.61777344 3.16050781 5.61777344 3.16050781 4.375 3.125 C3.55773437 3.10695313 2.74046875 3.08890625 1.8984375 3.0703125 C1.27195312 3.04710937 0.64546875 3.02390625 0 3 C0 2.01 0 1.02 0 0 Z " fill="#E9E9E9" transform="translate(756,265)"/>
<path d="M0 0 C-0.33 0.66 -0.66 1.32 -1 2 C-3.64860427 2.59355614 -6.29197322 2.74209269 -9 3 C-7 0 -7 0 -5.0625 -0.75 C-3 -1 -3 -1 0 0 Z " fill="#E7E7E7" transform="translate(797,695)"/>
<path d="M0 0 C2.96404505 2.80804268 5.44499019 5.18315774 7 9 C6.34 9.66 5.68 10.32 5 11 C4.35165346 9.730447 3.70642185 8.45930294 3.0625 7.1875 C2.70285156 6.47980469 2.34320312 5.77210938 1.97265625 5.04296875 C1 3 1 3 0 0 Z " fill="#C0C0C1" transform="translate(982,630)"/>
<path d="M0 0 C0.33 0 0.66 0 1 0 C1.33 3.63 1.66 7.26 2 11 C1.34 11 0.68 11 0 11 C-1.28571429 3.57142857 -1.28571429 3.57142857 0 0 Z " fill="#1A1A1A" transform="translate(946,446)"/>
<path d="M0 0 C0.99 0 1.98 0 3 0 C2.25 4.75 2.25 4.75 0 7 C-0.66 7 -1.32 7 -2 7 C-1.34 4.69 -0.68 2.38 0 0 Z " fill="#E6E6E6" transform="translate(535,391)"/>
<path d="M0 0 C4.95 0.99 4.95 0.99 10 2 C10 2.33 10 2.66 10 3 C7.03 3 4.06 3 1 3 C0.67 2.01 0.34 1.02 0 0 Z " fill="#0A0A0A" transform="translate(686,697)"/>
<path d="M0 0 C0.99 0.33 1.98 0.66 3 1 C3 3.97 3 6.94 3 10 C-0.00617269 6.99382731 0.40414684 4.17618402 0 0 Z " fill="#0A0A0A" transform="translate(943,440)"/>
<path d="M0 0 C0.66 0.33 1.32 0.66 2 1 C-0.3125 3.5 -0.3125 3.5 -3 6 C-3.99 6 -4.98 6 -6 6 C-2.25 1.125 -2.25 1.125 0 0 Z " fill="#F1F1F1" transform="translate(611,304)"/>
<path d="M0 0 C0 0.99 0 1.98 0 3 C-2.375 4.75 -2.375 4.75 -5 6 C-5.66 5.67 -6.32 5.34 -7 5 C-2.25 0 -2.25 0 0 0 Z " fill="#E7E7E7" transform="translate(609,301)"/>
<path d="M0 0 C0.99 0.33 1.98 0.66 3 1 C1.6875 3.5 1.6875 3.5 0 6 C-0.99 6 -1.98 6 -3 6 C-1.125 1.125 -1.125 1.125 0 0 Z " fill="#DDDDDD" transform="translate(915,603)"/>
<path d="M0 0 C0.93423645 3.01031744 1.04449911 3.86650268 0 7 C-0.99 7 -1.98 7 -3 7 C-2.25 2.25 -2.25 2.25 0 0 Z " fill="#EDEDED" transform="translate(935,566)"/>
<path d="M0 0 C-0.33 0.66 -0.66 1.32 -1 2 C-4.0625 2.625 -4.0625 2.625 -7 3 C-7.33 2.01 -7.66 1.02 -8 0 C-4.94736336 -0.98120464 -3.05263664 -0.98120464 0 0 Z " fill="#EAEAEA" transform="translate(688,269)"/>
<path d="M0 0 C0.33 0.66 0.66 1.32 1 2 C0.06553465 4.03144641 -0.93224776 6.03533587 -2 8 C-2.99 8 -3.98 8 -5 8 C-3.62845496 5.04590299 -2.01136276 2.55991624 0 0 Z " fill="#DDDDDF" transform="translate(483,630)"/>
<path d="M0 0 C1.74627478 2.61941217 2.38722388 4.03824877 3 7 C2.01 7.33 1.02 7.66 0 8 C-1.125 2.25 -1.125 2.25 0 0 Z " fill="#DCDCDC" transform="translate(524,557)"/>
<path d="M0 0 C0.66 0.33 1.32 0.66 2 1 C2 2.98 2 4.96 2 7 C1.01 7.33 0.02 7.66 -1 8 C-0.67 5.36 -0.34 2.72 0 0 Z " fill="#D5D6D6" transform="translate(782,226)"/>
</svg>
